<svg width="553" height="393" viewBox="0 0 553 393" fill="none" xmlns="http://www.w3.org/2000/svg">
<g filter="url(#filter0_d_1_3633)">
<rect x="48" y="47" width="443" height="314" rx="24" fill="white" shape-rendering="crispEdges"/>
<path d="M197.68 77.26C196.733 77.26 195.843 77.0733 195.01 76.7C194.177 76.32 193.443 75.8 192.81 75.14C192.183 74.4733 191.69 73.7 191.33 72.82C190.977 71.94 190.8 71 190.8 70C190.8 69 190.977 68.06 191.33 67.18C191.69 66.3 192.183 65.53 192.81 64.87C193.443 64.2033 194.177 63.6833 195.01 63.31C195.843 62.93 196.733 62.74 197.68 62.74C198.813 62.74 199.857 63.0033 200.81 63.53C201.763 64.0567 202.553 64.7567 203.18 65.63L201.33 66.62C200.897 66.0733 200.36 65.6367 199.72 65.31C199.08 64.9833 198.4 64.82 197.68 64.82C197.013 64.82 196.39 64.9567 195.81 65.23C195.23 65.5033 194.72 65.8767 194.28 66.35C193.84 66.8233 193.497 67.3733 193.25 68C193.003 68.6267 192.88 69.2933 192.88 70C192.88 70.7133 193.003 71.3833 193.25 72.01C193.497 72.63 193.84 73.18 194.28 73.66C194.727 74.1333 195.24 74.5067 195.82 74.78C196.4 75.0467 197.02 75.18 197.68 75.18C198.413 75.18 199.097 75.0167 199.73 74.69C200.37 74.3567 200.903 73.9167 201.33 73.37L203.18 74.38C202.553 75.2533 201.763 75.9533 200.81 76.48C199.857 77 198.813 77.26 197.68 77.26ZM204.667 73.25V67H206.747V72.74C206.747 73.1867 206.857 73.5933 207.077 73.96C207.297 74.3267 207.591 74.62 207.957 74.84C208.324 75.0533 208.727 75.16 209.167 75.16C209.614 75.16 210.017 75.0533 210.377 74.84C210.744 74.62 211.034 74.3267 211.247 73.96C211.467 73.5933 211.577 73.1867 211.577 72.74V67H213.657L213.667 77H211.587L211.577 75.92C211.237 76.3333 210.814 76.66 210.307 76.9C209.801 77.14 209.257 77.26 208.677 77.26C207.937 77.26 207.264 77.08 206.657 76.72C206.051 76.36 205.567 75.8767 205.207 75.27C204.847 74.6633 204.667 73.99 204.667 73.25ZM215.673 77V67H217.753V68.06C218.099 67.6467 218.526 67.32 219.033 67.08C219.539 66.84 220.086 66.72 220.673 66.72C221.046 66.72 221.416 66.77 221.783 66.87L220.953 68.97C220.693 68.87 220.433 68.82 220.173 68.82C219.733 68.82 219.329 68.93 218.963 69.15C218.596 69.3633 218.303 69.6533 218.083 70.02C217.863 70.3867 217.753 70.7933 217.753 71.24V77H215.673ZM223.016 77V67H225.096V68.06C225.443 67.6467 225.87 67.32 226.376 67.08C226.883 66.84 227.43 66.72 228.016 66.72C228.39 66.72 228.76 66.77 229.126 66.87L228.296 68.97C228.036 68.87 227.776 68.82 227.516 68.82C227.076 68.82 226.673 68.93 226.306 69.15C225.94 69.3633 225.646 69.6533 225.426 70.02C225.206 70.3867 225.096 70.7933 225.096 71.24V77H223.016ZM234.213 77.26C233.293 77.26 232.453 77.0233 231.693 76.55C230.94 76.0767 230.337 75.4433 229.883 74.65C229.437 73.85 229.213 72.9667 229.213 72C229.213 71.2667 229.343 70.5833 229.603 69.95C229.863 69.31 230.22 68.75 230.673 68.27C231.133 67.7833 231.667 67.4033 232.273 67.13C232.88 66.8567 233.527 66.72 234.213 66.72C234.98 66.72 235.683 66.88 236.323 67.2C236.963 67.5133 237.51 67.95 237.963 68.51C238.417 69.0633 238.75 69.7033 238.963 70.43C239.177 71.15 239.24 71.9167 239.153 72.73H231.443C231.53 73.19 231.697 73.6067 231.943 73.98C232.197 74.3467 232.517 74.6367 232.903 74.85C233.297 75.0633 233.733 75.1733 234.213 75.18C234.72 75.18 235.18 75.0533 235.593 74.8C236.013 74.5467 236.357 74.1967 236.623 73.75L238.733 74.24C238.333 75.1267 237.73 75.8533 236.923 76.42C236.117 76.98 235.213 77.26 234.213 77.26ZM231.373 71.14H237.053C236.987 70.66 236.817 70.2267 236.543 69.84C236.277 69.4467 235.94 69.1367 235.533 68.91C235.133 68.6767 234.693 68.56 234.213 68.56C233.74 68.56 233.3 68.6733 232.893 68.9C232.493 69.1267 232.16 69.4367 231.893 69.83C231.633 70.2167 231.46 70.6533 231.373 71.14ZM249.809 70.73V77H247.729V71.24C247.729 70.7933 247.619 70.3867 247.399 70.02C247.186 69.6533 246.896 69.3633 246.529 69.15C246.169 68.93 245.763 68.82 245.309 68.82C244.869 68.82 244.466 68.93 244.099 69.15C243.733 69.3633 243.439 69.6533 243.219 70.02C242.999 70.3867 242.889 70.7933 242.889 71.24V77H240.809V67H242.889V68.06C243.236 67.6467 243.663 67.32 244.169 67.08C244.676 66.84 245.223 66.72 245.809 66.72C246.549 66.72 247.223 66.9 247.829 67.26C248.436 67.62 248.916 68.1033 249.269 68.71C249.629 69.3167 249.809 69.99 249.809 70.73ZM258.14 74.16L260 75.17C259.547 75.8033 258.97 76.31 258.27 76.69C257.577 77.07 256.823 77.26 256.01 77.26C255.09 77.26 254.25 77.0233 253.49 76.55C252.737 76.0767 252.133 75.4433 251.68 74.65C251.233 73.85 251.01 72.9667 251.01 72C251.01 71.2667 251.14 70.5833 251.4 69.95C251.66 69.31 252.017 68.75 252.47 68.27C252.93 67.7833 253.463 67.4033 254.07 67.13C254.677 66.8567 255.323 66.72 256.01 66.72C256.823 66.72 257.577 66.91 258.27 67.29C258.97 67.67 259.547 68.18 260 68.82L258.14 69.83C257.86 69.4967 257.533 69.2433 257.16 69.07C256.787 68.89 256.403 68.8 256.01 68.8C255.463 68.8 254.967 68.95 254.52 69.25C254.08 69.5433 253.73 69.9333 253.47 70.42C253.217 70.9 253.09 71.4267 253.09 72C253.09 72.5667 253.22 73.0933 253.48 73.58C253.74 74.06 254.09 74.4467 254.53 74.74C254.977 75.0333 255.47 75.18 256.01 75.18C256.423 75.18 256.817 75.0867 257.19 74.9C257.563 74.7133 257.88 74.4667 258.14 74.16ZM268.03 67H270.25L264.77 82H262.56L264.37 77L260.78 67H263.05L265.41 74.15L268.03 67ZM277.059 77L279.769 63H281.449L285.039 72.43L288.609 63H290.289L293.009 77H290.889L289.079 67.63L285.729 76.47H284.329L280.989 67.63L279.179 77H277.059ZM302.222 67H304.302V77H302.212L302.132 75.55C301.839 76.0633 301.442 76.4767 300.942 76.79C300.442 77.1033 299.852 77.26 299.172 77.26C298.439 77.26 297.749 77.1233 297.102 76.85C296.456 76.57 295.886 76.1833 295.392 75.69C294.906 75.1967 294.526 74.63 294.252 73.99C293.979 73.3433 293.842 72.65 293.842 71.91C293.842 71.1967 293.976 70.5267 294.242 69.9C294.509 69.2667 294.879 68.7133 295.352 68.24C295.826 67.7667 296.372 67.3967 296.992 67.13C297.619 66.8567 298.289 66.72 299.002 66.72C299.729 66.72 300.369 66.8867 300.922 67.22C301.482 67.5467 301.946 67.9667 302.312 68.48L302.222 67ZM299.122 75.25C299.709 75.25 300.222 75.1067 300.662 74.82C301.102 74.5267 301.442 74.1333 301.682 73.64C301.929 73.1467 302.052 72.6 302.052 72C302.052 71.3933 301.929 70.8433 301.682 70.35C301.436 69.8567 301.092 69.4667 300.652 69.18C300.219 68.8867 299.709 68.74 299.122 68.74C298.542 68.74 298.012 68.8867 297.532 69.18C297.052 69.4733 296.672 69.8667 296.392 70.36C296.112 70.8533 295.972 71.4 295.972 72C295.972 72.6067 296.116 73.1567 296.402 73.65C296.696 74.1367 297.079 74.5267 297.552 74.82C298.032 75.1067 298.556 75.25 299.122 75.25ZM306.298 77V67H308.378V68.06C308.724 67.6467 309.151 67.32 309.658 67.08C310.164 66.84 310.711 66.72 311.298 66.72C311.671 66.72 312.041 66.77 312.408 66.87L311.578 68.97C311.318 68.87 311.058 68.82 310.798 68.82C310.358 68.82 309.954 68.93 309.588 69.15C309.221 69.3633 308.928 69.6533 308.708 70.02C308.488 70.3867 308.378 70.7933 308.378 71.24V77H306.298ZM322.094 77H319.694L317.234 72.76L315.624 74.68V77H313.544V62H315.624V71.45L319.344 67H322.064L318.654 71.07L322.094 77ZM327.514 77.26C326.594 77.26 325.754 77.0233 324.994 76.55C324.241 76.0767 323.637 75.4433 323.184 74.65C322.737 73.85 322.514 72.9667 322.514 72C322.514 71.2667 322.644 70.5833 322.904 69.95C323.164 69.31 323.521 68.75 323.974 68.27C324.434 67.7833 324.967 67.4033 325.574 67.13C326.181 66.8567 326.827 66.72 327.514 66.72C328.281 66.72 328.984 66.88 329.624 67.2C330.264 67.5133 330.811 67.95 331.264 68.51C331.717 69.0633 332.051 69.7033 332.264 70.43C332.477 71.15 332.541 71.9167 332.454 72.73H324.744C324.831 73.19 324.997 73.6067 325.244 73.98C325.497 74.3467 325.817 74.6367 326.204 74.85C326.597 75.0633 327.034 75.1733 327.514 75.18C328.021 75.18 328.481 75.0533 328.894 74.8C329.314 74.5467 329.657 74.1967 329.924 73.75L332.034 74.24C331.634 75.1267 331.031 75.8533 330.224 76.42C329.417 76.98 328.514 77.26 327.514 77.26ZM324.674 71.14H330.354C330.287 70.66 330.117 70.2267 329.844 69.84C329.577 69.4467 329.241 69.1367 328.834 68.91C328.434 68.6767 327.994 68.56 327.514 68.56C327.041 68.56 326.601 68.6733 326.194 68.9C325.794 69.1267 325.461 69.4367 325.194 69.83C324.934 70.2167 324.761 70.6533 324.674 71.14ZM339.332 69.08H337.232L337.222 77H335.142L335.152 69.08H333.562V67H335.152L335.142 63.86H337.222L337.232 67H339.332V69.08ZM343.985 77.19C343.458 77.1567 342.945 77.05 342.445 76.87C341.945 76.69 341.505 76.4467 341.125 76.14C340.752 75.8267 340.472 75.46 340.285 75.04L342.055 74.28C342.142 74.46 342.292 74.6367 342.505 74.81C342.725 74.9833 342.982 75.1267 343.275 75.24C343.568 75.3467 343.875 75.4 344.195 75.4C344.508 75.4 344.798 75.3567 345.065 75.27C345.338 75.1767 345.562 75.0367 345.735 74.85C345.908 74.6633 345.995 74.44 345.995 74.18C345.995 73.8867 345.895 73.66 345.695 73.5C345.502 73.3333 345.258 73.2067 344.965 73.12C344.672 73.0333 344.378 72.95 344.085 72.87C343.432 72.7233 342.832 72.5233 342.285 72.27C341.745 72.01 341.315 71.68 340.995 71.28C340.675 70.8733 340.515 70.3767 340.515 69.79C340.515 69.15 340.688 68.5967 341.035 68.13C341.382 67.6567 341.835 67.2933 342.395 67.04C342.962 66.7867 343.565 66.66 344.205 66.66C345.005 66.66 345.738 66.83 346.405 67.17C347.072 67.51 347.582 67.9767 347.935 68.57L346.285 69.55C346.185 69.35 346.035 69.17 345.835 69.01C345.635 68.85 345.408 68.7233 345.155 68.63C344.902 68.53 344.638 68.4733 344.365 68.46C344.025 68.4467 343.708 68.4867 343.415 68.58C343.128 68.6667 342.898 68.8067 342.725 69C342.552 69.1933 342.465 69.44 342.465 69.74C342.465 70.0333 342.568 70.2533 342.775 70.4C342.982 70.54 343.242 70.6533 343.555 70.74C343.875 70.8267 344.202 70.9233 344.535 71.03C345.128 71.2167 345.685 71.4467 346.205 71.72C346.725 71.9867 347.145 72.3167 347.465 72.71C347.785 73.1033 347.938 73.5833 347.925 74.15C347.925 74.7767 347.735 75.3267 347.355 75.8C346.982 76.2733 346.495 76.6333 345.895 76.88C345.295 77.1267 344.658 77.23 343.985 77.19Z" fill="#0A1519"/>
<path d="M167.34 99V89.2H168.32V98.02H172.821V99H167.34ZM179.397 92H180.377V99H179.397L179.362 97.698C179.133 98.1413 178.813 98.5007 178.403 98.776C177.992 99.0467 177.502 99.182 176.933 99.182C176.419 99.182 175.939 99.0863 175.491 98.895C175.043 98.699 174.648 98.4307 174.308 98.09C173.967 97.7493 173.701 97.355 173.51 96.907C173.318 96.459 173.223 95.9783 173.223 95.465C173.223 94.961 173.316 94.4873 173.503 94.044C173.694 93.6007 173.955 93.211 174.287 92.875C174.623 92.539 175.01 92.2777 175.449 92.091C175.892 91.8997 176.366 91.804 176.87 91.804C177.453 91.804 177.962 91.944 178.396 92.224C178.83 92.4993 179.175 92.861 179.432 93.309L179.397 92ZM176.912 98.23C177.411 98.23 177.84 98.1087 178.2 97.866C178.559 97.6187 178.834 97.2873 179.026 96.872C179.222 96.4567 179.32 95.9993 179.32 95.5C179.32 94.9867 179.222 94.5247 179.026 94.114C178.83 93.6987 178.552 93.3697 178.193 93.127C177.833 92.8843 177.406 92.763 176.912 92.763C176.417 92.763 175.964 92.8867 175.554 93.134C175.148 93.3767 174.823 93.7057 174.581 94.121C174.343 94.5363 174.224 94.996 174.224 95.5C174.224 96.0087 174.347 96.4707 174.595 96.886C174.842 97.2967 175.169 97.6233 175.575 97.866C175.985 98.1087 176.431 98.23 176.912 98.23ZM185.355 92.98H183.682L183.675 99H182.695L182.702 92.98H181.435V92H182.702L182.695 89.802H183.675L183.682 92H185.355V92.98ZM189.492 99.182C188.848 99.182 188.26 99.0163 187.728 98.685C187.201 98.3537 186.779 97.9103 186.461 97.355C186.149 96.795 185.992 96.1767 185.992 95.5C185.992 94.9867 186.083 94.5083 186.265 94.065C186.447 93.617 186.697 93.225 187.014 92.889C187.336 92.5483 187.71 92.2823 188.134 92.091C188.559 91.8997 189.012 91.804 189.492 91.804C190.01 91.804 190.486 91.9067 190.92 92.112C191.359 92.3173 191.735 92.6043 192.047 92.973C192.365 93.3417 192.603 93.7733 192.761 94.268C192.925 94.7627 192.992 95.297 192.964 95.871H187.028C187.084 96.3143 187.224 96.711 187.448 97.061C187.677 97.411 187.966 97.6887 188.316 97.894C188.671 98.0947 189.063 98.1973 189.492 98.202C189.959 98.202 190.379 98.0807 190.752 97.838C191.13 97.5953 191.434 97.2617 191.662 96.837L192.656 97.068C192.376 97.6887 191.954 98.1973 191.389 98.594C190.825 98.986 190.192 99.182 189.492 99.182ZM187 95.08H191.977C191.945 94.646 191.812 94.2493 191.578 93.89C191.35 93.526 191.053 93.2367 190.689 93.022C190.325 92.8027 189.926 92.693 189.492 92.693C189.058 92.693 188.662 92.8003 188.302 93.015C187.943 93.225 187.649 93.512 187.42 93.876C187.192 94.2353 187.052 94.6367 187 95.08ZM196.341 99.133C195.958 99.1237 195.585 99.0537 195.221 98.923C194.857 98.7923 194.54 98.615 194.269 98.391C193.998 98.167 193.805 97.9127 193.688 97.628L194.535 97.264C194.61 97.446 194.747 97.614 194.948 97.768C195.153 97.9173 195.387 98.0387 195.648 98.132C195.909 98.2207 196.168 98.265 196.425 98.265C196.71 98.265 196.976 98.2183 197.223 98.125C197.47 98.0317 197.671 97.8987 197.825 97.726C197.984 97.5487 198.063 97.341 198.063 97.103C198.063 96.8463 197.979 96.6457 197.811 96.501C197.643 96.3517 197.431 96.235 197.174 96.151C196.917 96.0623 196.654 95.9783 196.383 95.899C195.888 95.7637 195.452 95.6143 195.074 95.451C194.696 95.2877 194.4 95.08 194.185 94.828C193.975 94.5713 193.87 94.2423 193.87 93.841C193.87 93.4163 193.989 93.05 194.227 92.742C194.47 92.4293 194.785 92.189 195.172 92.021C195.564 91.8483 195.982 91.762 196.425 91.762C196.994 91.762 197.512 91.8857 197.979 92.133C198.45 92.3803 198.791 92.7093 199.001 93.12L198.21 93.589C198.126 93.3977 197.993 93.232 197.811 93.092C197.629 92.952 197.421 92.8423 197.188 92.763C196.959 92.6837 196.726 92.6417 196.488 92.637C196.189 92.6323 195.912 92.6767 195.655 92.77C195.398 92.8587 195.191 92.9917 195.032 93.169C194.878 93.3463 194.801 93.5633 194.801 93.82C194.801 94.0767 194.878 94.2727 195.032 94.408C195.186 94.5387 195.394 94.646 195.655 94.73C195.921 94.8093 196.22 94.9027 196.551 95.01C196.976 95.1453 197.375 95.2993 197.748 95.472C198.121 95.6447 198.422 95.8593 198.651 96.116C198.88 96.3727 198.992 96.697 198.987 97.089C198.987 97.509 198.861 97.8753 198.609 98.188C198.357 98.5007 198.03 98.741 197.629 98.909C197.228 99.0723 196.798 99.147 196.341 99.133ZM203.771 92.98H202.098L202.091 99H201.111L201.118 92.98H199.851V92H201.118L201.111 89.802H202.091L202.098 92H203.771V92.98ZM209.363 102.5H208.383V92H209.363V93.309C209.606 92.8657 209.937 92.5063 210.357 92.231C210.777 91.9557 211.276 91.818 211.855 91.818C212.364 91.818 212.84 91.9137 213.283 92.105C213.731 92.2963 214.123 92.5623 214.459 92.903C214.795 93.239 215.059 93.6287 215.25 94.072C215.441 94.5153 215.537 94.9913 215.537 95.5C215.537 96.0087 215.441 96.487 215.25 96.935C215.059 97.383 214.795 97.7773 214.459 98.118C214.123 98.454 213.731 98.7177 213.283 98.909C212.84 99.1003 212.364 99.196 211.855 99.196C211.276 99.196 210.777 99.0583 210.357 98.783C209.937 98.5077 209.606 98.1483 209.363 97.705V102.5ZM211.848 92.77C211.358 92.77 210.931 92.8937 210.567 93.141C210.208 93.3837 209.93 93.7103 209.734 94.121C209.538 94.5317 209.44 94.9913 209.44 95.5C209.44 95.9993 209.536 96.4567 209.727 96.872C209.923 97.2873 210.201 97.6187 210.56 97.866C210.924 98.1133 211.353 98.237 211.848 98.237C212.333 98.237 212.779 98.1157 213.185 97.873C213.596 97.6303 213.925 97.3037 214.172 96.893C214.419 96.4777 214.543 96.0133 214.543 95.5C214.543 95.0007 214.422 94.5457 214.179 94.135C213.936 93.7197 213.612 93.3883 213.206 93.141C212.8 92.8937 212.347 92.77 211.848 92.77ZM216.723 99V92H217.703V92.966C217.95 92.6113 218.272 92.329 218.669 92.119C219.065 91.909 219.497 91.804 219.964 91.804C220.234 91.804 220.496 91.839 220.748 91.909L220.349 92.882C220.153 92.8213 219.961 92.791 219.775 92.791C219.397 92.791 219.049 92.8843 218.732 93.071C218.419 93.2577 218.169 93.5073 217.983 93.82C217.796 94.1327 217.703 94.4803 217.703 94.863V99H216.723ZM221.631 92H222.611V99H221.631V92ZM222.128 90.775C221.969 90.775 221.834 90.7237 221.722 90.621C221.615 90.5137 221.561 90.3807 221.561 90.222C221.561 90.0633 221.615 89.9327 221.722 89.83C221.834 89.7227 221.969 89.669 222.128 89.669C222.282 89.669 222.413 89.7227 222.52 89.83C222.632 89.9327 222.688 90.0633 222.688 90.222C222.688 90.3807 222.634 90.5137 222.527 90.621C222.42 90.7237 222.287 90.775 222.128 90.775ZM229.227 97.243L230.102 97.719C229.784 98.1623 229.381 98.517 228.891 98.783C228.405 99.049 227.878 99.182 227.309 99.182C226.665 99.182 226.077 99.0163 225.545 98.685C225.017 98.3537 224.595 97.9103 224.278 97.355C223.965 96.795 223.809 96.1767 223.809 95.5C223.809 94.9867 223.9 94.5083 224.082 94.065C224.264 93.617 224.513 93.225 224.831 92.889C225.153 92.5483 225.526 92.2823 225.951 92.091C226.375 91.8997 226.828 91.804 227.309 91.804C227.878 91.804 228.405 91.937 228.891 92.203C229.381 92.469 229.784 92.826 230.102 93.274L229.227 93.743C228.984 93.435 228.692 93.1993 228.352 93.036C228.011 92.868 227.663 92.784 227.309 92.784C226.837 92.784 226.41 92.91 226.028 93.162C225.645 93.4093 225.342 93.7383 225.118 94.149C224.898 94.5597 224.789 95.01 224.789 95.5C224.789 95.99 224.901 96.4403 225.125 96.851C225.353 97.2617 225.659 97.5907 226.042 97.838C226.424 98.0807 226.847 98.202 227.309 98.202C227.691 98.202 228.051 98.1133 228.387 97.936C228.723 97.7587 229.003 97.5277 229.227 97.243ZM234.35 99.182C233.706 99.182 233.118 99.0163 232.586 98.685C232.058 98.3537 231.636 97.9103 231.319 97.355C231.006 96.795 230.85 96.1767 230.85 95.5C230.85 94.9867 230.941 94.5083 231.123 94.065C231.305 93.617 231.554 93.225 231.872 92.889C232.194 92.5483 232.567 92.2823 232.992 92.091C233.416 91.8997 233.869 91.804 234.35 91.804C234.868 91.804 235.344 91.9067 235.778 92.112C236.216 92.3173 236.592 92.6043 236.905 92.973C237.222 93.3417 237.46 93.7733 237.619 94.268C237.782 94.7627 237.85 95.297 237.822 95.871H231.886C231.942 96.3143 232.082 96.711 232.306 97.061C232.534 97.411 232.824 97.6887 233.174 97.894C233.528 98.0947 233.92 98.1973 234.35 98.202C234.816 98.202 235.236 98.0807 235.61 97.838C235.988 97.5953 236.291 97.2617 236.52 96.837L237.514 97.068C237.234 97.6887 236.811 98.1973 236.247 98.594C235.682 98.986 235.05 99.182 234.35 99.182ZM231.858 95.08H236.835C236.802 94.646 236.669 94.2493 236.436 93.89C236.207 93.526 235.911 93.2367 235.547 93.022C235.183 92.8027 234.784 92.693 234.35 92.693C233.916 92.693 233.519 92.8003 233.16 93.015C232.8 93.225 232.506 93.512 232.278 93.876C232.049 94.2353 231.909 94.6367 231.858 95.08ZM241.198 99.133C240.816 99.1237 240.442 99.0537 240.078 98.923C239.714 98.7923 239.397 98.615 239.126 98.391C238.856 98.167 238.662 97.9127 238.545 97.628L239.392 97.264C239.467 97.446 239.605 97.614 239.805 97.768C240.011 97.9173 240.244 98.0387 240.505 98.132C240.767 98.2207 241.026 98.265 241.282 98.265C241.567 98.265 241.833 98.2183 242.08 98.125C242.328 98.0317 242.528 97.8987 242.682 97.726C242.841 97.5487 242.92 97.341 242.92 97.103C242.92 96.8463 242.836 96.6457 242.668 96.501C242.5 96.3517 242.288 96.235 242.031 96.151C241.775 96.0623 241.511 95.9783 241.24 95.899C240.746 95.7637 240.309 95.6143 239.931 95.451C239.553 95.2877 239.257 95.08 239.042 94.828C238.832 94.5713 238.727 94.2423 238.727 93.841C238.727 93.4163 238.846 93.05 239.084 92.742C239.327 92.4293 239.642 92.189 240.029 92.021C240.421 91.8483 240.839 91.762 241.282 91.762C241.852 91.762 242.37 91.8857 242.836 92.133C243.308 92.3803 243.648 92.7093 243.858 93.12L243.067 93.589C242.983 93.3977 242.85 93.232 242.668 93.092C242.486 92.952 242.279 92.8423 242.045 92.763C241.817 92.6837 241.583 92.6417 241.345 92.637C241.047 92.6323 240.769 92.6767 240.512 92.77C240.256 92.8587 240.048 92.9917 239.889 93.169C239.735 93.3463 239.658 93.5633 239.658 93.82C239.658 94.0767 239.735 94.2727 239.889 94.408C240.043 94.5387 240.251 94.646 240.512 94.73C240.778 94.8093 241.077 94.9027 241.408 95.01C241.833 95.1453 242.232 95.2993 242.605 95.472C242.979 95.6447 243.28 95.8593 243.508 96.116C243.737 96.3727 243.849 96.697 243.844 97.089C243.844 97.509 243.718 97.8753 243.466 98.188C243.214 98.5007 242.888 98.741 242.486 98.909C242.085 99.0723 241.656 99.147 241.198 99.133ZM251.494 99.182C250.85 99.182 250.262 99.0163 249.73 98.685C249.203 98.3537 248.781 97.9103 248.463 97.355C248.151 96.795 247.994 96.1767 247.994 95.5C247.994 94.9867 248.085 94.5083 248.267 94.065C248.449 93.617 248.699 93.225 249.016 92.889C249.338 92.5483 249.712 92.2823 250.136 92.091C250.561 91.8997 251.014 91.804 251.494 91.804C252.138 91.804 252.724 91.9697 253.251 92.301C253.783 92.6323 254.206 93.078 254.518 93.638C254.836 94.198 254.994 94.8187 254.994 95.5C254.994 96.0087 254.903 96.4847 254.721 96.928C254.539 97.3713 254.287 97.7633 253.965 98.104C253.648 98.44 253.277 98.7037 252.852 98.895C252.432 99.0863 251.98 99.182 251.494 99.182ZM251.494 98.202C251.97 98.202 252.397 98.0783 252.775 97.831C253.158 97.579 253.459 97.2477 253.678 96.837C253.902 96.4263 254.014 95.9807 254.014 95.5C254.014 95.01 253.902 94.5597 253.678 94.149C253.454 93.7337 253.151 93.4023 252.768 93.155C252.39 92.9077 251.966 92.784 251.494 92.784C251.018 92.784 250.589 92.91 250.206 93.162C249.828 93.4093 249.527 93.7383 249.303 94.149C249.084 94.5597 248.974 95.01 248.974 95.5C248.974 96.004 249.089 96.4613 249.317 96.872C249.546 97.278 249.852 97.6023 250.234 97.845C250.617 98.083 251.037 98.202 251.494 98.202ZM257.697 90.173V92H259.797V92.98H257.697V99H256.717V92.98H255.758V92H256.717V90.173C256.717 89.8323 256.799 89.5243 256.962 89.249C257.13 88.969 257.354 88.7473 257.634 88.584C257.914 88.416 258.225 88.332 258.565 88.332C258.813 88.332 259.051 88.381 259.279 88.479C259.513 88.577 259.72 88.7217 259.902 88.913L259.202 89.606C259.128 89.5127 259.032 89.4403 258.915 89.389C258.803 89.3377 258.687 89.312 258.565 89.312C258.327 89.312 258.122 89.396 257.949 89.564C257.781 89.732 257.697 89.935 257.697 90.173ZM267.864 92.98H266.191L266.184 99H265.204L265.211 92.98H263.944V92H265.211L265.204 89.802H266.184L266.191 92H267.864V92.98ZM272.002 99.182C271.358 99.182 270.77 99.0163 270.238 98.685C269.711 98.3537 269.288 97.9103 268.971 97.355C268.658 96.795 268.502 96.1767 268.502 95.5C268.502 94.9867 268.593 94.5083 268.775 94.065C268.957 93.617 269.207 93.225 269.524 92.889C269.846 92.5483 270.219 92.2823 270.644 92.091C271.069 91.8997 271.521 91.804 272.002 91.804C272.646 91.804 273.232 91.9697 273.759 92.301C274.291 92.6323 274.713 93.078 275.026 93.638C275.343 94.198 275.502 94.8187 275.502 95.5C275.502 96.0087 275.411 96.4847 275.229 96.928C275.047 97.3713 274.795 97.7633 274.473 98.104C274.156 98.44 273.785 98.7037 273.36 98.895C272.94 99.0863 272.487 99.182 272.002 99.182ZM272.002 98.202C272.478 98.202 272.905 98.0783 273.283 97.831C273.666 97.579 273.967 97.2477 274.186 96.837C274.41 96.4263 274.522 95.9807 274.522 95.5C274.522 95.01 274.41 94.5597 274.186 94.149C273.962 93.7337 273.659 93.4023 273.276 93.155C272.898 92.9077 272.473 92.784 272.002 92.784C271.526 92.784 271.097 92.91 270.714 93.162C270.336 93.4093 270.035 93.7383 269.811 94.149C269.592 94.5597 269.482 95.01 269.482 95.5C269.482 96.004 269.596 96.4613 269.825 96.872C270.054 97.278 270.359 97.6023 270.742 97.845C271.125 98.083 271.545 98.202 272.002 98.202ZM277.668 102.5H276.688V92H277.668V93.309C277.91 92.8657 278.242 92.5063 278.662 92.231C279.082 91.9557 279.581 91.818 280.16 91.818C280.668 91.818 281.144 91.9137 281.588 92.105C282.036 92.2963 282.428 92.5623 282.764 92.903C283.1 93.239 283.363 93.6287 283.555 94.072C283.746 94.5153 283.842 94.9913 283.842 95.5C283.842 96.0087 283.746 96.487 283.555 96.935C283.363 97.383 283.1 97.7773 282.764 98.118C282.428 98.454 282.036 98.7177 281.588 98.909C281.144 99.1003 280.668 99.196 280.16 99.196C279.581 99.196 279.082 99.0583 278.662 98.783C278.242 98.5077 277.91 98.1483 277.668 97.705V102.5ZM280.153 92.77C279.663 92.77 279.236 92.8937 278.872 93.141C278.512 93.3837 278.235 93.7103 278.039 94.121C277.843 94.5317 277.745 94.9913 277.745 95.5C277.745 95.9993 277.84 96.4567 278.032 96.872C278.228 97.2873 278.505 97.6187 278.865 97.866C279.229 98.1133 279.658 98.237 280.153 98.237C280.638 98.237 281.084 98.1157 281.49 97.873C281.9 97.6303 282.229 97.3037 282.477 96.893C282.724 96.4777 282.848 96.0133 282.848 95.5C282.848 95.0007 282.726 94.5457 282.484 94.135C282.241 93.7197 281.917 93.3883 281.511 93.141C281.105 92.8937 280.652 92.77 280.153 92.77ZM293.457 97.243L294.332 97.719C294.015 98.1623 293.611 98.517 293.121 98.783C292.636 99.049 292.108 99.182 291.539 99.182C290.895 99.182 290.307 99.0163 289.775 98.685C289.248 98.3537 288.825 97.9103 288.508 97.355C288.195 96.795 288.039 96.1767 288.039 95.5C288.039 94.9867 288.13 94.5083 288.312 94.065C288.494 93.617 288.744 93.225 289.061 92.889C289.383 92.5483 289.756 92.2823 290.181 92.091C290.606 91.8997 291.058 91.804 291.539 91.804C292.108 91.804 292.636 91.937 293.121 92.203C293.611 92.469 294.015 92.826 294.332 93.274L293.457 93.743C293.214 93.435 292.923 93.1993 292.582 93.036C292.241 92.868 291.894 92.784 291.539 92.784C291.068 92.784 290.641 92.91 290.258 93.162C289.875 93.4093 289.572 93.7383 289.348 94.149C289.129 94.5597 289.019 95.01 289.019 95.5C289.019 95.99 289.131 96.4403 289.355 96.851C289.584 97.2617 289.889 97.5907 290.272 97.838C290.655 98.0807 291.077 98.202 291.539 98.202C291.922 98.202 292.281 98.1133 292.617 97.936C292.953 97.7587 293.233 97.5277 293.457 97.243ZM295.596 99V92H296.576V92.966C296.823 92.6113 297.145 92.329 297.542 92.119C297.939 91.909 298.37 91.804 298.837 91.804C299.108 91.804 299.369 91.839 299.621 91.909L299.222 92.882C299.026 92.8213 298.835 92.791 298.648 92.791C298.27 92.791 297.922 92.8843 297.605 93.071C297.292 93.2577 297.043 93.5073 296.856 93.82C296.669 94.1327 296.576 94.4803 296.576 94.863V99H295.596ZM305.299 92H306.335L302.506 102.5H301.463L302.737 99L300.224 92H301.295L303.227 97.649L305.299 92ZM308.552 102.5H307.572V92H308.552V93.309C308.795 92.8657 309.126 92.5063 309.546 92.231C309.966 91.9557 310.466 91.818 311.044 91.818C311.553 91.818 312.029 91.9137 312.472 92.105C312.92 92.2963 313.312 92.5623 313.648 92.903C313.984 93.239 314.248 93.6287 314.439 94.072C314.631 94.5153 314.726 94.9913 314.726 95.5C314.726 96.0087 314.631 96.487 314.439 96.935C314.248 97.383 313.984 97.7773 313.648 98.118C313.312 98.454 312.92 98.7177 312.472 98.909C312.029 99.1003 311.553 99.196 311.044 99.196C310.466 99.196 309.966 99.0583 309.546 98.783C309.126 98.5077 308.795 98.1483 308.552 97.705V102.5ZM311.037 92.77C310.547 92.77 310.12 92.8937 309.756 93.141C309.397 93.3837 309.119 93.7103 308.923 94.121C308.727 94.5317 308.629 94.9913 308.629 95.5C308.629 95.9993 308.725 96.4567 308.916 96.872C309.112 97.2873 309.39 97.6187 309.749 97.866C310.113 98.1133 310.543 98.237 311.037 98.237C311.523 98.237 311.968 98.1157 312.374 97.873C312.785 97.6303 313.114 97.3037 313.361 96.893C313.609 96.4777 313.732 96.0133 313.732 95.5C313.732 95.0007 313.611 94.5457 313.368 94.135C313.126 93.7197 312.801 93.3883 312.395 93.141C311.989 92.8937 311.537 92.77 311.037 92.77ZM319.366 92.98H317.693L317.686 99H316.706L316.713 92.98H315.446V92H316.713L316.706 89.802H317.686L317.693 92H319.366V92.98ZM323.504 99.182C322.86 99.182 322.272 99.0163 321.74 98.685C321.213 98.3537 320.79 97.9103 320.473 97.355C320.16 96.795 320.004 96.1767 320.004 95.5C320.004 94.9867 320.095 94.5083 320.277 94.065C320.459 93.617 320.709 93.225 321.026 92.889C321.348 92.5483 321.721 92.2823 322.146 92.091C322.571 91.8997 323.023 91.804 323.504 91.804C324.148 91.804 324.734 91.9697 325.261 92.301C325.793 92.6323 326.215 93.078 326.528 93.638C326.845 94.198 327.004 94.8187 327.004 95.5C327.004 96.0087 326.913 96.4847 326.731 96.928C326.549 97.3713 326.297 97.7633 325.975 98.104C325.658 98.44 325.287 98.7037 324.862 98.895C324.442 99.0863 323.989 99.182 323.504 99.182ZM323.504 98.202C323.98 98.202 324.407 98.0783 324.785 97.831C325.168 97.579 325.469 97.2477 325.688 96.837C325.912 96.4263 326.024 95.9807 326.024 95.5C326.024 95.01 325.912 94.5597 325.688 94.149C325.464 93.7337 325.161 93.4023 324.778 93.155C324.4 92.9077 323.975 92.784 323.504 92.784C323.028 92.784 322.599 92.91 322.216 93.162C321.838 93.4093 321.537 93.7383 321.313 94.149C321.094 94.5597 320.984 95.01 320.984 95.5C320.984 96.004 321.098 96.4613 321.327 96.872C321.556 97.278 321.861 97.6023 322.244 97.845C322.627 98.083 323.047 98.202 323.504 98.202ZM337.375 92H338.355V99H337.375L337.34 97.698C337.112 98.1413 336.792 98.5007 336.381 98.776C335.971 99.0467 335.481 99.182 334.911 99.182C334.398 99.182 333.917 99.0863 333.469 98.895C333.021 98.699 332.627 98.4307 332.286 98.09C331.946 97.7493 331.68 97.355 331.488 96.907C331.297 96.459 331.201 95.9783 331.201 95.465C331.201 94.961 331.295 94.4873 331.481 94.044C331.673 93.6007 331.934 93.211 332.265 92.875C332.601 92.539 332.989 92.2777 333.427 92.091C333.871 91.8997 334.344 91.804 334.848 91.804C335.432 91.804 335.94 91.944 336.374 92.224C336.808 92.4993 337.154 92.861 337.41 93.309L337.375 92ZM334.89 98.23C335.39 98.23 335.819 98.1087 336.178 97.866C336.538 97.6187 336.813 97.2873 337.004 96.872C337.2 96.4567 337.298 95.9993 337.298 95.5C337.298 94.9867 337.2 94.5247 337.004 94.114C336.808 93.6987 336.531 93.3697 336.171 93.127C335.812 92.8843 335.385 92.763 334.89 92.763C334.396 92.763 333.943 92.8867 333.532 93.134C333.126 93.3767 332.802 93.7057 332.559 94.121C332.321 94.5363 332.202 94.996 332.202 95.5C332.202 96.0087 332.326 96.4707 332.573 96.886C332.821 97.2967 333.147 97.6233 333.553 97.866C333.964 98.1087 334.41 98.23 334.89 98.23ZM341.919 99.133C341.536 99.1237 341.163 99.0537 340.799 98.923C340.435 98.7923 340.118 98.615 339.847 98.391C339.576 98.167 339.383 97.9127 339.266 97.628L340.113 97.264C340.188 97.446 340.325 97.614 340.526 97.768C340.731 97.9173 340.965 98.0387 341.226 98.132C341.487 98.2207 341.746 98.265 342.003 98.265C342.288 98.265 342.554 98.2183 342.801 98.125C343.048 98.0317 343.249 97.8987 343.403 97.726C343.562 97.5487 343.641 97.341 343.641 97.103C343.641 96.8463 343.557 96.6457 343.389 96.501C343.221 96.3517 343.009 96.235 342.752 96.151C342.495 96.0623 342.232 95.9783 341.961 95.899C341.466 95.7637 341.03 95.6143 340.652 95.451C340.274 95.2877 339.978 95.08 339.763 94.828C339.553 94.5713 339.448 94.2423 339.448 93.841C339.448 93.4163 339.567 93.05 339.805 92.742C340.048 92.4293 340.363 92.189 340.75 92.021C341.142 91.8483 341.56 91.762 342.003 91.762C342.572 91.762 343.09 91.8857 343.557 92.133C344.028 92.3803 344.369 92.7093 344.579 93.12L343.788 93.589C343.704 93.3977 343.571 93.232 343.389 93.092C343.207 92.952 342.999 92.8423 342.766 92.763C342.537 92.6837 342.304 92.6417 342.066 92.637C341.767 92.6323 341.49 92.6767 341.233 92.77C340.976 92.8587 340.769 92.9917 340.61 93.169C340.456 93.3463 340.379 93.5633 340.379 93.82C340.379 94.0767 340.456 94.2727 340.61 94.408C340.764 94.5387 340.972 94.646 341.233 94.73C341.499 94.8093 341.798 94.9027 342.129 95.01C342.554 95.1453 342.953 95.2993 343.326 95.472C343.699 95.6447 344 95.8593 344.229 96.116C344.458 96.3727 344.57 96.697 344.565 97.089C344.565 97.509 344.439 97.8753 344.187 98.188C343.935 98.5007 343.608 98.741 343.207 98.909C342.806 99.0723 342.376 99.147 341.919 99.133ZM347.935 99.133C347.552 99.1237 347.179 99.0537 346.815 98.923C346.451 98.7923 346.133 98.615 345.863 98.391C345.592 98.167 345.398 97.9127 345.282 97.628L346.129 97.264C346.203 97.446 346.341 97.614 346.542 97.768C346.747 97.9173 346.98 98.0387 347.242 98.132C347.503 98.2207 347.762 98.265 348.019 98.265C348.303 98.265 348.569 98.2183 348.817 98.125C349.064 98.0317 349.265 97.8987 349.419 97.726C349.577 97.5487 349.657 97.341 349.657 97.103C349.657 96.8463 349.573 96.6457 349.405 96.501C349.237 96.3517 349.024 96.235 348.768 96.151C348.511 96.0623 348.247 95.9783 347.977 95.899C347.482 95.7637 347.046 95.6143 346.668 95.451C346.29 95.2877 345.993 95.08 345.779 94.828C345.569 94.5713 345.464 94.2423 345.464 93.841C345.464 93.4163 345.583 93.05 345.821 92.742C346.063 92.4293 346.378 92.189 346.766 92.021C347.158 91.8483 347.575 91.762 348.019 91.762C348.588 91.762 349.106 91.8857 349.573 92.133C350.044 92.3803 350.385 92.7093 350.595 93.12L349.804 93.589C349.72 93.3977 349.587 93.232 349.405 93.092C349.223 92.952 349.015 92.8423 348.782 92.763C348.553 92.6837 348.32 92.6417 348.082 92.637C347.783 92.6323 347.505 92.6767 347.249 92.77C346.992 92.8587 346.784 92.9917 346.626 93.169C346.472 93.3463 346.395 93.5633 346.395 93.82C346.395 94.0767 346.472 94.2727 346.626 94.408C346.78 94.5387 346.987 94.646 347.249 94.73C347.515 94.8093 347.813 94.9027 348.145 95.01C348.569 95.1453 348.968 95.2993 349.342 95.472C349.715 95.6447 350.016 95.8593 350.245 96.116C350.473 96.3727 350.585 96.697 350.581 97.089C350.581 97.509 350.455 97.8753 350.203 98.188C349.951 98.5007 349.624 98.741 349.223 98.909C348.821 99.0723 348.392 99.147 347.935 99.133ZM354.813 99.182C354.169 99.182 353.581 99.0163 353.049 98.685C352.521 98.3537 352.099 97.9103 351.782 97.355C351.469 96.795 351.313 96.1767 351.313 95.5C351.313 94.9867 351.404 94.5083 351.586 94.065C351.768 93.617 352.017 93.225 352.335 92.889C352.657 92.5483 353.03 92.2823 353.455 92.091C353.879 91.8997 354.332 91.804 354.813 91.804C355.331 91.804 355.807 91.9067 356.241 92.112C356.679 92.3173 357.055 92.6043 357.368 92.973C357.685 93.3417 357.923 93.7733 358.082 94.268C358.245 94.7627 358.313 95.297 358.285 95.871H352.349C352.405 96.3143 352.545 96.711 352.769 97.061C352.997 97.411 353.287 97.6887 353.637 97.894C353.991 98.0947 354.383 98.1973 354.813 98.202C355.279 98.202 355.699 98.0807 356.073 97.838C356.451 97.5953 356.754 97.2617 356.983 96.837L357.977 97.068C357.697 97.6887 357.274 98.1973 356.71 98.594C356.145 98.986 355.513 99.182 354.813 99.182ZM352.321 95.08H357.298C357.265 94.646 357.132 94.2493 356.899 93.89C356.67 93.526 356.374 93.2367 356.01 93.022C355.646 92.8027 355.247 92.693 354.813 92.693C354.379 92.693 353.982 92.8003 353.623 93.015C353.263 93.225 352.969 93.512 352.741 93.876C352.512 94.2353 352.372 94.6367 352.321 95.08ZM362.938 92.98H361.265L361.258 99H360.278L360.285 92.98H359.018V92H360.285L360.278 89.802H361.258L361.265 92H362.938V92.98ZM366.296 99.133C365.913 99.1237 365.54 99.0537 365.176 98.923C364.812 98.7923 364.495 98.615 364.224 98.391C363.953 98.167 363.76 97.9127 363.643 97.628L364.49 97.264C364.565 97.446 364.702 97.614 364.903 97.768C365.108 97.9173 365.342 98.0387 365.603 98.132C365.864 98.2207 366.123 98.265 366.38 98.265C366.665 98.265 366.931 98.2183 367.178 98.125C367.425 98.0317 367.626 97.8987 367.78 97.726C367.939 97.5487 368.018 97.341 368.018 97.103C368.018 96.8463 367.934 96.6457 367.766 96.501C367.598 96.3517 367.386 96.235 367.129 96.151C366.872 96.0623 366.609 95.9783 366.338 95.899C365.843 95.7637 365.407 95.6143 365.029 95.451C364.651 95.2877 364.355 95.08 364.14 94.828C363.93 94.5713 363.825 94.2423 363.825 93.841C363.825 93.4163 363.944 93.05 364.182 92.742C364.425 92.4293 364.74 92.189 365.127 92.021C365.519 91.8483 365.937 91.762 366.38 91.762C366.949 91.762 367.467 91.8857 367.934 92.133C368.405 92.3803 368.746 92.7093 368.956 93.12L368.165 93.589C368.081 93.3977 367.948 93.232 367.766 93.092C367.584 92.952 367.376 92.8423 367.143 92.763C366.914 92.6837 366.681 92.6417 366.443 92.637C366.144 92.6323 365.867 92.6767 365.61 92.77C365.353 92.8587 365.146 92.9917 364.987 93.169C364.833 93.3463 364.756 93.5633 364.756 93.82C364.756 94.0767 364.833 94.2727 364.987 94.408C365.141 94.5387 365.349 94.646 365.61 94.73C365.876 94.8093 366.175 94.9027 366.506 95.01C366.931 95.1453 367.33 95.2993 367.703 95.472C368.076 95.6447 368.377 95.8593 368.606 96.116C368.835 96.3727 368.947 96.697 368.942 97.089C368.942 97.509 368.816 97.8753 368.564 98.188C368.312 98.5007 367.985 98.741 367.584 98.909C367.183 99.0723 366.753 99.147 366.296 99.133ZM370.394 99.182C370.24 99.182 370.11 99.126 370.002 99.014C369.895 98.9067 369.841 98.7737 369.841 98.615C369.841 98.4657 369.895 98.3373 370.002 98.23C370.11 98.118 370.24 98.062 370.394 98.062C370.553 98.062 370.686 98.118 370.793 98.23C370.905 98.3373 370.961 98.4657 370.961 98.615C370.961 98.7737 370.905 98.9067 370.793 99.014C370.686 99.126 370.553 99.182 370.394 99.182Z" fill="#0A1519" fill-opacity="0.7"/>
<rect x="68" y="123" width="403" height="74" rx="20" fill="#EFF2F1"/>
<rect x="78" y="133" width="383" height="54" rx="16" fill="white"/>
<g clip-path="url(#clip0_1_3633)">
<path fill-rule="evenodd" clip-rule="evenodd" d="M104 146C96.268 146 90 152.268 90 160C90 167.732 96.268 174 104 174C111.732 174 118 167.732 118 160C118 152.268 111.732 146 104 146Z" fill="#E92B2B"/>
<path fill-rule="evenodd" clip-rule="evenodd" d="M116.127 167H91.873C92.6351 168.317 93.6057 169.499 94.7397 170.5H113.26C114.394 169.499 115.365 168.317 116.127 167Z" fill="#FBFBFB"/>
<path fill-rule="evenodd" clip-rule="evenodd" d="M118 160H90C90 161.209 90.1531 162.381 90.4411 163.5H117.559C117.847 162.381 118 161.209 118 160Z" fill="#FBFBFB"/>
<path fill-rule="evenodd" clip-rule="evenodd" d="M116.127 153H91.8733C91.2467 154.083 90.761 155.258 90.4414 156.5H117.559C117.24 155.258 116.754 154.083 116.127 153Z" fill="#FBFBFB"/>
<path fill-rule="evenodd" clip-rule="evenodd" d="M113.259 149.5H94.7383C97.2063 147.322 100.448 146 103.999 146C107.549 146 110.791 147.322 113.259 149.5Z" fill="#FBFBFB"/>
<path fill-rule="evenodd" clip-rule="evenodd" d="M102.6 146.069V160H90C90 152.74 95.5256 146.771 102.6 146.069Z" fill="#2A2FAF"/>
<path fill-rule="evenodd" clip-rule="evenodd" d="M92.1349 152.567H92.7325L91.9096 153.165L92.2239 154.133L91.5312 153.629C91.7173 153.266 91.9188 152.912 92.1349 152.567Z" fill="#FBFBFB"/>
<path fill-rule="evenodd" clip-rule="evenodd" d="M90.332 156.958C90.3462 156.894 90.3608 156.831 90.3758 156.767H91.0862L91.4005 155.8L91.7148 156.767H92.732L91.9091 157.365L92.2234 158.332L91.4005 157.735L90.5776 158.332L90.8919 157.365L90.332 156.958Z" fill="#FBFBFB"/>
<path fill-rule="evenodd" clip-rule="evenodd" d="M94.9872 149.287C95.3765 148.959 95.784 148.652 96.2078 148.367H96.9317L96.1088 148.965L96.4231 149.932L95.6002 149.335L94.7773 149.932L94.9872 149.287Z" fill="#FBFBFB"/>
<path d="M95.601 151.6L95.9153 152.567H96.9325L96.1096 153.165L96.424 154.133L95.601 153.535L94.7782 154.133L95.0925 153.165L94.2695 152.567H95.2867L95.601 151.6Z" fill="#FBFBFB"/>
<path d="M95.601 155.8L95.9153 156.767H96.9325L96.1096 157.365L96.424 158.332L95.601 157.735L94.7782 158.332L95.0925 157.365L94.2695 156.767H95.2867L95.601 155.8Z" fill="#FBFBFB"/>
<path d="M99.8003 147.4L100.115 148.367H101.132L100.309 148.965L100.623 149.933L99.8003 149.335L98.9773 149.933L99.2916 148.965L98.4688 148.367H99.4859L99.8003 147.4Z" fill="#FBFBFB"/>
<path d="M99.8003 151.6L100.115 152.567H101.132L100.309 153.165L100.623 154.133L99.8003 153.535L98.9773 154.133L99.2916 153.165L98.4688 152.567H99.4859L99.8003 151.6Z" fill="#FBFBFB"/>
<path d="M99.8003 155.8L100.115 156.767H101.132L100.309 157.365L100.623 158.332L99.8003 157.735L98.9773 158.332L99.2916 157.365L98.4688 156.767H99.4859L99.8003 155.8Z" fill="#FBFBFB"/>
</g>
<path d="M131.344 165.708C130.448 165.708 129.669 165.489 129.008 165.052C128.352 164.615 127.845 164.028 127.488 163.292C127.136 162.551 126.96 161.729 126.96 160.828V154.3H128.304V160.828C128.304 161.468 128.421 162.057 128.656 162.596C128.896 163.135 129.24 163.564 129.688 163.884C130.141 164.204 130.693 164.364 131.344 164.364C132.005 164.364 132.56 164.204 133.008 163.884C133.456 163.559 133.795 163.129 134.024 162.596C134.259 162.057 134.376 161.468 134.376 160.828V154.3H135.72V160.828C135.72 161.505 135.619 162.14 135.416 162.732C135.213 163.319 134.92 163.836 134.536 164.284C134.157 164.732 133.699 165.081 133.16 165.332C132.621 165.583 132.016 165.708 131.344 165.708ZM141.592 165.708C140.989 165.708 140.408 165.615 139.848 165.428C139.288 165.236 138.797 164.964 138.376 164.612C137.96 164.26 137.664 163.841 137.488 163.356L138.743 162.884C138.85 163.183 139.048 163.444 139.336 163.668C139.629 163.887 139.973 164.057 140.368 164.18C140.762 164.303 141.17 164.364 141.592 164.364C142.072 164.364 142.517 164.287 142.928 164.132C143.344 163.972 143.68 163.751 143.936 163.468C144.192 163.185 144.32 162.855 144.32 162.476C144.32 162.087 144.186 161.769 143.92 161.524C143.653 161.273 143.312 161.076 142.896 160.932C142.48 160.783 142.045 160.668 141.592 160.588C140.818 160.46 140.125 160.279 139.512 160.044C138.904 159.804 138.421 159.471 138.064 159.044C137.712 158.617 137.536 158.055 137.536 157.356C137.536 156.705 137.722 156.137 138.096 155.652C138.474 155.167 138.973 154.791 139.592 154.524C140.21 154.257 140.877 154.124 141.592 154.124C142.184 154.124 142.757 154.217 143.312 154.404C143.872 154.585 144.365 154.852 144.792 155.204C145.218 155.556 145.525 155.985 145.712 156.492L144.44 156.956C144.333 156.652 144.133 156.391 143.84 156.172C143.552 155.948 143.21 155.777 142.816 155.66C142.426 155.537 142.018 155.476 141.592 155.476C141.117 155.471 140.674 155.548 140.264 155.708C139.853 155.868 139.52 156.089 139.264 156.372C139.008 156.655 138.88 156.983 138.88 157.356C138.88 157.804 138.997 158.148 139.232 158.388C139.472 158.623 139.797 158.799 140.208 158.916C140.618 159.033 141.08 159.137 141.592 159.228C142.317 159.351 142.989 159.545 143.608 159.812C144.226 160.073 144.722 160.423 145.095 160.86C145.474 161.297 145.664 161.836 145.664 162.476C145.664 163.127 145.474 163.695 145.095 164.18C144.722 164.665 144.226 165.041 143.608 165.308C142.989 165.575 142.317 165.708 141.592 165.708ZM147.569 165.5V154.3H151.273C152.047 154.3 152.772 154.447 153.449 154.74C154.127 155.028 154.721 155.431 155.233 155.948C155.745 156.46 156.145 157.055 156.433 157.732C156.727 158.404 156.873 159.127 156.873 159.9C156.873 160.673 156.727 161.399 156.433 162.076C156.145 162.748 155.745 163.343 155.233 163.86C154.721 164.372 154.127 164.775 153.449 165.068C152.772 165.356 152.047 165.5 151.273 165.5H147.569ZM148.913 164.156H151.273C151.86 164.156 152.409 164.047 152.921 163.828C153.439 163.604 153.892 163.297 154.281 162.908C154.671 162.519 154.975 162.068 155.193 161.556C155.417 161.039 155.529 160.487 155.529 159.9C155.529 159.313 155.417 158.764 155.193 158.252C154.975 157.735 154.668 157.281 154.273 156.892C153.884 156.503 153.433 156.199 152.921 155.98C152.409 155.756 151.86 155.644 151.273 155.644H148.913V164.156Z" fill="#0A1519"/>
<path fill-rule="evenodd" clip-rule="evenodd" d="M168.471 162.471C168.211 162.731 167.789 162.731 167.529 162.471L163.757 158.7C163.497 158.439 163.497 158.017 163.757 157.757C164.018 157.497 164.44 157.497 164.7 157.757L168 161.057L171.3 157.757C171.56 157.497 171.982 157.497 172.243 157.757C172.503 158.017 172.503 158.439 172.243 158.7L168.471 162.471Z" fill="#121212" fill-opacity="0.8"/>
<path d="M379.744 155.476C379.269 155.471 378.827 155.548 378.416 155.708C378.005 155.868 377.672 156.089 377.416 156.372C377.16 156.655 377.032 156.983 377.032 157.356C377.032 157.804 377.149 158.148 377.384 158.388C377.624 158.623 377.949 158.799 378.36 158.916C378.771 159.033 379.232 159.137 379.744 159.228C380.469 159.351 381.141 159.545 381.76 159.812C382.379 160.073 382.875 160.423 383.248 160.86C383.627 161.297 383.816 161.836 383.816 162.476C383.816 163.073 383.653 163.601 383.328 164.06C383.003 164.519 382.571 164.889 382.032 165.172C381.493 165.449 380.899 165.617 380.248 165.676V167.292H379.264V165.676C378.715 165.633 378.195 165.513 377.704 165.316C377.213 165.119 376.787 164.855 376.424 164.524C376.061 164.188 375.8 163.799 375.64 163.356L376.896 162.884C377.003 163.183 377.2 163.444 377.488 163.668C377.781 163.887 378.125 164.057 378.52 164.18C378.915 164.303 379.323 164.364 379.744 164.364C380.224 164.364 380.669 164.287 381.08 164.132C381.496 163.972 381.832 163.751 382.088 163.468C382.344 163.185 382.472 162.855 382.472 162.476C382.472 162.087 382.339 161.769 382.072 161.524C381.805 161.273 381.464 161.076 381.048 160.932C380.632 160.783 380.197 160.668 379.744 160.588C378.971 160.46 378.277 160.279 377.664 160.044C377.056 159.804 376.573 159.471 376.216 159.044C375.864 158.617 375.688 158.055 375.688 157.356C375.688 156.759 375.851 156.231 376.176 155.772C376.501 155.308 376.933 154.937 377.472 154.66C378.016 154.383 378.613 154.215 379.264 154.156V152.508H380.248V154.156C380.776 154.204 381.283 154.327 381.768 154.524C382.253 154.716 382.68 154.977 383.048 155.308C383.421 155.639 383.693 156.033 383.864 156.492L382.592 156.956C382.485 156.652 382.285 156.391 381.992 156.172C381.704 155.948 381.363 155.777 380.968 155.66C380.579 155.537 380.171 155.476 379.744 155.476ZM386.396 165.5V155.644H385.14L385.516 154.3H387.74V165.5H386.396ZM393.808 165.708C393.141 165.708 392.544 165.559 392.016 165.26C391.488 164.956 391.034 164.537 390.656 164.004C390.277 163.471 389.989 162.855 389.792 162.156C389.594 161.452 389.496 160.7 389.496 159.9C389.496 159.1 389.594 158.348 389.792 157.644C389.989 156.94 390.277 156.324 390.656 155.796C391.034 155.263 391.488 154.847 392.016 154.548C392.544 154.244 393.141 154.092 393.808 154.092C394.469 154.092 395.064 154.244 395.592 154.548C396.125 154.847 396.576 155.263 396.944 155.796C397.317 156.324 397.602 156.94 397.8 157.644C398.002 158.348 398.104 159.1 398.104 159.9C398.104 160.7 398.002 161.452 397.8 162.156C397.602 162.855 397.317 163.471 396.944 164.004C396.576 164.537 396.125 164.956 395.592 165.26C395.064 165.559 394.469 165.708 393.808 165.708ZM393.808 164.364C394.474 164.364 395.032 164.159 395.48 163.748C395.933 163.332 396.272 162.785 396.496 162.108C396.72 161.431 396.832 160.695 396.832 159.9C396.832 159.063 396.714 158.308 396.48 157.636C396.25 156.959 395.909 156.423 395.456 156.028C395.008 155.633 394.458 155.436 393.808 155.436C393.296 155.436 392.848 155.556 392.464 155.796C392.085 156.036 391.77 156.364 391.52 156.78C391.269 157.196 391.08 157.673 390.952 158.212C390.829 158.745 390.768 159.308 390.768 159.9C390.768 160.695 390.882 161.433 391.112 162.116C391.341 162.793 391.68 163.337 392.128 163.748C392.581 164.159 393.141 164.364 393.808 164.364ZM399.218 166.396L399.714 163.692H401.058L400.114 166.396H399.218ZM406.296 165.708C405.602 165.708 404.973 165.54 404.408 165.204C403.842 164.868 403.394 164.42 403.064 163.86C402.738 163.295 402.576 162.673 402.576 161.996H403.92C403.92 162.428 404.026 162.825 404.24 163.188C404.453 163.545 404.738 163.831 405.096 164.044C405.458 164.257 405.858 164.364 406.296 164.364C406.728 164.364 407.122 164.257 407.48 164.044C407.837 163.831 408.122 163.545 408.336 163.188C408.549 162.825 408.656 162.428 408.656 161.996C408.656 161.564 408.554 161.167 408.352 160.804C408.154 160.441 407.864 160.153 407.48 159.94C407.096 159.721 406.629 159.612 406.08 159.612H403.32L404.408 154.3H409.72V155.644H405.496L404.976 158.268L406.136 158.276C406.898 158.292 407.568 158.463 408.144 158.788C408.725 159.108 409.178 159.545 409.504 160.1C409.834 160.649 410 161.281 410 161.996C410 162.503 409.904 162.983 409.712 163.436C409.52 163.884 409.253 164.279 408.912 164.62C408.57 164.961 408.176 165.228 407.728 165.42C407.285 165.612 406.808 165.708 406.296 165.708ZM415.201 165.708C414.534 165.708 413.926 165.556 413.377 165.252C412.833 164.948 412.398 164.543 412.073 164.036C411.753 163.524 411.593 162.959 411.593 162.34C411.593 161.764 411.745 161.236 412.049 160.756C412.353 160.271 412.75 159.887 413.241 159.604C412.841 159.348 412.51 159.009 412.249 158.588C411.993 158.161 411.865 157.7 411.865 157.204C411.865 156.628 412.014 156.105 412.313 155.636C412.617 155.167 413.02 154.793 413.521 154.516C414.028 154.233 414.588 154.092 415.201 154.092C415.814 154.092 416.372 154.233 416.873 154.516C417.38 154.793 417.782 155.167 418.081 155.636C418.385 156.105 418.537 156.628 418.537 157.204C418.537 157.7 418.409 158.161 418.153 158.588C417.897 159.009 417.564 159.348 417.153 159.604C417.66 159.887 418.062 160.271 418.361 160.756C418.665 161.236 418.817 161.764 418.817 162.34C418.817 162.953 418.654 163.516 418.329 164.028C418.004 164.54 417.566 164.948 417.017 165.252C416.473 165.556 415.868 165.708 415.201 165.708ZM415.201 164.364C415.606 164.364 415.972 164.273 416.297 164.092C416.628 163.911 416.892 163.668 417.089 163.364C417.286 163.055 417.385 162.713 417.385 162.34C417.385 161.961 417.286 161.62 417.089 161.316C416.892 161.012 416.628 160.769 416.297 160.588C415.972 160.407 415.606 160.316 415.201 160.316C414.801 160.316 414.436 160.407 414.105 160.588C413.774 160.769 413.51 161.012 413.313 161.316C413.116 161.62 413.017 161.961 413.017 162.34C413.017 162.713 413.116 163.055 413.313 163.364C413.51 163.668 413.774 163.911 414.105 164.092C414.436 164.273 414.801 164.364 415.201 164.364ZM415.201 158.972C415.553 158.972 415.873 158.892 416.161 158.732C416.449 158.572 416.678 158.359 416.849 158.092C417.025 157.825 417.113 157.529 417.113 157.204C417.113 156.873 417.025 156.577 416.849 156.316C416.678 156.049 416.449 155.836 416.161 155.676C415.873 155.516 415.553 155.436 415.201 155.436C414.849 155.436 414.529 155.516 414.241 155.676C413.953 155.836 413.721 156.049 413.545 156.316C413.374 156.577 413.289 156.873 413.289 157.204C413.289 157.529 413.374 157.825 413.545 158.092C413.721 158.359 413.953 158.572 414.241 158.732C414.529 158.892 414.849 158.972 415.201 158.972ZM422.133 165.5L424.525 161.372C423.965 161.537 423.413 161.567 422.869 161.46C422.33 161.348 421.84 161.129 421.397 160.804C420.954 160.473 420.6 160.057 420.333 159.556C420.066 159.055 419.933 158.497 419.933 157.884C419.933 157.361 420.032 156.871 420.229 156.412C420.426 155.953 420.698 155.551 421.045 155.204C421.392 154.857 421.792 154.585 422.245 154.388C422.704 154.191 423.194 154.092 423.717 154.092C424.41 154.092 425.04 154.263 425.605 154.604C426.176 154.945 426.632 155.404 426.973 155.98C427.32 156.551 427.493 157.185 427.493 157.884C427.493 158.263 427.445 158.599 427.349 158.892C427.258 159.18 427.12 159.495 426.933 159.836L423.685 165.5H422.133ZM423.701 160.324C424.176 160.324 424.597 160.212 424.965 159.988C425.338 159.759 425.629 159.457 425.837 159.084C426.05 158.711 426.157 158.311 426.157 157.884C426.157 157.42 426.045 157.004 425.821 156.636C425.597 156.263 425.298 155.969 424.925 155.756C424.552 155.537 424.149 155.428 423.717 155.428C423.242 155.428 422.818 155.543 422.445 155.772C422.077 156.001 421.786 156.305 421.573 156.684C421.365 157.057 421.261 157.457 421.261 157.884C421.261 158.332 421.368 158.743 421.581 159.116C421.8 159.484 422.093 159.777 422.461 159.996C422.834 160.215 423.248 160.324 423.701 160.324ZM429.337 165.708C429.134 165.708 428.961 165.636 428.817 165.492C428.678 165.348 428.609 165.172 428.609 164.964C428.609 164.767 428.678 164.596 428.817 164.452C428.961 164.308 429.134 164.236 429.337 164.236C429.545 164.236 429.721 164.308 429.865 164.452C430.009 164.596 430.081 164.767 430.081 164.964C430.081 165.172 430.009 165.348 429.865 165.492C429.721 165.636 429.545 165.708 429.337 165.708ZM432.111 165.5L437.791 155.644H431.367V154.3H439.343V155.644L433.647 165.5H432.111ZM443.904 165.708C443.238 165.708 442.63 165.556 442.08 165.252C441.536 164.948 441.102 164.543 440.776 164.036C440.456 163.524 440.296 162.959 440.296 162.34C440.296 161.764 440.448 161.236 440.752 160.756C441.056 160.271 441.454 159.887 441.944 159.604C441.544 159.348 441.214 159.009 440.952 158.588C440.696 158.161 440.568 157.7 440.568 157.204C440.568 156.628 440.718 156.105 441.016 155.636C441.32 155.167 441.723 154.793 442.224 154.516C442.731 154.233 443.291 154.092 443.904 154.092C444.518 154.092 445.075 154.233 445.576 154.516C446.083 154.793 446.486 155.167 446.784 155.636C447.088 156.105 447.24 156.628 447.24 157.204C447.24 157.7 447.112 158.161 446.856 158.588C446.6 159.009 446.267 159.348 445.856 159.604C446.363 159.887 446.766 160.271 447.064 160.756C447.368 161.236 447.52 161.764 447.52 162.34C447.52 162.953 447.358 163.516 447.032 164.028C446.707 164.54 446.27 164.948 445.72 165.252C445.176 165.556 444.571 165.708 443.904 165.708ZM443.904 164.364C444.31 164.364 444.675 164.273 445 164.092C445.331 163.911 445.595 163.668 445.792 163.364C445.99 163.055 446.088 162.713 446.088 162.34C446.088 161.961 445.99 161.62 445.792 161.316C445.595 161.012 445.331 160.769 445 160.588C444.675 160.407 444.31 160.316 443.904 160.316C443.504 160.316 443.139 160.407 442.808 160.588C442.478 160.769 442.214 161.012 442.016 161.316C441.819 161.62 441.72 161.961 441.72 162.34C441.72 162.713 441.819 163.055 442.016 163.364C442.214 163.668 442.478 163.911 442.808 164.092C443.139 164.273 443.504 164.364 443.904 164.364ZM443.904 158.972C444.256 158.972 444.576 158.892 444.864 158.732C445.152 158.572 445.382 158.359 445.552 158.092C445.728 157.825 445.816 157.529 445.816 157.204C445.816 156.873 445.728 156.577 445.552 156.316C445.382 156.049 445.152 155.836 444.864 155.676C444.576 155.516 444.256 155.436 443.904 155.436C443.552 155.436 443.232 155.516 442.944 155.676C442.656 155.836 442.424 156.049 442.248 156.316C442.078 156.577 441.992 156.873 441.992 157.204C441.992 157.529 442.078 157.825 442.248 158.092C442.424 158.359 442.656 158.572 442.944 158.732C443.232 158.892 443.552 158.972 443.904 158.972Z" fill="#121212" fill-opacity="0.8"/>
<rect x="68" y="207" width="403" height="74" rx="20" fill="#EFF2F1"/>
<rect x="78" y="217" width="383" height="54" rx="16" fill="white"/>
<g clip-path="url(#clip1_1_3633)">
<path fill-rule="evenodd" clip-rule="evenodd" d="M103.939 230C111.671 230 117.939 236.268 117.939 244C117.939 251.732 111.671 258 103.939 258C96.2068 258 89.9388 251.732 89.9388 244C89.9388 236.268 96.2068 230 103.939 230Z" fill="#003399"/>
<path fill-rule="evenodd" clip-rule="evenodd" d="M103.973 233.347L103.595 234.392L102.529 234.426L103.419 235.081L103.055 236.133L103.966 235.479L103.973 235.465L103.979 235.479L104.89 236.133L104.526 235.081L105.416 234.426L104.35 234.392L103.973 233.347ZM99.3172 234.601L98.9394 235.647L97.8733 235.681L98.7639 236.335L98.3996 237.388L99.3104 236.734L99.3172 236.72L99.3239 236.734L100.235 237.388L99.8704 236.335L100.761 235.681L99.695 235.647L99.3172 234.601ZM108.547 234.601L108.169 235.647L107.103 235.681L107.994 236.335L107.629 237.388L108.54 236.734L108.547 236.72L108.554 236.734L109.465 237.388L109.1 236.335L109.991 235.681L108.925 235.647L108.547 234.601ZM95.9437 237.935L95.5659 238.98L94.4998 239.014L95.3904 239.668L95.0261 240.721L95.9369 240.067L95.9437 240.053L95.9504 240.067L96.8613 240.721L96.4969 239.668L97.3875 239.014L96.3215 238.98L95.9437 237.935ZM111.961 237.935L111.583 238.98L110.517 239.014L111.408 239.668L111.043 240.721L111.954 240.067L111.961 240.053L111.968 240.067L112.879 240.721L112.514 239.668L113.405 239.014L112.339 238.98L111.961 237.935ZM94.709 242.57L94.3312 243.615L93.2651 243.649L94.1557 244.304L93.7914 245.356L94.7022 244.702L94.709 244.688L94.7157 244.702L95.6266 245.356L95.2622 244.304L96.1528 243.649L95.0868 243.615L94.709 242.57ZM113.182 242.57L112.804 243.615L111.738 243.649L112.629 244.304L112.265 245.356L113.176 244.702L113.182 244.688L113.189 244.702L114.1 245.356L113.736 244.304L114.626 243.649L113.56 243.615L113.182 242.57ZM95.9437 247.164L95.5659 248.21L94.4998 248.244L95.3904 248.898L95.0261 249.951L95.9369 249.296L95.9437 249.283L95.9504 249.296L96.8613 249.951L96.4969 248.898L97.3875 248.244L96.3215 248.21L95.9437 247.164ZM111.961 247.164L111.583 248.21L110.517 248.244L111.408 248.898L111.043 249.951L111.954 249.296L111.961 249.283L111.968 249.296L112.879 249.951L112.514 248.898L113.405 248.244L112.339 248.21L111.961 247.164ZM99.3172 250.531L98.9394 251.577L97.8733 251.611L98.7639 252.265L98.3996 253.318L99.3104 252.663L99.3172 252.65L99.3239 252.663L100.235 253.318L99.8704 252.265L100.761 251.611L99.695 251.577L99.3172 250.531ZM108.547 250.531L108.169 251.577L107.103 251.611L107.994 252.265L107.629 253.318L108.54 252.663L108.547 252.65L108.554 252.663L109.465 253.318L109.1 252.265L109.991 251.611L108.925 251.577L108.547 250.531ZM103.979 251.86L103.602 252.906L102.535 252.94L103.426 253.594L103.062 254.647L103.973 253.992L103.979 253.979L103.986 253.992L104.897 254.647L104.533 253.594L105.423 252.94L104.357 252.906L103.979 251.86Z" fill="#FFED00"/>
</g>
<path d="M126.96 249.5V238.3H133.832V239.644H128.304V242.828H132.832V244.172H128.304V248.156H133.832V249.5H126.96ZM139.969 249.708C139.073 249.708 138.294 249.489 137.633 249.052C136.977 248.615 136.47 248.028 136.113 247.292C135.761 246.551 135.585 245.729 135.585 244.828V238.3H136.929V244.828C136.929 245.468 137.046 246.057 137.281 246.596C137.521 247.135 137.865 247.564 138.313 247.884C138.766 248.204 139.318 248.364 139.969 248.364C140.63 248.364 141.185 248.204 141.633 247.884C142.081 247.559 142.42 247.129 142.649 246.596C142.884 246.057 143.001 245.468 143.001 244.828V238.3H144.345V244.828C144.345 245.505 144.244 246.14 144.041 246.732C143.838 247.319 143.545 247.836 143.161 248.284C142.782 248.732 142.324 249.081 141.785 249.332C141.246 249.583 140.641 249.708 139.969 249.708ZM146.163 249.5V238.3H150.099C150.696 238.3 151.235 238.447 151.715 238.74C152.2 239.033 152.584 239.431 152.867 239.932C153.155 240.428 153.299 240.983 153.299 241.596C153.299 242.135 153.192 242.625 152.979 243.068C152.766 243.511 152.472 243.881 152.099 244.18C151.731 244.473 151.312 244.676 150.843 244.788L153.563 249.5H152.011L149.339 244.9H147.507V249.5H146.163ZM147.507 243.556H149.963C150.326 243.556 150.659 243.468 150.963 243.292C151.267 243.111 151.507 242.868 151.683 242.564C151.864 242.255 151.955 241.908 151.955 241.524C151.955 241.135 151.864 240.788 151.683 240.484C151.507 240.175 151.267 239.932 150.963 239.756C150.659 239.575 150.326 239.484 149.963 239.484H147.507V243.556Z" fill="#0A1519"/>
<path fill-rule="evenodd" clip-rule="evenodd" d="M165.471 246.471C165.211 246.731 164.789 246.731 164.529 246.471L160.757 242.7C160.497 242.439 160.497 242.017 160.757 241.757C161.018 241.497 161.44 241.497 161.7 241.757L165 245.057L168.3 241.757C168.56 241.497 168.982 241.497 169.243 241.757C169.503 242.017 169.503 242.439 169.243 242.7L165.471 246.471Z" fill="#121212" fill-opacity="0.8"/>
<path d="M379.744 239.476C379.269 239.471 378.827 239.548 378.416 239.708C378.005 239.868 377.672 240.089 377.416 240.372C377.16 240.655 377.032 240.983 377.032 241.356C377.032 241.804 377.149 242.148 377.384 242.388C377.624 242.623 377.949 242.799 378.36 242.916C378.771 243.033 379.232 243.137 379.744 243.228C380.469 243.351 381.141 243.545 381.76 243.812C382.379 244.073 382.875 244.423 383.248 244.86C383.627 245.297 383.816 245.836 383.816 246.476C383.816 247.073 383.653 247.601 383.328 248.06C383.003 248.519 382.571 248.889 382.032 249.172C381.493 249.449 380.899 249.617 380.248 249.676V251.292H379.264V249.676C378.715 249.633 378.195 249.513 377.704 249.316C377.213 249.119 376.787 248.855 376.424 248.524C376.061 248.188 375.8 247.799 375.64 247.356L376.896 246.884C377.003 247.183 377.2 247.444 377.488 247.668C377.781 247.887 378.125 248.057 378.52 248.18C378.915 248.303 379.323 248.364 379.744 248.364C380.224 248.364 380.669 248.287 381.08 248.132C381.496 247.972 381.832 247.751 382.088 247.468C382.344 247.185 382.472 246.855 382.472 246.476C382.472 246.087 382.339 245.769 382.072 245.524C381.805 245.273 381.464 245.076 381.048 244.932C380.632 244.783 380.197 244.668 379.744 244.588C378.971 244.46 378.277 244.279 377.664 244.044C377.056 243.804 376.573 243.471 376.216 243.044C375.864 242.617 375.688 242.055 375.688 241.356C375.688 240.759 375.851 240.231 376.176 239.772C376.501 239.308 376.933 238.937 377.472 238.66C378.016 238.383 378.613 238.215 379.264 238.156V236.508H380.248V238.156C380.776 238.204 381.283 238.327 381.768 238.524C382.253 238.716 382.68 238.977 383.048 239.308C383.421 239.639 383.693 240.033 383.864 240.492L382.592 240.956C382.485 240.652 382.285 240.391 381.992 240.172C381.704 239.948 381.363 239.777 380.968 239.66C380.579 239.537 380.171 239.476 379.744 239.476ZM386.396 249.5V239.644H385.14L385.516 238.3H387.74V249.5H386.396ZM393.808 249.708C393.141 249.708 392.544 249.559 392.016 249.26C391.488 248.956 391.034 248.537 390.656 248.004C390.277 247.471 389.989 246.855 389.792 246.156C389.594 245.452 389.496 244.7 389.496 243.9C389.496 243.1 389.594 242.348 389.792 241.644C389.989 240.94 390.277 240.324 390.656 239.796C391.034 239.263 391.488 238.847 392.016 238.548C392.544 238.244 393.141 238.092 393.808 238.092C394.469 238.092 395.064 238.244 395.592 238.548C396.125 238.847 396.576 239.263 396.944 239.796C397.317 240.324 397.602 240.94 397.8 241.644C398.002 242.348 398.104 243.1 398.104 243.9C398.104 244.7 398.002 245.452 397.8 246.156C397.602 246.855 397.317 247.471 396.944 248.004C396.576 248.537 396.125 248.956 395.592 249.26C395.064 249.559 394.469 249.708 393.808 249.708ZM393.808 248.364C394.474 248.364 395.032 248.159 395.48 247.748C395.933 247.332 396.272 246.785 396.496 246.108C396.72 245.431 396.832 244.695 396.832 243.9C396.832 243.063 396.714 242.308 396.48 241.636C396.25 240.959 395.909 240.423 395.456 240.028C395.008 239.633 394.458 239.436 393.808 239.436C393.296 239.436 392.848 239.556 392.464 239.796C392.085 240.036 391.77 240.364 391.52 240.78C391.269 241.196 391.08 241.673 390.952 242.212C390.829 242.745 390.768 243.308 390.768 243.9C390.768 244.695 390.882 245.433 391.112 246.116C391.341 246.793 391.68 247.337 392.128 247.748C392.581 248.159 393.141 248.364 393.808 248.364ZM399.218 250.396L399.714 247.692H401.058L400.114 250.396H399.218ZM406.296 249.708C405.602 249.708 404.973 249.54 404.408 249.204C403.842 248.868 403.394 248.42 403.064 247.86C402.738 247.295 402.576 246.673 402.576 245.996H403.92C403.92 246.428 404.026 246.825 404.24 247.188C404.453 247.545 404.738 247.831 405.096 248.044C405.458 248.257 405.858 248.364 406.296 248.364C406.728 248.364 407.122 248.257 407.48 248.044C407.837 247.831 408.122 247.545 408.336 247.188C408.549 246.825 408.656 246.428 408.656 245.996C408.656 245.564 408.554 245.167 408.352 244.804C408.154 244.441 407.864 244.153 407.48 243.94C407.096 243.721 406.629 243.612 406.08 243.612H403.32L404.408 238.3H409.72V239.644H405.496L404.976 242.268L406.136 242.276C406.898 242.292 407.568 242.463 408.144 242.788C408.725 243.108 409.178 243.545 409.504 244.1C409.834 244.649 410 245.281 410 245.996C410 246.503 409.904 246.983 409.712 247.436C409.52 247.884 409.253 248.279 408.912 248.62C408.57 248.961 408.176 249.228 407.728 249.42C407.285 249.612 406.808 249.708 406.296 249.708ZM415.201 249.708C414.534 249.708 413.926 249.556 413.377 249.252C412.833 248.948 412.398 248.543 412.073 248.036C411.753 247.524 411.593 246.959 411.593 246.34C411.593 245.764 411.745 245.236 412.049 244.756C412.353 244.271 412.75 243.887 413.241 243.604C412.841 243.348 412.51 243.009 412.249 242.588C411.993 242.161 411.865 241.7 411.865 241.204C411.865 240.628 412.014 240.105 412.313 239.636C412.617 239.167 413.02 238.793 413.521 238.516C414.028 238.233 414.588 238.092 415.201 238.092C415.814 238.092 416.372 238.233 416.873 238.516C417.38 238.793 417.782 239.167 418.081 239.636C418.385 240.105 418.537 240.628 418.537 241.204C418.537 241.7 418.409 242.161 418.153 242.588C417.897 243.009 417.564 243.348 417.153 243.604C417.66 243.887 418.062 244.271 418.361 244.756C418.665 245.236 418.817 245.764 418.817 246.34C418.817 246.953 418.654 247.516 418.329 248.028C418.004 248.54 417.566 248.948 417.017 249.252C416.473 249.556 415.868 249.708 415.201 249.708ZM415.201 248.364C415.606 248.364 415.972 248.273 416.297 248.092C416.628 247.911 416.892 247.668 417.089 247.364C417.286 247.055 417.385 246.713 417.385 246.34C417.385 245.961 417.286 245.62 417.089 245.316C416.892 245.012 416.628 244.769 416.297 244.588C415.972 244.407 415.606 244.316 415.201 244.316C414.801 244.316 414.436 244.407 414.105 244.588C413.774 244.769 413.51 245.012 413.313 245.316C413.116 245.62 413.017 245.961 413.017 246.34C413.017 246.713 413.116 247.055 413.313 247.364C413.51 247.668 413.774 247.911 414.105 248.092C414.436 248.273 414.801 248.364 415.201 248.364ZM415.201 242.972C415.553 242.972 415.873 242.892 416.161 242.732C416.449 242.572 416.678 242.359 416.849 242.092C417.025 241.825 417.113 241.529 417.113 241.204C417.113 240.873 417.025 240.577 416.849 240.316C416.678 240.049 416.449 239.836 416.161 239.676C415.873 239.516 415.553 239.436 415.201 239.436C414.849 239.436 414.529 239.516 414.241 239.676C413.953 239.836 413.721 240.049 413.545 240.316C413.374 240.577 413.289 240.873 413.289 241.204C413.289 241.529 413.374 241.825 413.545 242.092C413.721 242.359 413.953 242.572 414.241 242.732C414.529 242.892 414.849 242.972 415.201 242.972ZM422.133 249.5L424.525 245.372C423.965 245.537 423.413 245.567 422.869 245.46C422.33 245.348 421.84 245.129 421.397 244.804C420.954 244.473 420.6 244.057 420.333 243.556C420.066 243.055 419.933 242.497 419.933 241.884C419.933 241.361 420.032 240.871 420.229 240.412C420.426 239.953 420.698 239.551 421.045 239.204C421.392 238.857 421.792 238.585 422.245 238.388C422.704 238.191 423.194 238.092 423.717 238.092C424.41 238.092 425.04 238.263 425.605 238.604C426.176 238.945 426.632 239.404 426.973 239.98C427.32 240.551 427.493 241.185 427.493 241.884C427.493 242.263 427.445 242.599 427.349 242.892C427.258 243.18 427.12 243.495 426.933 243.836L423.685 249.5H422.133ZM423.701 244.324C424.176 244.324 424.597 244.212 424.965 243.988C425.338 243.759 425.629 243.457 425.837 243.084C426.05 242.711 426.157 242.311 426.157 241.884C426.157 241.42 426.045 241.004 425.821 240.636C425.597 240.263 425.298 239.969 424.925 239.756C424.552 239.537 424.149 239.428 423.717 239.428C423.242 239.428 422.818 239.543 422.445 239.772C422.077 240.001 421.786 240.305 421.573 240.684C421.365 241.057 421.261 241.457 421.261 241.884C421.261 242.332 421.368 242.743 421.581 243.116C421.8 243.484 422.093 243.777 422.461 243.996C422.834 244.215 423.248 244.324 423.701 244.324ZM429.337 249.708C429.134 249.708 428.961 249.636 428.817 249.492C428.678 249.348 428.609 249.172 428.609 248.964C428.609 248.767 428.678 248.596 428.817 248.452C428.961 248.308 429.134 248.236 429.337 248.236C429.545 248.236 429.721 248.308 429.865 248.452C430.009 248.596 430.081 248.767 430.081 248.964C430.081 249.172 430.009 249.348 429.865 249.492C429.721 249.636 429.545 249.708 429.337 249.708ZM432.111 249.5L437.791 239.644H431.367V238.3H439.343V239.644L433.647 249.5H432.111ZM443.904 249.708C443.238 249.708 442.63 249.556 442.08 249.252C441.536 248.948 441.102 248.543 440.776 248.036C440.456 247.524 440.296 246.959 440.296 246.34C440.296 245.764 440.448 245.236 440.752 244.756C441.056 244.271 441.454 243.887 441.944 243.604C441.544 243.348 441.214 243.009 440.952 242.588C440.696 242.161 440.568 241.7 440.568 241.204C440.568 240.628 440.718 240.105 441.016 239.636C441.32 239.167 441.723 238.793 442.224 238.516C442.731 238.233 443.291 238.092 443.904 238.092C444.518 238.092 445.075 238.233 445.576 238.516C446.083 238.793 446.486 239.167 446.784 239.636C447.088 240.105 447.24 240.628 447.24 241.204C447.24 241.7 447.112 242.161 446.856 242.588C446.6 243.009 446.267 243.348 445.856 243.604C446.363 243.887 446.766 244.271 447.064 244.756C447.368 245.236 447.52 245.764 447.52 246.34C447.52 246.953 447.358 247.516 447.032 248.028C446.707 248.54 446.27 248.948 445.72 249.252C445.176 249.556 444.571 249.708 443.904 249.708ZM443.904 248.364C444.31 248.364 444.675 248.273 445 248.092C445.331 247.911 445.595 247.668 445.792 247.364C445.99 247.055 446.088 246.713 446.088 246.34C446.088 245.961 445.99 245.62 445.792 245.316C445.595 245.012 445.331 244.769 445 244.588C444.675 244.407 444.31 244.316 443.904 244.316C443.504 244.316 443.139 244.407 442.808 244.588C442.478 244.769 442.214 245.012 442.016 245.316C441.819 245.62 441.72 245.961 441.72 246.34C441.72 246.713 441.819 247.055 442.016 247.364C442.214 247.668 442.478 247.911 442.808 248.092C443.139 248.273 443.504 248.364 443.904 248.364ZM443.904 242.972C444.256 242.972 444.576 242.892 444.864 242.732C445.152 242.572 445.382 242.359 445.552 242.092C445.728 241.825 445.816 241.529 445.816 241.204C445.816 240.873 445.728 240.577 445.552 240.316C445.382 240.049 445.152 239.836 444.864 239.676C444.576 239.516 444.256 239.436 443.904 239.436C443.552 239.436 443.232 239.516 442.944 239.676C442.656 239.836 442.424 240.049 442.248 240.316C442.078 240.577 441.992 240.873 441.992 241.204C441.992 241.529 442.078 241.825 442.248 242.092C442.424 242.359 442.656 242.572 442.944 242.732C443.232 242.892 443.552 242.972 443.904 242.972Z" fill="#121212" fill-opacity="0.8"/>
<rect x="250" y="221" width="38" height="38" rx="19" transform="rotate(-90 250 221)" fill="#D56F3E"/>
<rect x="250" y="221" width="38" height="38" rx="19" transform="rotate(-90 250 221)" stroke="white" stroke-width="4"/>
<path fill-rule="evenodd" clip-rule="evenodd" d="M270.639 195.98C270.834 195.784 271.151 195.784 271.346 195.979L274.693 199.319C274.888 199.514 274.889 199.831 274.694 200.026C274.499 200.222 274.182 200.222 273.987 200.027L270.64 196.687C270.445 196.492 270.444 196.175 270.639 195.98Z" fill="white"/>
<path fill-rule="evenodd" clip-rule="evenodd" d="M270.993 208.167C270.717 208.167 270.493 207.943 270.493 207.667L270.493 196.334C270.493 196.058 270.717 195.834 270.993 195.834C271.269 195.834 271.493 196.058 271.493 196.334L271.493 207.667C271.493 207.943 271.269 208.167 270.993 208.167Z" fill="white"/>
<path fill-rule="evenodd" clip-rule="evenodd" d="M263.306 203.974C263.501 203.778 263.818 203.778 264.013 203.973L267.36 207.313C267.555 207.508 267.556 207.825 267.361 208.02C267.166 208.216 266.849 208.216 266.654 208.021L263.307 204.681C263.111 204.486 263.111 204.169 263.306 203.974Z" fill="white"/>
<path fill-rule="evenodd" clip-rule="evenodd" d="M267.007 208.167C266.731 208.167 266.507 207.943 266.507 207.667L266.507 196.334C266.507 196.058 266.731 195.834 267.007 195.834C267.283 195.834 267.507 196.058 267.507 196.334L267.507 207.667C267.507 207.943 267.283 208.167 267.007 208.167Z" fill="white"/>
<rect x="68" y="297" width="403" height="48" rx="24" fill="#0F2028"/>
<path d="M239.144 326.708C238.387 326.708 237.675 326.559 237.008 326.26C236.341 325.956 235.755 325.54 235.248 325.012C234.747 324.479 234.352 323.86 234.064 323.156C233.781 322.452 233.64 321.7 233.64 320.9C233.64 320.1 233.781 319.348 234.064 318.644C234.352 317.94 234.747 317.324 235.248 316.796C235.755 316.263 236.341 315.847 237.008 315.548C237.675 315.244 238.387 315.092 239.144 315.092C240.051 315.092 240.885 315.303 241.648 315.724C242.411 316.145 243.043 316.705 243.544 317.404L242.352 318.044C241.979 317.553 241.507 317.164 240.936 316.876C240.371 316.583 239.773 316.436 239.144 316.436C238.563 316.436 238.019 316.553 237.512 316.788C237.011 317.023 236.571 317.345 236.192 317.756C235.813 318.167 235.517 318.641 235.304 319.18C235.091 319.719 234.984 320.292 234.984 320.9C234.984 321.513 235.091 322.089 235.304 322.628C235.523 323.167 235.821 323.641 236.2 324.052C236.584 324.463 237.027 324.785 237.528 325.02C238.035 325.249 238.573 325.364 239.144 325.364C239.795 325.364 240.397 325.217 240.952 324.924C241.512 324.625 241.979 324.236 242.352 323.756L243.544 324.404C243.043 325.103 242.411 325.663 241.648 326.084C240.885 326.5 240.051 326.708 239.144 326.708ZM250.316 326.708C249.559 326.708 248.847 326.559 248.18 326.26C247.514 325.956 246.927 325.537 246.42 325.004C245.914 324.471 245.516 323.855 245.228 323.156C244.94 322.452 244.796 321.7 244.796 320.9C244.796 320.1 244.94 319.351 245.228 318.652C245.516 317.948 245.914 317.329 246.42 316.796C246.927 316.263 247.514 315.847 248.18 315.548C248.847 315.244 249.559 315.092 250.316 315.092C251.079 315.092 251.794 315.244 252.46 315.548C253.127 315.847 253.714 316.263 254.22 316.796C254.727 317.329 255.122 317.948 255.404 318.652C255.692 319.351 255.836 320.1 255.836 320.9C255.836 321.7 255.692 322.452 255.404 323.156C255.122 323.855 254.727 324.471 254.22 325.004C253.714 325.537 253.127 325.956 252.46 326.26C251.794 326.559 251.079 326.708 250.316 326.708ZM250.316 325.364C250.898 325.364 251.439 325.247 251.94 325.012C252.447 324.777 252.89 324.455 253.268 324.044C253.652 323.628 253.951 323.153 254.164 322.62C254.383 322.081 254.492 321.508 254.492 320.9C254.492 320.292 254.383 319.719 254.164 319.18C253.946 318.636 253.644 318.161 253.26 317.756C252.882 317.345 252.439 317.023 251.932 316.788C251.431 316.553 250.892 316.436 250.316 316.436C249.735 316.436 249.191 316.553 248.684 316.788C248.183 317.023 247.74 317.348 247.356 317.764C246.978 318.175 246.679 318.649 246.46 319.188C246.247 319.721 246.14 320.292 246.14 320.9C246.14 321.513 246.25 322.089 246.468 322.628C246.687 323.167 246.986 323.641 247.364 324.052C247.748 324.463 248.191 324.785 248.692 325.02C249.199 325.249 249.74 325.364 250.316 325.364ZM257.413 326.5V315.3H258.869L264.461 324.068V315.3H265.805V326.5H264.357L258.757 317.732V326.5H257.413ZM271.465 326.5L267.401 315.3H268.825L272.297 324.86L275.777 315.3H277.193L273.129 326.5H271.465ZM278.648 326.5V315.3H285.52V316.644H279.992V319.828H284.52V321.172H279.992V325.156H285.52V326.5H278.648ZM287.366 326.5V315.3H291.302C291.9 315.3 292.438 315.447 292.918 315.74C293.404 316.033 293.788 316.431 294.07 316.932C294.358 317.428 294.502 317.983 294.502 318.596C294.502 319.135 294.396 319.625 294.182 320.068C293.969 320.511 293.676 320.881 293.302 321.18C292.934 321.473 292.516 321.676 292.046 321.788L294.766 326.5H293.214L290.542 321.9H288.71V326.5H287.366ZM288.71 320.556H291.166C291.529 320.556 291.862 320.468 292.166 320.292C292.47 320.111 292.71 319.868 292.886 319.564C293.068 319.255 293.158 318.908 293.158 318.524C293.158 318.135 293.068 317.788 292.886 317.484C292.71 317.175 292.47 316.932 292.166 316.756C291.862 316.575 291.529 316.484 291.166 316.484H288.71V320.556ZM304.745 315.3V316.644H301.017V326.5H299.673V316.644H295.953V315.3H304.745Z" fill="white"/>
</g>
<defs>
<filter id="filter0_d_1_3633" x="0.200001" y="0.200001" width="552.6" height="423.6" filterUnits="userSpaceOnUse" color-interpolation-filters="sRGB">
<feFlood flood-opacity="0" result="BackgroundImageFix"/>
<feColorMatrix in="SourceAlpha" type="matrix" values="0 0 0 0 0 0 0 0 0 0 0 0 0 0 0 0 0 0 127 0" result="hardAlpha"/>
<feOffset dx="7" dy="8"/>
<feGaussianBlur stdDeviation="27.4"/>
<feComposite in2="hardAlpha" operator="out"/>
<feColorMatrix type="matrix" values="0 0 0 0 0.0588235 0 0 0 0 0.12549 0 0 0 0 0.156863 0 0 0 0.25 0"/>
<feBlend mode="normal" in2="BackgroundImageFix" result="effect1_dropShadow_1_3633"/>
<feBlend mode="normal" in="SourceGraphic" in2="effect1_dropShadow_1_3633" result="shape"/>
</filter>
<clipPath id="clip0_1_3633">
<rect width="28" height="28" fill="white" transform="translate(90 146)"/>
</clipPath>
<clipPath id="clip1_1_3633">
<rect width="28" height="28" fill="white" transform="translate(90 230)"/>
</clipPath>
</defs>
</svg>
