<svg width="271" height="194" viewBox="0 0 271 194" fill="none" xmlns="http://www.w3.org/2000/svg">
<g filter="url(#filter0_d_1_3667)">
<rect x="24" y="24.5" width="183" height="105" rx="24" fill="white" shape-rendering="crispEdges"/>
<rect x="23.25" y="23.75" width="184.5" height="106.5" rx="24.75" stroke="#E9E9EB" stroke-width="1.5" shape-rendering="crispEdges"/>
<path d="M49.4366 64.5V53.3H50.6526L56.5646 62.476V53.3H57.6846V64.5H56.4766L50.5566 55.324V64.5H49.4366ZM63.0659 64.708C62.3299 64.708 61.6579 64.5187 61.0499 64.14C60.4473 63.7613 59.9646 63.2547 59.6019 62.62C59.2446 61.98 59.0659 61.2733 59.0659 60.5C59.0659 59.9133 59.1699 59.3667 59.3779 58.86C59.5859 58.348 59.8713 57.9 60.2339 57.516C60.6019 57.1267 61.0286 56.8227 61.5139 56.604C61.9993 56.3853 62.5166 56.276 63.0659 56.276C63.6579 56.276 64.2019 56.3933 64.6979 56.628C65.1993 56.8627 65.6286 57.1907 65.9859 57.612C66.3486 58.0333 66.6206 58.5267 66.8019 59.092C66.9886 59.6573 67.0659 60.268 67.0339 60.924H60.2499C60.3139 61.4307 60.4739 61.884 60.7299 62.284C60.9913 62.684 61.3219 63.0013 61.7219 63.236C62.1273 63.4653 62.5753 63.5827 63.0659 63.588C63.5993 63.588 64.0793 63.4493 64.5059 63.172C64.9379 62.8947 65.2846 62.5133 65.5459 62.028L66.6819 62.292C66.3619 63.0013 65.8793 63.5827 65.2339 64.036C64.5886 64.484 63.8659 64.708 63.0659 64.708ZM60.2179 60.02H65.9059C65.8686 59.524 65.7166 59.0707 65.4499 58.66C65.1886 58.244 64.8499 57.9133 64.4339 57.668C64.0179 57.4173 63.5619 57.292 63.0659 57.292C62.5699 57.292 62.1166 57.4147 61.7059 57.66C61.2953 57.9 60.9593 58.228 60.6979 58.644C60.4366 59.0547 60.2766 59.5133 60.2179 60.02ZM72.3527 57.62H70.4407L70.4327 64.5H69.3127L69.3207 57.62H67.8727V56.5H69.3207L69.3127 53.988H70.4327L70.4407 56.5H72.3527V57.62ZM77.8641 64.5V53.3H78.9841V64.5H77.8641ZM88.1157 59.548V64.5H86.9957V59.772C86.9957 59.3347 86.889 58.9373 86.6757 58.58C86.4624 58.2227 86.177 57.9373 85.8197 57.724C85.4624 57.5107 85.065 57.404 84.6277 57.404C84.1957 57.404 83.7984 57.5107 83.4357 57.724C83.0784 57.9373 82.793 58.2227 82.5797 58.58C82.3664 58.9373 82.2597 59.3347 82.2597 59.772V64.5H81.1397V56.5H82.2597V57.604C82.5424 57.1987 82.9104 56.876 83.3637 56.636C83.817 56.396 84.3104 56.276 84.8437 56.276C85.4464 56.276 85.9957 56.4227 86.4917 56.716C86.9877 57.0093 87.3824 57.404 87.6757 57.9C87.969 58.396 88.1157 58.9453 88.1157 59.548ZM95.2736 62.492L96.2736 63.036C95.9109 63.5427 95.4496 63.948 94.8896 64.252C94.3349 64.556 93.7322 64.708 93.0816 64.708C92.3456 64.708 91.6736 64.5187 91.0656 64.14C90.4629 63.7613 89.9802 63.2547 89.6176 62.62C89.2602 61.98 89.0816 61.2733 89.0816 60.5C89.0816 59.9133 89.1856 59.3667 89.3936 58.86C89.6016 58.348 89.8869 57.9 90.2496 57.516C90.6176 57.1267 91.0442 56.8227 91.5296 56.604C92.0149 56.3853 92.5322 56.276 93.0816 56.276C93.7322 56.276 94.3349 56.428 94.8896 56.732C95.4496 57.036 95.9109 57.444 96.2736 57.956L95.2736 58.492C94.9962 58.14 94.6629 57.8707 94.2736 57.684C93.8842 57.492 93.4869 57.396 93.0816 57.396C92.5429 57.396 92.0549 57.54 91.6176 57.828C91.1802 58.1107 90.8336 58.4867 90.5776 58.956C90.3269 59.4253 90.2016 59.94 90.2016 60.5C90.2016 61.06 90.3296 61.5747 90.5856 62.044C90.8469 62.5133 91.1962 62.8893 91.6336 63.172C92.0709 63.4493 92.5536 63.588 93.0816 63.588C93.5189 63.588 93.9296 63.4867 94.3136 63.284C94.6976 63.0813 95.0176 62.8173 95.2736 62.492ZM101.128 64.708C100.392 64.708 99.7204 64.5187 99.1124 64.14C98.5098 63.7613 98.0271 63.2547 97.6644 62.62C97.3071 61.98 97.1284 61.2733 97.1284 60.5C97.1284 59.9133 97.2324 59.3667 97.4404 58.86C97.6484 58.348 97.9338 57.9 98.2964 57.516C98.6644 57.1267 99.0911 56.8227 99.5764 56.604C100.062 56.3853 100.579 56.276 101.128 56.276C101.864 56.276 102.534 56.4653 103.136 56.844C103.744 57.2227 104.227 57.732 104.584 58.372C104.947 59.012 105.128 59.7213 105.128 60.5C105.128 61.0813 105.024 61.6253 104.816 62.132C104.608 62.6387 104.32 63.0867 103.952 63.476C103.59 63.86 103.166 64.1613 102.68 64.38C102.2 64.5987 101.683 64.708 101.128 64.708ZM101.128 63.588C101.672 63.588 102.16 63.4467 102.592 63.164C103.03 62.876 103.374 62.4973 103.624 62.028C103.88 61.5587 104.008 61.0493 104.008 60.5C104.008 59.94 103.88 59.4253 103.624 58.956C103.368 58.4813 103.022 58.1027 102.584 57.82C102.152 57.5373 101.667 57.396 101.128 57.396C100.584 57.396 100.094 57.54 99.6564 57.828C99.2244 58.1107 98.8804 58.4867 98.6244 58.956C98.3738 59.4253 98.2484 59.94 98.2484 60.5C98.2484 61.076 98.3791 61.5987 98.6404 62.068C98.9018 62.532 99.2511 62.9027 99.6884 63.18C100.126 63.452 100.606 63.588 101.128 63.588ZM106.483 64.5V56.5H107.603V57.604C107.891 57.1987 108.259 56.876 108.707 56.636C109.155 56.396 109.646 56.276 110.179 56.276C110.782 56.276 111.334 56.4253 111.835 56.724C112.337 57.0173 112.729 57.4093 113.011 57.9C113.294 57.4093 113.683 57.0173 114.179 56.724C114.675 56.4253 115.225 56.276 115.827 56.276C116.43 56.276 116.979 56.4227 117.475 56.716C117.971 57.0093 118.366 57.404 118.659 57.9C118.953 58.396 119.099 58.9453 119.099 59.548V64.5H117.979V59.796C117.979 59.3693 117.875 58.9747 117.667 58.612C117.459 58.2493 117.179 57.9587 116.827 57.74C116.481 57.516 116.094 57.404 115.667 57.404C115.241 57.404 114.851 57.508 114.499 57.716C114.153 57.9187 113.875 58.2013 113.667 58.564C113.459 58.9213 113.355 59.332 113.355 59.796V64.5H112.235V59.796C112.235 59.332 112.131 58.9213 111.923 58.564C111.715 58.2013 111.435 57.9187 111.083 57.716C110.731 57.508 110.342 57.404 109.915 57.404C109.494 57.404 109.107 57.516 108.755 57.74C108.403 57.9587 108.123 58.2493 107.915 58.612C107.707 58.9747 107.603 59.3693 107.603 59.796V64.5H106.483ZM124.066 64.708C123.33 64.708 122.658 64.5187 122.05 64.14C121.447 63.7613 120.965 63.2547 120.602 62.62C120.245 61.98 120.066 61.2733 120.066 60.5C120.066 59.9133 120.17 59.3667 120.378 58.86C120.586 58.348 120.871 57.9 121.234 57.516C121.602 57.1267 122.029 56.8227 122.514 56.604C122.999 56.3853 123.517 56.276 124.066 56.276C124.658 56.276 125.202 56.3933 125.698 56.628C126.199 56.8627 126.629 57.1907 126.986 57.612C127.349 58.0333 127.621 58.5267 127.802 59.092C127.989 59.6573 128.066 60.268 128.034 60.924H121.25C121.314 61.4307 121.474 61.884 121.73 62.284C121.991 62.684 122.322 63.0013 122.722 63.236C123.127 63.4653 123.575 63.5827 124.066 63.588C124.599 63.588 125.079 63.4493 125.506 63.172C125.938 62.8947 126.285 62.5133 126.546 62.028L127.682 62.292C127.362 63.0013 126.879 63.5827 126.234 64.036C125.589 64.484 124.866 64.708 124.066 64.708ZM121.218 60.02H126.906C126.869 59.524 126.717 59.0707 126.45 58.66C126.189 58.244 125.85 57.9133 125.434 57.668C125.018 57.4173 124.562 57.292 124.066 57.292C123.57 57.292 123.117 57.4147 122.706 57.66C122.295 57.9 121.959 58.228 121.698 58.644C121.437 59.0547 121.277 59.5133 121.218 60.02Z" fill="#0A1519" fill-opacity="0.7"/>
<path d="M55.188 84.932C54.548 84.924 53.948 85.028 53.388 85.244C52.836 85.452 52.384 85.74 52.032 86.108C51.68 86.476 51.504 86.904 51.504 87.392C51.504 87.992 51.668 88.448 51.996 88.76C52.324 89.072 52.764 89.304 53.316 89.456C53.876 89.6 54.5 89.732 55.188 89.852C56.292 90.028 57.312 90.32 58.248 90.728C59.192 91.136 59.948 91.68 60.516 92.36C61.092 93.032 61.38 93.86 61.38 94.844C61.38 95.748 61.14 96.552 60.66 97.256C60.18 97.952 59.536 98.516 58.728 98.948C57.928 99.372 57.044 99.64 56.076 99.752V102.188H54.312V99.752C53.504 99.672 52.736 99.48 52.008 99.176C51.288 98.872 50.66 98.468 50.124 97.964C49.588 97.46 49.2 96.876 48.96 96.212L51.3 95.336C51.436 95.72 51.696 96.064 52.08 96.368C52.472 96.664 52.936 96.896 53.472 97.064C54.016 97.232 54.588 97.316 55.188 97.316C55.828 97.316 56.428 97.212 56.988 97.004C57.556 96.796 58.012 96.508 58.356 96.14C58.708 95.772 58.884 95.34 58.884 94.844C58.884 94.332 58.7 93.912 58.332 93.584C57.972 93.256 57.508 92.996 56.94 92.804C56.38 92.612 55.796 92.468 55.188 92.372C54.012 92.18 52.956 91.9 52.02 91.532C51.092 91.164 50.356 90.648 49.812 89.984C49.276 89.32 49.008 88.456 49.008 87.392C49.008 86.488 49.248 85.684 49.728 84.98C50.208 84.276 50.848 83.712 51.648 83.288C52.456 82.856 53.344 82.588 54.312 82.484V80.012H56.076V82.484C56.86 82.564 57.612 82.756 58.332 83.06C59.06 83.364 59.696 83.768 60.24 84.272C60.784 84.768 61.18 85.36 61.428 86.048L59.064 86.9C58.928 86.508 58.668 86.168 58.284 85.88C57.9 85.584 57.436 85.352 56.892 85.184C56.356 85.016 55.788 84.932 55.188 84.932ZM63.3506 99.5V97.28C63.9186 96.808 64.5706 96.26 65.3066 95.636C66.0426 95.004 66.7906 94.336 67.5506 93.632C68.3106 92.92 69.0106 92.212 69.6506 91.508C70.2906 90.796 70.8066 90.124 71.1986 89.492C71.5986 88.852 71.7986 88.296 71.7986 87.824C71.7986 87.288 71.6666 86.8 71.4026 86.36C71.1466 85.912 70.7986 85.556 70.3586 85.292C69.9186 85.02 69.4306 84.884 68.8946 84.884C68.3586 84.884 67.8666 85.02 67.4186 85.292C66.9786 85.556 66.6226 85.912 66.3506 86.36C66.0866 86.8 65.9546 87.288 65.9546 87.824H63.4586C63.4586 86.808 63.7066 85.892 64.2026 85.076C64.7066 84.252 65.3666 83.6 66.1826 83.12C67.0066 82.632 67.9106 82.388 68.8946 82.388C69.8866 82.388 70.7906 82.632 71.6066 83.12C72.4226 83.608 73.0746 84.264 73.5626 85.088C74.0506 85.904 74.2946 86.816 74.2946 87.824C74.2946 88.384 74.1786 88.96 73.9466 89.552C73.7146 90.144 73.3906 90.748 72.9746 91.364C72.5666 91.98 72.0906 92.604 71.5466 93.236C71.0026 93.868 70.4186 94.5 69.7946 95.132C69.1706 95.764 68.5346 96.388 67.8866 97.004H74.4386V99.5H63.3506ZM81.9152 99.812C80.8992 99.812 79.9872 99.576 79.1792 99.104C78.3792 98.632 77.7472 98 77.2832 97.208C76.8192 96.416 76.5872 95.536 76.5872 94.568H79.0832C79.0832 95.072 79.2032 95.532 79.4432 95.948C79.6832 96.364 80.0152 96.696 80.4392 96.944C80.8632 97.192 81.3552 97.316 81.9152 97.316C82.4192 97.316 82.8872 97.192 83.3192 96.944C83.7512 96.696 84.0992 96.364 84.3632 95.948C84.6272 95.532 84.7592 95.072 84.7592 94.568C84.7592 93.928 84.5912 93.392 84.2552 92.96C83.9192 92.528 83.4512 92.208 82.8512 92C82.2592 91.784 81.5752 91.676 80.7992 91.676V89.708C81.8552 89.708 82.6992 89.5 83.3312 89.084C83.9632 88.668 84.2792 88.048 84.2792 87.224C84.2792 86.792 84.1632 86.4 83.9312 86.048C83.7072 85.688 83.4072 85.404 83.0312 85.196C82.6632 84.98 82.2672 84.872 81.8432 84.872C81.4032 84.872 80.9792 84.98 80.5712 85.196C80.1712 85.404 79.8432 85.688 79.5872 86.048C79.3312 86.4 79.2032 86.792 79.2032 87.224H76.7072C76.7072 86.56 76.8432 85.936 77.1152 85.352C77.3952 84.76 77.7712 84.244 78.2432 83.804C78.7232 83.356 79.2672 83.008 79.8752 82.76C80.4912 82.504 81.1352 82.376 81.8072 82.376C82.6872 82.376 83.5032 82.596 84.2552 83.036C85.0152 83.468 85.6232 84.052 86.0792 84.788C86.5432 85.516 86.7752 86.328 86.7752 87.224C86.7752 87.936 86.5992 88.612 86.2472 89.252C85.9032 89.884 85.4232 90.332 84.8072 90.596C85.3432 90.788 85.7912 91.092 86.1512 91.508C86.5192 91.916 86.7952 92.388 86.9792 92.924C87.1632 93.452 87.2552 94 87.2552 94.568C87.2552 95.528 87.0112 96.408 86.5232 97.208C86.0352 98 85.3832 98.632 84.5672 99.104C83.7592 99.576 82.8752 99.812 81.9152 99.812ZM96.1324 99.5V95.204H88.9444V92.696L95.5324 82.7H98.6284V92.708H100.164V95.204H98.6284V99.5H96.1324ZM91.8484 92.696L96.1324 92.708L96.1084 86.144L91.8484 92.696ZM103.87 99.812C103.502 99.812 103.19 99.684 102.934 99.428C102.686 99.172 102.562 98.86 102.562 98.492C102.562 98.132 102.686 97.824 102.934 97.568C103.19 97.312 103.502 97.184 103.87 97.184C104.238 97.184 104.55 97.312 104.806 97.568C105.062 97.824 105.19 98.132 105.19 98.492C105.19 98.86 105.062 99.172 104.806 99.428C104.55 99.684 104.238 99.812 103.87 99.812ZM110.373 99.5L113.769 93.62C112.961 93.772 112.173 93.74 111.405 93.524C110.645 93.3 109.961 92.936 109.353 92.432C108.745 91.92 108.261 91.3 107.901 90.572C107.541 89.844 107.361 89.044 107.361 88.172C107.361 87.38 107.509 86.636 107.805 85.94C108.109 85.236 108.525 84.62 109.053 84.092C109.581 83.556 110.193 83.14 110.889 82.844C111.593 82.54 112.345 82.388 113.145 82.388C114.193 82.388 115.153 82.648 116.025 83.168C116.897 83.688 117.593 84.388 118.113 85.268C118.633 86.14 118.893 87.108 118.893 88.172C118.893 88.724 118.825 89.228 118.689 89.684C118.561 90.14 118.357 90.62 118.077 91.124L113.265 99.5H110.373ZM113.121 91.448C113.761 91.448 114.329 91.296 114.825 90.992C115.321 90.68 115.709 90.276 115.989 89.78C116.277 89.276 116.421 88.736 116.421 88.16C116.421 87.536 116.269 86.976 115.965 86.48C115.661 85.984 115.257 85.592 114.753 85.304C114.257 85.016 113.721 84.872 113.145 84.872C112.505 84.872 111.937 85.028 111.441 85.34C110.945 85.652 110.553 86.06 110.265 86.564C109.977 87.06 109.833 87.592 109.833 88.16C109.833 88.76 109.977 89.312 110.265 89.816C110.561 90.312 110.957 90.708 111.453 91.004C111.949 91.3 112.505 91.448 113.121 91.448ZM126.058 99.812C125.042 99.812 124.118 99.58 123.286 99.116C122.454 98.652 121.79 98.032 121.294 97.256C120.806 96.472 120.562 95.6 120.562 94.64C120.562 93.832 120.762 93.08 121.162 92.384C121.562 91.688 122.094 91.112 122.758 90.656C122.222 90.256 121.786 89.752 121.45 89.144C121.114 88.536 120.946 87.88 120.946 87.176C120.946 86.296 121.174 85.496 121.63 84.776C122.094 84.048 122.714 83.468 123.49 83.036C124.266 82.604 125.122 82.388 126.058 82.388C126.994 82.388 127.85 82.604 128.626 83.036C129.402 83.468 130.018 84.048 130.474 84.776C130.938 85.496 131.17 86.296 131.17 87.176C131.17 87.88 131.002 88.536 130.666 89.144C130.338 89.752 129.902 90.256 129.358 90.656C130.038 91.112 130.574 91.688 130.966 92.384C131.366 93.08 131.566 93.832 131.566 94.64C131.566 95.592 131.318 96.46 130.822 97.244C130.326 98.028 129.662 98.652 128.83 99.116C127.998 99.58 127.074 99.812 126.058 99.812ZM126.058 97.316C126.586 97.316 127.066 97.196 127.498 96.956C127.93 96.716 128.274 96.396 128.53 95.996C128.794 95.588 128.926 95.136 128.926 94.64C128.926 94.152 128.794 93.708 128.53 93.308C128.274 92.9 127.93 92.576 127.498 92.336C127.066 92.096 126.586 91.976 126.058 91.976C125.538 91.976 125.058 92.096 124.618 92.336C124.186 92.576 123.838 92.9 123.574 93.308C123.318 93.708 123.19 94.152 123.19 94.64C123.19 95.136 123.318 95.588 123.574 95.996C123.838 96.396 124.186 96.716 124.618 96.956C125.058 97.196 125.538 97.316 126.058 97.316ZM126.058 89.48C126.514 89.48 126.926 89.376 127.294 89.168C127.67 88.96 127.97 88.684 128.194 88.34C128.418 87.988 128.53 87.6 128.53 87.176C128.53 86.752 128.418 86.368 128.194 86.024C127.97 85.68 127.67 85.404 127.294 85.196C126.926 84.988 126.514 84.884 126.058 84.884C125.602 84.884 125.186 84.988 124.81 85.196C124.442 85.404 124.146 85.68 123.922 86.024C123.698 86.368 123.586 86.752 123.586 87.176C123.586 87.6 123.698 87.988 123.922 88.34C124.146 88.684 124.442 88.96 124.81 89.168C125.186 89.376 125.602 89.48 126.058 89.48ZM145.716 99.5H142.476L137.472 92.576L136.452 93.812V99.5H133.956V82.7H136.452V89.936L142.5 82.7H145.764L139.116 90.632L145.716 99.5Z" fill="#0A1519"/>
<rect x="159" y="79" width="24" height="24" rx="12" fill="#D56F3E"/>
<path fill-rule="evenodd" clip-rule="evenodd" d="M167.673 88.9396C167.523 88.7075 167.59 88.3981 167.822 88.2484L171.783 85.6923C172.015 85.5425 172.324 85.6092 172.474 85.8413L175.03 89.8022C175.18 90.0342 175.113 90.3436 174.881 90.4934C174.649 90.6431 174.34 90.5764 174.19 90.3444L172.288 87.3978L171.138 92.7347C171.038 93.1996 171.029 93.9387 171.32 94.6063C171.599 95.2451 172.166 95.8548 173.311 96.1015C173.581 96.1597 173.752 96.4257 173.694 96.6956C173.636 96.9655 173.37 97.1372 173.1 97.079C171.637 96.7637 170.81 95.9361 170.404 95.0065C170.01 94.1057 170.026 93.1453 170.16 92.524L171.311 87.187L168.364 89.0886C168.132 89.2383 167.823 89.1716 167.673 88.9396Z" fill="white"/>
</g>
<defs>
<filter id="filter0_d_1_3667" x="0.400002" y="0.900002" width="270.2" height="192.2" filterUnits="userSpaceOnUse" color-interpolation-filters="sRGB">
<feFlood flood-opacity="0" result="BackgroundImageFix"/>
<feColorMatrix in="SourceAlpha" type="matrix" values="0 0 0 0 0 0 0 0 0 0 0 0 0 0 0 0 0 0 127 0" result="hardAlpha"/>
<feOffset dx="20" dy="20"/>
<feGaussianBlur stdDeviation="21.05"/>
<feComposite in2="hardAlpha" operator="out"/>
<feColorMatrix type="matrix" values="0 0 0 0 0.109804 0 0 0 0 0.247059 0 0 0 0 0.227451 0 0 0 0.15 0"/>
<feBlend mode="normal" in2="BackgroundImageFix" result="effect1_dropShadow_1_3667"/>
<feBlend mode="normal" in="SourceGraphic" in2="effect1_dropShadow_1_3667" result="shape"/>
</filter>
</defs>
</svg>
