<svg width="227" height="92" viewBox="0 0 227 92" fill="none" xmlns="http://www.w3.org/2000/svg">
<rect width="227" height="92" rx="20" fill="#F8F9F9"/>
<path d="M20 46C20 31.6406 31.6406 20 46 20C60.3594 20 72 31.6406 72 46C72 60.3594 60.3594 72 46 72C31.6406 72 20 60.3594 20 46Z" fill="#A2FF76"/>
<path fill-rule="evenodd" clip-rule="evenodd" d="M46 36.75C40.8914 36.75 36.75 40.8914 36.75 46C36.75 51.1086 40.8914 55.25 46 55.25C51.1086 55.25 55.25 51.1086 55.25 46C55.25 40.8914 51.1086 36.75 46 36.75ZM35.25 46C35.25 40.0629 40.0629 35.25 46 35.25C51.9371 35.25 56.75 40.0629 56.75 46C56.75 51.9371 51.9371 56.75 46 56.75C40.0629 56.75 35.25 51.9371 35.25 46Z" fill="#0A1519"/>
<path fill-rule="evenodd" clip-rule="evenodd" d="M46 50.25C46.4142 50.25 46.75 50.5858 46.75 51V52C46.75 52.4142 46.4142 52.75 46 52.75C45.5858 52.75 45.25 52.4142 45.25 52V51C45.25 50.5858 45.5858 50.25 46 50.25Z" fill="#0A1519"/>
<path fill-rule="evenodd" clip-rule="evenodd" d="M46 39.25C46.4142 39.25 46.75 39.5858 46.75 40V41C46.75 41.4142 46.4142 41.75 46 41.75C45.5858 41.75 45.25 41.4142 45.25 41V40C45.25 39.5858 45.5858 39.25 46 39.25Z" fill="#0A1519"/>
<path fill-rule="evenodd" clip-rule="evenodd" d="M42.25 43.5C42.25 41.5829 44.0627 40.25 46 40.25C47.9373 40.25 49.75 41.5829 49.75 43.5C49.75 43.9142 49.4142 44.25 49 44.25C48.5858 44.25 48.25 43.9142 48.25 43.5C48.25 42.6557 47.3765 41.75 46 41.75C44.6235 41.75 43.75 42.6557 43.75 43.5C43.75 44.3443 44.6235 45.25 46 45.25C47.9373 45.25 49.75 46.5829 49.75 48.5C49.75 50.4171 47.9373 51.75 46 51.75C44.0627 51.75 42.25 50.4171 42.25 48.5C42.25 48.0858 42.5858 47.75 43 47.75C43.4142 47.75 43.75 48.0858 43.75 48.5C43.75 49.3443 44.6235 50.25 46 50.25C47.3765 50.25 48.25 49.3443 48.25 48.5C48.25 47.6557 47.3765 46.75 46 46.75C44.0627 46.75 42.25 45.4171 42.25 43.5Z" fill="#0A1519"/>
<path d="M84.96 38V26.8H88.76C89.3573 26.8 89.896 26.9467 90.376 27.24C90.856 27.528 91.2373 27.92 91.52 28.416C91.8027 28.9067 91.944 29.4587 91.944 30.072C91.944 30.6213 91.832 31.12 91.608 31.568C91.384 32.016 91.0773 32.3867 90.688 32.68C90.304 32.9733 89.8693 33.168 89.384 33.264L92.12 38H90.824L88.128 33.352H86.08V38H84.96ZM86.08 32.232H88.664C89.0587 32.232 89.4187 32.136 89.744 31.944C90.0747 31.7467 90.336 31.4827 90.528 31.152C90.7253 30.816 90.824 30.4373 90.824 30.016C90.824 29.5947 90.7253 29.2187 90.528 28.888C90.336 28.552 90.0747 28.288 89.744 28.096C89.4187 27.8987 89.0587 27.8 88.664 27.8H86.08V32.232ZM97.105 38.208C96.369 38.208 95.697 38.0187 95.089 37.64C94.4863 37.2613 94.0037 36.7547 93.641 36.12C93.2837 35.48 93.105 34.7733 93.105 34C93.105 33.4133 93.209 32.8667 93.417 32.36C93.625 31.848 93.9103 31.4 94.273 31.016C94.641 30.6267 95.0677 30.3227 95.553 30.104C96.0383 29.8853 96.5557 29.776 97.105 29.776C97.697 29.776 98.241 29.8933 98.737 30.128C99.2383 30.3627 99.6677 30.6907 100.025 31.112C100.388 31.5333 100.66 32.0267 100.841 32.592C101.028 33.1573 101.105 33.768 101.073 34.424H94.289C94.353 34.9307 94.513 35.384 94.769 35.784C95.0303 36.184 95.361 36.5013 95.761 36.736C96.1663 36.9653 96.6143 37.0827 97.105 37.088C97.6383 37.088 98.1183 36.9493 98.545 36.672C98.977 36.3947 99.3237 36.0133 99.585 35.528L100.721 35.792C100.401 36.5013 99.9183 37.0827 99.273 37.536C98.6277 37.984 97.905 38.208 97.105 38.208ZM94.257 33.52H99.945C99.9077 33.024 99.7557 32.5707 99.489 32.16C99.2277 31.744 98.889 31.4133 98.473 31.168C98.057 30.9173 97.601 30.792 97.105 30.792C96.609 30.792 96.1557 30.9147 95.745 31.16C95.3343 31.4 94.9983 31.728 94.737 32.144C94.4757 32.5547 94.3157 33.0133 94.257 33.52ZM108.078 35.992L109.078 36.536C108.716 37.0427 108.254 37.448 107.694 37.752C107.14 38.056 106.537 38.208 105.886 38.208C105.15 38.208 104.478 38.0187 103.87 37.64C103.268 37.2613 102.785 36.7547 102.422 36.12C102.065 35.48 101.886 34.7733 101.886 34C101.886 33.4133 101.99 32.8667 102.198 32.36C102.406 31.848 102.692 31.4 103.054 31.016C103.422 30.6267 103.849 30.3227 104.334 30.104C104.82 29.8853 105.337 29.776 105.886 29.776C106.537 29.776 107.14 29.928 107.694 30.232C108.254 30.536 108.716 30.944 109.078 31.456L108.078 31.992C107.801 31.64 107.468 31.3707 107.078 31.184C106.689 30.992 106.292 30.896 105.886 30.896C105.348 30.896 104.86 31.04 104.422 31.328C103.985 31.6107 103.638 31.9867 103.382 32.456C103.132 32.9253 103.006 33.44 103.006 34C103.006 34.56 103.134 35.0747 103.39 35.544C103.652 36.0133 104.001 36.3893 104.438 36.672C104.876 36.9493 105.358 37.088 105.886 37.088C106.324 37.088 106.734 36.9867 107.118 36.784C107.502 36.5813 107.822 36.3173 108.078 35.992ZM113.933 38.208C113.197 38.208 112.525 38.0187 111.917 37.64C111.314 37.2613 110.832 36.7547 110.469 36.12C110.112 35.48 109.933 34.7733 109.933 34C109.933 33.4133 110.037 32.8667 110.245 32.36C110.453 31.848 110.738 31.4 111.101 31.016C111.469 30.6267 111.896 30.3227 112.381 30.104C112.866 29.8853 113.384 29.776 113.933 29.776C114.525 29.776 115.069 29.8933 115.565 30.128C116.066 30.3627 116.496 30.6907 116.853 31.112C117.216 31.5333 117.488 32.0267 117.669 32.592C117.856 33.1573 117.933 33.768 117.901 34.424H111.117C111.181 34.9307 111.341 35.384 111.597 35.784C111.858 36.184 112.189 36.5013 112.589 36.736C112.994 36.9653 113.442 37.0827 113.933 37.088C114.466 37.088 114.946 36.9493 115.373 36.672C115.805 36.3947 116.152 36.0133 116.413 35.528L117.549 35.792C117.229 36.5013 116.746 37.0827 116.101 37.536C115.456 37.984 114.733 38.208 113.933 38.208ZM111.085 33.52H116.773C116.736 33.024 116.584 32.5707 116.317 32.16C116.056 31.744 115.717 31.4133 115.301 31.168C114.885 30.9173 114.429 30.792 113.933 30.792C113.437 30.792 112.984 30.9147 112.573 31.16C112.162 31.4 111.826 31.728 111.565 32.144C111.304 32.5547 111.144 33.0133 111.085 33.52ZM119.194 30H120.314V38H119.194V30ZM119.762 28.6C119.581 28.6 119.426 28.5413 119.298 28.424C119.176 28.3013 119.114 28.1493 119.114 27.968C119.114 27.7867 119.176 27.6373 119.298 27.52C119.426 27.3973 119.581 27.336 119.762 27.336C119.938 27.336 120.088 27.3973 120.21 27.52C120.338 27.6373 120.402 27.7867 120.402 27.968C120.402 28.1493 120.341 28.3013 120.218 28.424C120.096 28.5413 119.944 28.6 119.762 28.6ZM125.996 38H124.572L121.652 29.976H122.844L125.284 36.688L127.724 29.976H128.916L125.996 38ZM133.449 38.208C132.713 38.208 132.041 38.0187 131.433 37.64C130.83 37.2613 130.347 36.7547 129.985 36.12C129.627 35.48 129.449 34.7733 129.449 34C129.449 33.4133 129.553 32.8667 129.761 32.36C129.969 31.848 130.254 31.4 130.617 31.016C130.985 30.6267 131.411 30.3227 131.897 30.104C132.382 29.8853 132.899 29.776 133.449 29.776C134.041 29.776 134.585 29.8933 135.081 30.128C135.582 30.3627 136.011 30.6907 136.369 31.112C136.731 31.5333 137.003 32.0267 137.185 32.592C137.371 33.1573 137.449 33.768 137.417 34.424H130.633C130.697 34.9307 130.857 35.384 131.113 35.784C131.374 36.184 131.705 36.5013 132.105 36.736C132.51 36.9653 132.958 37.0827 133.449 37.088C133.982 37.088 134.462 36.9493 134.889 36.672C135.321 36.3947 135.667 36.0133 135.929 35.528L137.065 35.792C136.745 36.5013 136.262 37.0827 135.617 37.536C134.971 37.984 134.249 38.208 133.449 38.208ZM130.601 33.52H136.289C136.251 33.024 136.099 32.5707 135.833 32.16C135.571 31.744 135.233 31.4133 134.817 31.168C134.401 30.9173 133.945 30.792 133.449 30.792C132.953 30.792 132.499 30.9147 132.089 31.16C131.678 31.4 131.342 31.728 131.081 32.144C130.819 32.5547 130.659 33.0133 130.601 33.52ZM145.294 26H146.414V38H145.294V36.504C145.017 37.016 144.635 37.4293 144.15 37.744C143.67 38.0533 143.099 38.208 142.438 38.208C141.857 38.208 141.313 38.0987 140.806 37.88C140.299 37.6613 139.851 37.36 139.462 36.976C139.078 36.5867 138.777 36.1387 138.558 35.632C138.339 35.1253 138.23 34.5813 138.23 34C138.23 33.4187 138.339 32.8747 138.558 32.368C138.777 31.856 139.078 31.408 139.462 31.024C139.851 30.6347 140.299 30.3307 140.806 30.112C141.313 29.8933 141.857 29.784 142.438 29.784C143.099 29.784 143.67 29.9413 144.15 30.256C144.635 30.5653 145.017 30.9733 145.294 31.48V26ZM142.446 37.12C143.017 37.12 143.507 36.9813 143.918 36.704C144.329 36.4213 144.643 36.0427 144.862 35.568C145.086 35.0933 145.198 34.5707 145.198 34C145.198 33.4133 145.086 32.8853 144.862 32.416C144.638 31.9413 144.321 31.5653 143.91 31.288C143.499 31.0107 143.011 30.872 142.446 30.872C141.881 30.872 141.366 31.0133 140.902 31.296C140.438 31.5733 140.067 31.9493 139.79 32.424C139.513 32.8987 139.374 33.424 139.374 34C139.374 34.5813 139.515 35.1093 139.798 35.584C140.081 36.0533 140.454 36.4267 140.918 36.704C141.387 36.9813 141.897 37.12 142.446 37.12Z" fill="#0A1519" fill-opacity="0.7"/>
<path d="M89.929 67.286C88.9463 67.286 88.048 67.044 87.234 66.56C86.42 66.0687 85.7673 65.416 85.276 64.602C84.792 63.7807 84.55 62.875 84.55 61.885C84.55 61.357 84.6123 60.8803 84.737 60.455C84.8617 60.0297 85.0523 59.5823 85.309 59.113L89.643 51.6H92.305L89.302 56.792C89.9107 56.6747 90.5047 56.671 91.084 56.781C91.6707 56.8837 92.2207 57.0853 92.734 57.386C93.2473 57.6793 93.6983 58.0533 94.087 58.508C94.483 58.9553 94.791 59.465 95.011 60.037C95.231 60.609 95.341 61.225 95.341 61.885C95.341 62.6257 95.198 63.3223 94.912 63.975C94.6333 64.6277 94.2447 65.2033 93.746 65.702C93.2547 66.1933 92.679 66.582 92.019 66.868C91.3663 67.1467 90.6697 67.286 89.929 67.286ZM89.929 64.998C90.5303 64.998 91.0657 64.8513 91.535 64.558C92.0043 64.2647 92.3747 63.8797 92.646 63.403C92.9173 62.9263 93.053 62.4203 93.053 61.885C93.053 61.3203 92.9137 60.8033 92.635 60.334C92.3637 59.8647 91.9933 59.4907 91.524 59.212C91.0547 58.926 90.5303 58.783 89.951 58.783C89.3497 58.783 88.8143 58.9297 88.345 59.223C87.8757 59.5163 87.5053 59.8977 87.234 60.367C86.97 60.8363 86.838 61.3423 86.838 61.885C86.838 62.479 86.981 63.0107 87.267 63.48C87.5603 63.9493 87.9417 64.3197 88.411 64.591C88.8803 64.8623 89.3863 64.998 89.929 64.998ZM97.3408 67L104.898 53.888H96.4498V51.6H107.549V53.888L99.9698 67H97.3408ZM111.419 67L114.532 61.61C113.791 61.7493 113.069 61.72 112.365 61.522C111.668 61.3167 111.041 60.983 110.484 60.521C109.927 60.0517 109.483 59.4833 109.153 58.816C108.823 58.1487 108.658 57.4153 108.658 56.616C108.658 55.89 108.794 55.208 109.065 54.57C109.344 53.9247 109.725 53.36 110.209 52.876C110.693 52.3847 111.254 52.0033 111.892 51.732C112.537 51.4533 113.227 51.314 113.96 51.314C114.921 51.314 115.801 51.5523 116.6 52.029C117.399 52.5057 118.037 53.1473 118.514 53.954C118.991 54.7533 119.229 55.6407 119.229 56.616C119.229 57.122 119.167 57.584 119.042 58.002C118.925 58.42 118.738 58.86 118.481 59.322L114.07 67H111.419ZM113.938 59.619C114.525 59.619 115.045 59.4797 115.5 59.201C115.955 58.915 116.31 58.5447 116.567 58.09C116.831 57.628 116.963 57.133 116.963 56.605C116.963 56.033 116.824 55.5197 116.545 55.065C116.266 54.6103 115.896 54.251 115.434 53.987C114.979 53.723 114.488 53.591 113.96 53.591C113.373 53.591 112.853 53.734 112.398 54.02C111.943 54.306 111.584 54.68 111.32 55.142C111.056 55.5967 110.924 56.0843 110.924 56.605C110.924 57.155 111.056 57.661 111.32 58.123C111.591 58.5777 111.954 58.9407 112.409 59.212C112.864 59.4833 113.373 59.619 113.938 59.619ZM126.512 67.286C125.603 67.286 124.781 67.0807 124.048 66.67C123.322 66.252 122.695 65.6763 122.167 64.943C121.639 64.2097 121.236 63.3627 120.957 62.402C120.678 61.434 120.539 60.4 120.539 59.3C120.539 58.2 120.678 57.166 120.957 56.198C121.236 55.23 121.639 54.383 122.167 53.657C122.695 52.9237 123.322 52.3517 124.048 51.941C124.781 51.523 125.603 51.314 126.512 51.314C127.407 51.314 128.221 51.523 128.954 51.941C129.687 52.3517 130.311 52.9237 130.824 53.657C131.345 54.383 131.744 55.23 132.023 56.198C132.302 57.166 132.441 58.2 132.441 59.3C132.441 60.4 132.302 61.434 132.023 62.402C131.744 63.3627 131.345 64.2097 130.824 64.943C130.311 65.6763 129.687 66.252 128.954 66.67C128.221 67.0807 127.407 67.286 126.512 67.286ZM126.512 64.998C127.355 64.998 128.056 64.734 128.613 64.206C129.178 63.6707 129.599 62.9703 129.878 62.105C130.157 61.2397 130.296 60.3047 130.296 59.3C130.296 58.244 130.149 57.287 129.856 56.429C129.57 55.5637 129.145 54.878 128.58 54.372C128.023 53.8587 127.333 53.602 126.512 53.602C125.859 53.602 125.291 53.756 124.807 54.064C124.33 54.372 123.934 54.7937 123.619 55.329C123.311 55.8643 123.076 56.473 122.915 57.155C122.761 57.837 122.684 58.552 122.684 59.3C122.684 60.3047 122.827 61.2397 123.113 62.105C123.399 62.9703 123.824 63.6707 124.389 64.206C124.961 64.734 125.669 64.998 126.512 64.998ZM135.171 67.286C134.833 67.286 134.547 67.1687 134.313 66.934C134.085 66.6993 133.972 66.4133 133.972 66.076C133.972 65.746 134.085 65.4637 134.313 65.229C134.547 64.9943 134.833 64.877 135.171 64.877C135.508 64.877 135.794 64.9943 136.029 65.229C136.263 65.4637 136.381 65.746 136.381 66.076C136.381 66.4133 136.263 66.6993 136.029 66.934C135.794 67.1687 135.508 67.286 135.171 67.286ZM143.64 67.286C142.657 67.286 141.759 67.044 140.945 66.56C140.131 66.0687 139.478 65.416 138.987 64.602C138.503 63.7807 138.261 62.875 138.261 61.885C138.261 61.357 138.323 60.8803 138.448 60.455C138.573 60.0297 138.763 59.5823 139.02 59.113L143.354 51.6H146.016L143.013 56.792C143.622 56.6747 144.216 56.671 144.795 56.781C145.382 56.8837 145.932 57.0853 146.445 57.386C146.958 57.6793 147.409 58.0533 147.798 58.508C148.194 58.9553 148.502 59.465 148.722 60.037C148.942 60.609 149.052 61.225 149.052 61.885C149.052 62.6257 148.909 63.3223 148.623 63.975C148.344 64.6277 147.956 65.2033 147.457 65.702C146.966 66.1933 146.39 66.582 145.73 66.868C145.077 67.1467 144.381 67.286 143.64 67.286ZM143.64 64.998C144.241 64.998 144.777 64.8513 145.246 64.558C145.715 64.2647 146.086 63.8797 146.357 63.403C146.628 62.9263 146.764 62.4203 146.764 61.885C146.764 61.3203 146.625 60.8033 146.346 60.334C146.075 59.8647 145.704 59.4907 145.235 59.212C144.766 58.926 144.241 58.783 143.662 58.783C143.061 58.783 142.525 58.9297 142.056 59.223C141.587 59.5163 141.216 59.8977 140.945 60.367C140.681 60.8363 140.549 61.3423 140.549 61.885C140.549 62.479 140.692 63.0107 140.978 63.48C141.271 63.9493 141.653 64.3197 142.122 64.591C142.591 64.8623 143.097 64.998 143.64 64.998ZM151.052 67L158.609 53.888H150.161V51.6H161.26V53.888L153.681 67H151.052ZM168.314 67V51.6H177.873V53.888H170.602V57.606H176.454V59.894H170.602V64.712H177.873V67H168.314ZM186.396 67.286C185.164 67.286 184.09 66.9853 183.173 66.384C182.264 65.7827 181.556 64.976 181.05 63.964C180.552 62.9447 180.302 61.8153 180.302 60.576V51.6H182.59V60.576C182.59 61.3827 182.737 62.1233 183.03 62.798C183.331 63.4653 183.764 64.0007 184.328 64.404C184.9 64.8 185.59 64.998 186.396 64.998C187.225 64.998 187.922 64.8 188.486 64.404C189.051 64.0007 189.476 63.4653 189.762 62.798C190.056 62.1233 190.202 61.3827 190.202 60.576V51.6H192.49V60.576C192.49 61.5073 192.347 62.38 192.061 63.194C191.775 64.0007 191.365 64.712 190.829 65.328C190.294 65.944 189.652 66.4243 188.904 66.769C188.156 67.1137 187.32 67.286 186.396 67.286ZM194.933 67V51.6H200.598C201.434 51.6 202.186 51.8053 202.853 52.216C203.521 52.6267 204.049 53.1803 204.437 53.877C204.833 54.5663 205.031 55.3363 205.031 56.187C205.031 56.9057 204.896 57.562 204.624 58.156C204.36 58.75 203.986 59.256 203.502 59.674C203.026 60.092 202.479 60.3927 201.863 60.576L205.581 67H202.93L199.322 60.785H197.221V67H194.933ZM197.221 58.497H200.356C200.796 58.497 201.196 58.387 201.555 58.167C201.922 57.947 202.212 57.6537 202.424 57.287C202.637 56.9203 202.743 56.506 202.743 56.044C202.743 55.582 202.637 55.1677 202.424 54.801C202.212 54.427 201.922 54.1337 201.555 53.921C201.196 53.701 200.796 53.591 200.356 53.591H197.221V58.497Z" fill="#0A1519"/>
</svg>
