<svg width="86" height="14" viewBox="0 0 86 14" fill="none" xmlns="http://www.w3.org/2000/svg">
<g clip-path="url(#clip0_1_14387)">
<path d="M13.7374 5.19247C13.6346 4.88644 13.3697 4.66331 13.0507 4.61453L9.33878 4.04731L7.67146 0.495469C7.52928 0.192719 7.22543 0 6.89162 0C6.55759 0 6.25396 0.192719 6.11177 0.495469L4.44424 4.04753L0.732275 4.61475C0.413338 4.66353 0.148431 4.88644 0.0458376 5.19269C-0.0567562 5.49894 0.0206813 5.83625 0.246213 6.06769L2.95696 8.84734L2.31493 12.7798C2.26199 13.1053 2.40002 13.4326 2.66931 13.6229C2.93837 13.8132 3.29362 13.8324 3.58302 13.6728L6.89184 11.8429L10.2007 13.6728C10.3312 13.7449 10.475 13.7804 10.618 13.7804C10.7922 13.7804 10.9663 13.7274 11.1144 13.6229C11.3836 13.4328 11.5215 13.1055 11.4685 12.7798L10.8265 8.84734L13.5375 6.06769C13.7626 5.83625 13.84 5.49894 13.7374 5.19247Z" fill="#F7B50D"/>
</g>
<g clip-path="url(#clip1_1_14387)">
<path d="M31.7374 5.19247C31.6346 4.88644 31.3697 4.66331 31.0507 4.61453L27.3388 4.04731L25.6715 0.495469C25.5293 0.192719 25.2254 0 24.8916 0C24.5576 0 24.254 0.192719 24.1118 0.495469L22.4442 4.04753L18.7323 4.61475C18.4133 4.66353 18.1484 4.88644 18.0458 5.19269C17.9432 5.49894 18.0207 5.83625 18.2462 6.06769L20.957 8.84734L20.3149 12.7798C20.262 13.1053 20.4 13.4326 20.6693 13.6229C20.9384 13.8132 21.2936 13.8324 21.583 13.6728L24.8918 11.8429L28.2007 13.6728C28.3312 13.7449 28.475 13.7804 28.618 13.7804C28.7922 13.7804 28.9663 13.7274 29.1144 13.6229C29.3836 13.4328 29.5215 13.1055 29.4685 12.7798L28.8265 8.84734L31.5375 6.06769C31.7626 5.83625 31.84 5.49894 31.7374 5.19247Z" fill="#F7B50D"/>
</g>
<g clip-path="url(#clip2_1_14387)">
<path d="M49.7374 5.19247C49.6346 4.88644 49.3697 4.66331 49.0507 4.61453L45.3388 4.04731L43.6715 0.495469C43.5293 0.192719 43.2254 0 42.8916 0C42.5576 0 42.254 0.192719 42.1118 0.495469L40.4442 4.04753L36.7323 4.61475C36.4133 4.66353 36.1484 4.88644 36.0458 5.19269C35.9432 5.49894 36.0207 5.83625 36.2462 6.06769L38.957 8.84734L38.3149 12.7798C38.262 13.1053 38.4 13.4326 38.6693 13.6229C38.9384 13.8132 39.2936 13.8324 39.583 13.6728L42.8918 11.8429L46.2007 13.6728C46.3312 13.7449 46.475 13.7804 46.618 13.7804C46.7922 13.7804 46.9663 13.7274 47.1144 13.6229C47.3836 13.4328 47.5215 13.1055 47.4685 12.7798L46.8265 8.84734L49.5375 6.06769C49.7626 5.83625 49.84 5.49894 49.7374 5.19247Z" fill="#F7B50D"/>
</g>
<g clip-path="url(#clip3_1_14387)">
<path d="M67.7374 5.19247C67.6346 4.88644 67.3697 4.66331 67.0507 4.61453L63.3388 4.04731L61.6715 0.495469C61.5293 0.192719 61.2254 0 60.8916 0C60.5576 0 60.254 0.192719 60.1118 0.495469L58.4442 4.04753L54.7323 4.61475C54.4133 4.66353 54.1484 4.88644 54.0458 5.19269C53.9432 5.49894 54.0207 5.83625 54.2462 6.06769L56.957 8.84734L56.3149 12.7798C56.262 13.1053 56.4 13.4326 56.6693 13.6229C56.9384 13.8132 57.2936 13.8324 57.583 13.6728L60.8918 11.8429L64.2007 13.6728C64.3312 13.7449 64.475 13.7804 64.618 13.7804C64.7922 13.7804 64.9663 13.7274 65.1144 13.6229C65.3836 13.4328 65.5215 13.1055 65.4685 12.7798L64.8265 8.84734L67.5375 6.06769C67.7626 5.83625 67.84 5.49894 67.7374 5.19247Z" fill="#F7B50D"/>
</g>
<g clip-path="url(#clip4_1_14387)">
<path d="M85.7374 5.19247C85.6346 4.88644 85.3697 4.66331 85.0507 4.61453L81.3388 4.04731L79.6715 0.495469C79.5293 0.192719 79.2254 0 78.8916 0C78.5576 0 78.254 0.192719 78.1118 0.495469L76.4442 4.04753L72.7323 4.61475C72.4133 4.66353 72.1484 4.88644 72.0458 5.19269C71.9432 5.49894 72.0207 5.83625 72.2462 6.06769L74.957 8.84734L74.3149 12.7798C74.262 13.1053 74.4 13.4326 74.6693 13.6229C74.9384 13.8132 75.2936 13.8324 75.583 13.6728L78.8918 11.8429L82.2007 13.6728C82.3312 13.7449 82.475 13.7804 82.618 13.7804C82.7922 13.7804 82.9663 13.7274 83.1144 13.6229C83.3836 13.4328 83.5215 13.1055 83.4685 12.7798L82.8265 8.84734L85.5375 6.06769C85.7626 5.83625 85.84 5.49894 85.7374 5.19247Z" fill="#F7B50D"/>
</g>
<defs>
<clipPath id="clip0_1_14387">
<rect width="14" height="14" fill="white"/>
</clipPath>
<clipPath id="clip1_1_14387">
<rect width="14" height="14" fill="white" transform="translate(18)"/>
</clipPath>
<clipPath id="clip2_1_14387">
<rect width="14" height="14" fill="white" transform="translate(36)"/>
</clipPath>
<clipPath id="clip3_1_14387">
<rect width="14" height="14" fill="white" transform="translate(54)"/>
</clipPath>
<clipPath id="clip4_1_14387">
<rect width="14" height="14" fill="white" transform="translate(72)"/>
</clipPath>
</defs>
</svg>
