<svg width="216" height="96" viewBox="0 0 216 96" fill="none" xmlns="http://www.w3.org/2000/svg">
<rect width="216" height="96" rx="24" fill="white"/>
<path d="M33.432 23.8V25.144H29.704V35H28.36V25.144H24.64V23.8H33.432ZM37.3238 35.208C36.5878 35.208 35.9158 35.0187 35.3078 34.64C34.7051 34.2613 34.2224 33.7547 33.8598 33.12C33.5024 32.48 33.3238 31.7733 33.3238 31C33.3238 30.4133 33.4278 29.8667 33.6358 29.36C33.8438 28.848 34.1291 28.4 34.4918 28.016C34.8598 27.6267 35.2864 27.3227 35.7718 27.104C36.2571 26.8853 36.7744 26.776 37.3238 26.776C38.0598 26.776 38.7291 26.9653 39.3318 27.344C39.9398 27.7227 40.4224 28.232 40.7798 28.872C41.1424 29.512 41.3238 30.2213 41.3238 31C41.3238 31.5813 41.2198 32.1253 41.0118 32.632C40.8038 33.1387 40.5158 33.5867 40.1478 33.976C39.7851 34.36 39.3611 34.6613 38.8758 34.88C38.3958 35.0987 37.8784 35.208 37.3238 35.208ZM37.3238 33.864C37.8251 33.864 38.2758 33.7333 38.6758 33.472C39.0811 33.2053 39.3984 32.856 39.6278 32.424C39.8624 31.9867 39.9798 31.512 39.9798 31C39.9798 30.4773 39.8598 29.9973 39.6198 29.56C39.3851 29.1227 39.0678 28.7733 38.6678 28.512C38.2678 28.2507 37.8198 28.12 37.3238 28.12C36.8224 28.12 36.3718 28.2533 35.9718 28.52C35.5718 28.7813 35.2544 29.1307 35.0198 29.568C34.7851 30.0053 34.6678 30.4827 34.6678 31C34.6678 31.5333 34.7878 32.0187 35.0278 32.456C35.2678 32.888 35.5904 33.232 35.9958 33.488C36.4011 33.7387 36.8438 33.864 37.3238 33.864ZM46.6978 28.344H44.8818L44.8738 35H43.5298L43.5378 28.344H42.1618V27H43.5378L43.5298 24.488H44.8738L44.8818 27H46.6978V28.344ZM54.3608 27H55.7048V35H54.3608L54.3048 33.648C54.0541 34.112 53.7074 34.488 53.2648 34.776C52.8274 35.064 52.3048 35.208 51.6968 35.208C51.1101 35.208 50.5608 35.0987 50.0488 34.88C49.5368 34.656 49.0834 34.3493 48.6888 33.96C48.2994 33.5653 47.9954 33.112 47.7768 32.6C47.5581 32.088 47.4488 31.536 47.4488 30.944C47.4488 30.3733 47.5554 29.8347 47.7688 29.328C47.9821 28.8213 48.2781 28.3787 48.6568 28C49.0408 27.616 49.4834 27.3173 49.9848 27.104C50.4861 26.8853 51.0248 26.776 51.6008 26.776C52.2301 26.776 52.7821 26.9253 53.2568 27.224C53.7314 27.5173 54.1154 27.8987 54.4088 28.368L54.3608 27ZM51.6727 33.904C52.2008 33.904 52.6568 33.776 53.0408 33.52C53.4301 33.2587 53.7288 32.9067 53.9368 32.464C54.1501 32.0213 54.2568 31.5333 54.2568 31C54.2568 30.456 54.1501 29.9653 53.9368 29.528C53.7234 29.0853 53.4221 28.736 53.0328 28.48C52.6488 28.2187 52.1954 28.088 51.6727 28.088C51.1448 28.088 50.6648 28.2187 50.2328 28.48C49.8008 28.7413 49.4568 29.0933 49.2008 29.536C48.9501 29.9733 48.8248 30.4613 48.8248 31C48.8248 31.5387 48.9554 32.0293 49.2168 32.472C49.4781 32.9093 49.8248 33.2587 50.2568 33.52C50.6888 33.776 51.1608 33.904 51.6727 33.904ZM57.3975 35V23H58.7415V35H57.3975ZM68.5549 26.776C69.3335 26.776 70.0402 26.9653 70.6749 27.344C71.3149 27.7227 71.8242 28.232 72.2029 28.872C72.5815 29.5067 72.7709 30.2133 72.7709 30.992C72.7709 31.5733 72.6615 32.12 72.4429 32.632C72.2242 33.1387 71.9202 33.5867 71.5309 33.976C71.1469 34.36 70.6989 34.6613 70.1869 34.88C69.6802 35.0987 69.1362 35.208 68.5549 35.208C67.9362 35.208 67.3975 35.064 66.9389 34.776C66.4855 34.4827 66.1229 34.1013 65.8509 33.632V35H64.5069V23H65.8509V28.352C66.1229 27.8827 66.4855 27.504 66.9389 27.216C67.3975 26.9227 67.9362 26.776 68.5549 26.776ZM68.5389 33.896C69.0669 33.896 69.5469 33.7653 69.9789 33.504C70.4109 33.2427 70.7549 32.8933 71.0109 32.456C71.2669 32.0133 71.3949 31.5253 71.3949 30.992C71.3949 30.448 71.2642 29.9573 71.0029 29.52C70.7415 29.0773 70.3949 28.728 69.9629 28.472C69.5309 28.2107 69.0562 28.08 68.5389 28.08C68.0162 28.08 67.5602 28.2107 67.1709 28.472C66.7869 28.7333 66.4882 29.0853 66.2749 29.528C66.0669 29.9707 65.9629 30.4587 65.9629 30.992C65.9629 31.5307 66.0669 32.0213 66.2749 32.464C66.4882 32.9013 66.7895 33.2507 67.1789 33.512C67.5682 33.768 68.0215 33.896 68.5389 33.896ZM80.4858 27H81.8298V35H80.4858L80.4298 33.648C80.1791 34.112 79.8324 34.488 79.3898 34.776C78.9524 35.064 78.4298 35.208 77.8218 35.208C77.2351 35.208 76.6858 35.0987 76.1738 34.88C75.6618 34.656 75.2084 34.3493 74.8138 33.96C74.4244 33.5653 74.1204 33.112 73.9018 32.6C73.6831 32.088 73.5738 31.536 73.5738 30.944C73.5738 30.3733 73.6804 29.8347 73.8938 29.328C74.1071 28.8213 74.4031 28.3787 74.7818 28C75.1658 27.616 75.6084 27.3173 76.1098 27.104C76.6111 26.8853 77.1498 26.776 77.7258 26.776C78.3551 26.776 78.9071 26.9253 79.3818 27.224C79.8564 27.5173 80.2404 27.8987 80.5338 28.368L80.4858 27ZM77.7977 33.904C78.3258 33.904 78.7818 33.776 79.1658 33.52C79.5551 33.2587 79.8538 32.9067 80.0618 32.464C80.2751 32.0213 80.3818 31.5333 80.3818 31C80.3818 30.456 80.2751 29.9653 80.0618 29.528C79.8484 29.0853 79.5471 28.736 79.1578 28.48C78.7738 28.2187 78.3204 28.088 77.7977 28.088C77.2698 28.088 76.7898 28.2187 76.3578 28.48C75.9258 28.7413 75.5818 29.0933 75.3258 29.536C75.0751 29.9733 74.9498 30.4613 74.9498 31C74.9498 31.5387 75.0804 32.0293 75.3418 32.472C75.6031 32.9093 75.9498 33.2587 76.3818 33.52C76.8138 33.776 77.2858 33.904 77.7977 33.904ZM83.5225 35V23H84.8665V35H83.5225ZM93.142 27H94.486V35H93.142L93.086 33.648C92.8353 34.112 92.4887 34.488 92.046 34.776C91.6087 35.064 91.086 35.208 90.478 35.208C89.8913 35.208 89.342 35.0987 88.83 34.88C88.318 34.656 87.8647 34.3493 87.47 33.96C87.0807 33.5653 86.7767 33.112 86.558 32.6C86.3393 32.088 86.23 31.536 86.23 30.944C86.23 30.3733 86.3367 29.8347 86.55 29.328C86.7633 28.8213 87.0593 28.3787 87.438 28C87.822 27.616 88.2647 27.3173 88.766 27.104C89.2673 26.8853 89.806 26.776 90.382 26.776C91.0113 26.776 91.5633 26.9253 92.038 27.224C92.5127 27.5173 92.8967 27.8987 93.19 28.368L93.142 27ZM90.454 33.904C90.982 33.904 91.438 33.776 91.822 33.52C92.2113 33.2587 92.51 32.9067 92.718 32.464C92.9313 32.0213 93.038 31.5333 93.038 31C93.038 30.456 92.9313 29.9653 92.718 29.528C92.5047 29.0853 92.2033 28.736 91.814 28.48C91.43 28.2187 90.9767 28.088 90.454 28.088C89.926 28.088 89.446 28.2187 89.014 28.48C88.582 28.7413 88.238 29.0933 87.982 29.536C87.7313 29.9733 87.606 30.4613 87.606 31C87.606 31.5387 87.7367 32.0293 87.998 32.472C88.2593 32.9093 88.606 33.2587 89.038 33.52C89.47 33.776 89.942 33.904 90.454 33.904ZM103.157 30.024V35H101.813V30.32C101.813 29.9147 101.714 29.5467 101.517 29.216C101.32 28.8853 101.056 28.624 100.725 28.432C100.394 28.2347 100.026 28.136 99.621 28.136C99.221 28.136 98.853 28.2347 98.517 28.432C98.1863 28.624 97.9223 28.8853 97.725 29.216C97.5277 29.5467 97.429 29.9147 97.429 30.32V35H96.085V27H97.429V28C97.7117 27.6267 98.069 27.3307 98.501 27.112C98.933 26.888 99.4023 26.776 99.909 26.776C100.506 26.776 101.05 26.9227 101.541 27.216C102.037 27.504 102.429 27.8933 102.717 28.384C103.01 28.8747 103.157 29.4213 103.157 30.024ZM110.113 32.888L111.313 33.536C110.95 34.0427 110.489 34.448 109.929 34.752C109.374 35.056 108.771 35.208 108.121 35.208C107.385 35.208 106.713 35.0187 106.105 34.64C105.502 34.2613 105.019 33.7547 104.657 33.12C104.299 32.48 104.121 31.7733 104.121 31C104.121 30.4133 104.225 29.8667 104.433 29.36C104.641 28.848 104.926 28.4 105.289 28.016C105.657 27.6267 106.083 27.3227 106.569 27.104C107.054 26.8853 107.571 26.776 108.121 26.776C108.771 26.776 109.374 26.928 109.929 27.232C110.489 27.536 110.95 27.944 111.313 28.456L110.113 29.104C109.857 28.7893 109.553 28.5467 109.201 28.376C108.849 28.2053 108.489 28.12 108.121 28.12C107.625 28.12 107.174 28.2533 106.769 28.52C106.369 28.7813 106.051 29.1307 105.817 29.568C105.582 30.0053 105.465 30.4827 105.465 31C105.465 31.5173 105.582 31.9947 105.817 32.432C106.057 32.864 106.377 33.2107 106.777 33.472C107.182 33.7333 107.63 33.864 108.121 33.864C108.515 33.864 108.886 33.7733 109.233 33.592C109.579 33.4107 109.873 33.176 110.113 32.888ZM116.136 35.208C115.4 35.208 114.728 35.0187 114.12 34.64C113.518 34.2613 113.035 33.7547 112.672 33.12C112.315 32.48 112.136 31.7733 112.136 31C112.136 30.4133 112.24 29.8667 112.448 29.36C112.656 28.848 112.942 28.4 113.304 28.016C113.672 27.6267 114.099 27.3227 114.584 27.104C115.07 26.8853 115.587 26.776 116.136 26.776C116.739 26.776 117.291 26.8987 117.792 27.144C118.299 27.384 118.731 27.72 119.088 28.152C119.451 28.584 119.72 29.0853 119.896 29.656C120.078 30.2267 120.144 30.8373 120.096 31.488H113.568C113.632 31.9413 113.782 32.3467 114.016 32.704C114.251 33.056 114.55 33.336 114.912 33.544C115.28 33.752 115.688 33.8587 116.136 33.864C116.616 33.864 117.051 33.7413 117.44 33.496C117.83 33.2453 118.144 32.904 118.384 32.472L119.752 32.792C119.432 33.5013 118.95 34.0827 118.304 34.536C117.659 34.984 116.936 35.208 116.136 35.208ZM113.528 30.432H118.744C118.702 29.984 118.558 29.576 118.312 29.208C118.067 28.8347 117.755 28.536 117.376 28.312C116.998 28.088 116.584 27.976 116.136 27.976C115.688 27.976 115.278 28.0853 114.904 28.304C114.531 28.5227 114.222 28.8187 113.976 29.192C113.736 29.56 113.587 29.9733 113.528 30.432Z" fill="#0A1519" fill-opacity="0.7"/>
<path d="M31.188 55.432C30.548 55.424 29.948 55.528 29.388 55.744C28.836 55.952 28.384 56.24 28.032 56.608C27.68 56.976 27.504 57.404 27.504 57.892C27.504 58.492 27.668 58.948 27.996 59.26C28.324 59.572 28.764 59.804 29.316 59.956C29.876 60.1 30.5 60.232 31.188 60.352C32.292 60.528 33.312 60.82 34.248 61.228C35.192 61.636 35.948 62.18 36.516 62.86C37.092 63.532 37.38 64.36 37.38 65.344C37.38 66.248 37.14 67.052 36.66 67.756C36.18 68.452 35.536 69.016 34.728 69.448C33.928 69.872 33.044 70.14 32.076 70.252V72.688H30.312V70.252C29.504 70.172 28.736 69.98 28.008 69.676C27.288 69.372 26.66 68.968 26.124 68.464C25.588 67.96 25.2 67.376 24.96 66.712L27.3 65.836C27.436 66.22 27.696 66.564 28.08 66.868C28.472 67.164 28.936 67.396 29.472 67.564C30.016 67.732 30.588 67.816 31.188 67.816C31.828 67.816 32.428 67.712 32.988 67.504C33.556 67.296 34.012 67.008 34.356 66.64C34.708 66.272 34.884 65.84 34.884 65.344C34.884 64.832 34.7 64.412 34.332 64.084C33.972 63.756 33.508 63.496 32.94 63.304C32.38 63.112 31.796 62.968 31.188 62.872C30.012 62.68 28.956 62.4 28.02 62.032C27.092 61.664 26.356 61.148 25.812 60.484C25.276 59.82 25.008 58.956 25.008 57.892C25.008 56.988 25.248 56.184 25.728 55.48C26.208 54.776 26.848 54.212 27.648 53.788C28.456 53.356 29.344 53.088 30.312 52.984V50.512H32.076V52.984C32.86 53.064 33.612 53.256 34.332 53.56C35.06 53.864 35.696 54.268 36.24 54.772C36.784 55.268 37.18 55.86 37.428 56.548L35.064 57.4C34.928 57.008 34.668 56.668 34.284 56.38C33.9 56.084 33.436 55.852 32.892 55.684C32.356 55.516 31.788 55.432 31.188 55.432ZM42.1226 70L45.5186 64.12C44.7106 64.272 43.9226 64.24 43.1546 64.024C42.3946 63.8 41.7106 63.436 41.1026 62.932C40.4946 62.42 40.0106 61.8 39.6506 61.072C39.2906 60.344 39.1106 59.544 39.1106 58.672C39.1106 57.88 39.2586 57.136 39.5546 56.44C39.8586 55.736 40.2746 55.12 40.8026 54.592C41.3306 54.056 41.9426 53.64 42.6386 53.344C43.3426 53.04 44.0946 52.888 44.8946 52.888C45.9426 52.888 46.9026 53.148 47.7746 53.668C48.6466 54.188 49.3426 54.888 49.8626 55.768C50.3826 56.64 50.6426 57.608 50.6426 58.672C50.6426 59.224 50.5746 59.728 50.4386 60.184C50.3106 60.64 50.1066 61.12 49.8266 61.624L45.0146 70H42.1226ZM44.8706 61.948C45.5106 61.948 46.0786 61.796 46.5746 61.492C47.0706 61.18 47.4586 60.776 47.7386 60.28C48.0266 59.776 48.1706 59.236 48.1706 58.66C48.1706 58.036 48.0186 57.476 47.7146 56.98C47.4106 56.484 47.0066 56.092 46.5026 55.804C46.0066 55.516 45.4706 55.372 44.8946 55.372C44.2546 55.372 43.6866 55.528 43.1906 55.84C42.6946 56.152 42.3026 56.56 42.0146 57.064C41.7266 57.56 41.5826 58.092 41.5826 58.66C41.5826 59.26 41.7266 59.812 42.0146 60.316C42.3106 60.812 42.7066 61.208 43.2026 61.504C43.6986 61.8 44.2546 61.948 44.8706 61.948ZM52.3116 71.344L53.0556 67.288H55.5516L53.9676 71.344H52.3116ZM63.468 70.312C62.396 70.312 61.416 70.048 60.528 69.52C59.64 68.984 58.928 68.272 58.392 67.384C57.864 66.488 57.6 65.5 57.6 64.42C57.6 63.844 57.668 63.324 57.804 62.86C57.94 62.396 58.148 61.908 58.428 61.396L63.156 53.2H66.06L62.784 58.864C63.448 58.736 64.096 58.732 64.728 58.852C65.368 58.964 65.968 59.184 66.528 59.512C67.088 59.832 67.58 60.24 68.004 60.736C68.436 61.224 68.772 61.78 69.012 62.404C69.252 63.028 69.372 63.7 69.372 64.42C69.372 65.228 69.216 65.988 68.904 66.7C68.6 67.412 68.176 68.04 67.632 68.584C67.096 69.12 66.468 69.544 65.748 69.856C65.036 70.16 64.276 70.312 63.468 70.312ZM63.468 67.816C64.124 67.816 64.708 67.656 65.22 67.336C65.732 67.016 66.136 66.596 66.432 66.076C66.728 65.556 66.876 65.004 66.876 64.42C66.876 63.804 66.724 63.24 66.42 62.728C66.124 62.216 65.72 61.808 65.208 61.504C64.696 61.192 64.124 61.036 63.492 61.036C62.836 61.036 62.252 61.196 61.74 61.516C61.228 61.836 60.824 62.252 60.528 62.764C60.24 63.276 60.096 63.828 60.096 64.42C60.096 65.068 60.252 65.648 60.564 66.16C60.884 66.672 61.3 67.076 61.812 67.372C62.324 67.668 62.876 67.816 63.468 67.816ZM78.2496 70V65.704H71.0616V63.196L77.6496 53.2H80.7456V63.208H82.2816V65.704H80.7456V70H78.2496ZM73.9656 63.196L78.2496 63.208L78.2256 56.644L73.9656 63.196ZM85.1708 70L93.4148 55.696H84.1988V53.2H96.3068V55.696L88.0388 70H85.1708ZM99.0649 70.312C98.6969 70.312 98.3849 70.184 98.1289 69.928C97.8809 69.672 97.7569 69.36 97.7569 68.992C97.7569 68.632 97.8809 68.324 98.1289 68.068C98.3849 67.812 98.6969 67.684 99.0649 67.684C99.4329 67.684 99.7449 67.812 100.001 68.068C100.257 68.324 100.385 68.632 100.385 68.992C100.385 69.36 100.257 69.672 100.001 69.928C99.7449 70.184 99.4329 70.312 99.0649 70.312ZM109.072 70.312C108.08 70.312 107.184 70.088 106.384 69.64C105.592 69.184 104.908 68.556 104.332 67.756C103.756 66.956 103.316 66.032 103.012 64.984C102.708 63.928 102.556 62.8 102.556 61.6C102.556 60.4 102.708 59.272 103.012 58.216C103.316 57.16 103.756 56.236 104.332 55.444C104.908 54.644 105.592 54.02 106.384 53.572C107.184 53.116 108.08 52.888 109.072 52.888C110.048 52.888 110.936 53.116 111.736 53.572C112.536 54.02 113.216 54.644 113.776 55.444C114.344 56.236 114.78 57.16 115.084 58.216C115.388 59.272 115.54 60.4 115.54 61.6C115.54 62.8 115.388 63.928 115.084 64.984C114.78 66.032 114.344 66.956 113.776 67.756C113.216 68.556 112.536 69.184 111.736 69.64C110.936 70.088 110.048 70.312 109.072 70.312ZM109.072 67.816C109.992 67.816 110.756 67.528 111.364 66.952C111.98 66.368 112.44 65.604 112.744 64.66C113.048 63.716 113.2 62.696 113.2 61.6C113.2 60.448 113.04 59.404 112.72 58.468C112.408 57.524 111.944 56.776 111.328 56.224C110.72 55.664 109.968 55.384 109.072 55.384C108.36 55.384 107.74 55.552 107.212 55.888C106.692 56.224 106.26 56.684 105.916 57.268C105.58 57.852 105.324 58.516 105.148 59.26C104.98 60.004 104.896 60.784 104.896 61.6C104.896 62.696 105.052 63.716 105.364 64.66C105.676 65.604 106.14 66.368 106.756 66.952C107.38 67.528 108.152 67.816 109.072 67.816ZM123.041 70.312C122.049 70.312 121.153 70.088 120.353 69.64C119.561 69.184 118.877 68.556 118.301 67.756C117.725 66.956 117.285 66.032 116.981 64.984C116.677 63.928 116.525 62.8 116.525 61.6C116.525 60.4 116.677 59.272 116.981 58.216C117.285 57.16 117.725 56.236 118.301 55.444C118.877 54.644 119.561 54.02 120.353 53.572C121.153 53.116 122.049 52.888 123.041 52.888C124.017 52.888 124.905 53.116 125.705 53.572C126.505 54.02 127.185 54.644 127.745 55.444C128.313 56.236 128.749 57.16 129.053 58.216C129.357 59.272 129.509 60.4 129.509 61.6C129.509 62.8 129.357 63.928 129.053 64.984C128.749 66.032 128.313 66.956 127.745 67.756C127.185 68.556 126.505 69.184 125.705 69.64C124.905 70.088 124.017 70.312 123.041 70.312ZM123.041 67.816C123.961 67.816 124.725 67.528 125.333 66.952C125.949 66.368 126.409 65.604 126.713 64.66C127.017 63.716 127.169 62.696 127.169 61.6C127.169 60.448 127.009 59.404 126.689 58.468C126.377 57.524 125.913 56.776 125.297 56.224C124.689 55.664 123.937 55.384 123.041 55.384C122.329 55.384 121.709 55.552 121.181 55.888C120.661 56.224 120.229 56.684 119.885 57.268C119.549 57.852 119.293 58.516 119.117 59.26C118.949 60.004 118.865 60.784 118.865 61.6C118.865 62.696 119.021 63.716 119.333 64.66C119.645 65.604 120.109 66.368 120.725 66.952C121.349 67.528 122.121 67.816 123.041 67.816Z" fill="#0A1519"/>
<rect x="139" y="47" width="53" height="26" rx="13" fill="#21AA5B"/>
<path d="M150.06 63.4V60.82H147.48V59.98H150.06V57.4H150.9V59.98H153.48V60.82H150.9V63.4H150.06ZM157.117 64.156C156.625 64.156 156.175 64.044 155.767 63.82C155.363 63.596 155.041 63.296 154.801 62.92C154.561 62.544 154.441 62.126 154.441 61.666C154.441 61.218 154.565 60.81 154.813 60.442C155.061 60.07 155.383 59.782 155.779 59.578C155.451 59.39 155.181 59.134 154.969 58.81C154.757 58.482 154.651 58.122 154.651 57.73C154.651 57.31 154.761 56.928 154.981 56.584C155.205 56.236 155.503 55.96 155.875 55.756C156.251 55.548 156.665 55.444 157.117 55.444C157.569 55.444 157.981 55.548 158.353 55.756C158.729 55.96 159.027 56.236 159.247 56.584C159.471 56.928 159.583 57.31 159.583 57.73C159.583 58.122 159.477 58.482 159.265 58.81C159.057 59.134 158.787 59.39 158.455 59.578C158.859 59.782 159.183 60.07 159.427 60.442C159.675 60.81 159.799 61.218 159.799 61.666C159.799 62.122 159.677 62.54 159.433 62.92C159.193 63.296 158.871 63.596 158.467 63.82C158.063 64.044 157.613 64.156 157.117 64.156ZM157.117 63.316C157.449 63.316 157.749 63.242 158.017 63.094C158.285 62.946 158.499 62.748 158.659 62.5C158.819 62.248 158.899 61.97 158.899 61.666C158.899 61.362 158.819 61.086 158.659 60.838C158.499 60.59 158.285 60.392 158.017 60.244C157.749 60.096 157.449 60.022 157.117 60.022C156.793 60.022 156.495 60.096 156.223 60.244C155.955 60.392 155.739 60.59 155.575 60.838C155.415 61.086 155.335 61.362 155.335 61.666C155.335 61.97 155.415 62.248 155.575 62.5C155.739 62.748 155.955 62.946 156.223 63.094C156.495 63.242 156.793 63.316 157.117 63.316ZM157.117 59.182C157.409 59.182 157.673 59.118 157.909 58.99C158.145 58.858 158.333 58.682 158.473 58.462C158.617 58.242 158.689 57.998 158.689 57.73C158.689 57.462 158.617 57.22 158.473 57.004C158.333 56.784 158.145 56.61 157.909 56.482C157.673 56.35 157.409 56.284 157.117 56.284C156.829 56.284 156.565 56.35 156.325 56.482C156.089 56.61 155.899 56.784 155.755 57.004C155.615 57.22 155.545 57.462 155.545 57.73C155.545 57.998 155.615 58.242 155.755 58.462C155.899 58.682 156.089 58.858 156.325 58.99C156.565 59.118 156.829 59.182 157.117 59.182ZM161.231 64.156C161.099 64.156 160.987 64.108 160.895 64.012C160.803 63.92 160.757 63.806 160.757 63.67C160.757 63.542 160.803 63.432 160.895 63.34C160.987 63.244 161.099 63.196 161.231 63.196C161.367 63.196 161.481 63.244 161.573 63.34C161.669 63.432 161.717 63.542 161.717 63.67C161.717 63.806 161.669 63.92 161.573 64.012C161.481 64.108 161.367 64.156 161.231 64.156ZM165.608 64.156C165.096 64.156 164.63 64.032 164.21 63.784C163.794 63.536 163.464 63.204 163.22 62.788C162.976 62.368 162.854 61.908 162.854 61.408H163.694C163.694 61.756 163.78 62.076 163.952 62.368C164.124 62.656 164.354 62.886 164.642 63.058C164.934 63.23 165.256 63.316 165.608 63.316C165.956 63.316 166.274 63.23 166.562 63.058C166.85 62.886 167.08 62.656 167.252 62.368C167.428 62.076 167.516 61.756 167.516 61.408C167.516 61.056 167.432 60.736 167.264 60.448C167.1 60.156 166.866 59.924 166.562 59.752C166.262 59.576 165.904 59.488 165.488 59.488H163.448L164.24 55.6H168.17V56.44H164.918L164.48 58.648L165.458 58.654C166.03 58.662 166.532 58.784 166.964 59.02C167.4 59.256 167.74 59.58 167.984 59.992C168.232 60.4 168.356 60.872 168.356 61.408C168.356 61.784 168.284 62.138 168.14 62.47C168 62.802 167.802 63.096 167.546 63.352C167.294 63.604 167.002 63.802 166.67 63.946C166.342 64.086 165.988 64.156 165.608 64.156ZM172.297 64.156C171.793 64.156 171.343 64.044 170.947 63.82C170.551 63.592 170.213 63.278 169.933 62.878C169.653 62.478 169.439 62.016 169.291 61.492C169.147 60.964 169.075 60.4 169.075 59.8C169.075 59.2 169.147 58.636 169.291 58.108C169.439 57.58 169.653 57.118 169.933 56.722C170.213 56.322 170.551 56.01 170.947 55.786C171.343 55.558 171.793 55.444 172.297 55.444C172.797 55.444 173.245 55.558 173.641 55.786C174.037 56.01 174.373 56.322 174.649 56.722C174.925 57.118 175.135 57.58 175.279 58.108C175.427 58.636 175.501 59.2 175.501 59.8C175.501 60.4 175.427 60.964 175.279 61.492C175.135 62.016 174.925 62.478 174.649 62.878C174.373 63.278 174.037 63.592 173.641 63.82C173.245 64.044 172.797 64.156 172.297 64.156ZM172.297 63.316C172.825 63.316 173.267 63.154 173.623 62.83C173.983 62.506 174.253 62.078 174.433 61.546C174.613 61.01 174.703 60.428 174.703 59.8C174.703 59.136 174.609 58.54 174.421 58.012C174.237 57.48 173.965 57.06 173.605 56.752C173.249 56.44 172.813 56.284 172.297 56.284C171.889 56.284 171.533 56.378 171.229 56.566C170.925 56.754 170.673 57.012 170.473 57.34C170.273 57.668 170.123 58.044 170.023 58.468C169.923 58.888 169.873 59.332 169.873 59.8C169.873 60.432 169.965 61.016 170.149 61.552C170.333 62.084 170.605 62.512 170.965 62.836C171.325 63.156 171.769 63.316 172.297 63.316ZM176.793 64L181.641 55.6H182.613L177.765 64H176.793ZM177.777 58.882C177.513 58.882 177.273 58.818 177.057 58.69C176.841 58.562 176.667 58.39 176.535 58.174C176.407 57.954 176.343 57.712 176.343 57.448C176.343 57.176 176.407 56.932 176.535 56.716C176.667 56.5 176.841 56.328 177.057 56.2C177.277 56.072 177.517 56.008 177.777 56.008C178.041 56.008 178.281 56.074 178.497 56.206C178.713 56.334 178.885 56.506 179.013 56.722C179.145 56.938 179.211 57.18 179.211 57.448C179.211 57.716 179.145 57.958 179.013 58.174C178.885 58.39 178.711 58.562 178.491 58.69C178.275 58.818 178.037 58.882 177.777 58.882ZM177.777 58.24C178.001 58.24 178.189 58.164 178.341 58.012C178.493 57.856 178.569 57.668 178.569 57.448C178.569 57.224 178.493 57.036 178.341 56.884C178.189 56.728 178.001 56.65 177.777 56.65C177.557 56.65 177.369 56.728 177.213 56.884C177.061 57.036 176.985 57.224 176.985 57.448C176.985 57.668 177.061 57.856 177.213 58.012C177.369 58.164 177.557 58.24 177.777 58.24ZM181.641 63.598C181.377 63.598 181.135 63.532 180.915 63.4C180.699 63.264 180.525 63.088 180.393 62.872C180.265 62.652 180.201 62.414 180.201 62.158C180.201 61.89 180.267 61.648 180.399 61.432C180.531 61.212 180.705 61.038 180.921 60.91C181.141 60.782 181.381 60.718 181.641 60.718C181.909 60.718 182.151 60.784 182.367 60.916C182.583 61.048 182.755 61.224 182.883 61.444C183.011 61.66 183.075 61.898 183.075 62.158C183.075 62.422 183.011 62.664 182.883 62.884C182.755 63.1 182.581 63.274 182.361 63.406C182.145 63.534 181.905 63.598 181.641 63.598ZM181.641 62.956C181.857 62.956 182.043 62.878 182.199 62.722C182.355 62.566 182.433 62.378 182.433 62.158C182.433 61.938 182.355 61.75 182.199 61.594C182.043 61.438 181.857 61.36 181.641 61.36C181.421 61.36 181.231 61.438 181.071 61.594C180.915 61.75 180.837 61.938 180.837 62.158C180.837 62.378 180.915 62.566 181.071 62.722C181.231 62.878 181.421 62.956 181.641 62.956Z" fill="white"/>
</svg>
