<svg width="512" height="512" viewBox="0 0 512 512" fill="none" xmlns="http://www.w3.org/2000/svg">
<g clip-path="url(#clip0_2_35474)">
<path fill-rule="evenodd" clip-rule="evenodd" d="M630.7 520.87H-113.4V0H630.7V520.87Z" fill="#BA0000"/>
<path fill-rule="evenodd" clip-rule="evenodd" d="M248.08 252.07C248.08 252.07 195.58 229.46 203.07 170.87C210.35 142.66 223.23 123.48 246.61 113.05C257.562 109.868 268.829 107.897 280.21 107.17C277.13 109.97 274.61 112.84 273.35 116.41C270.83 122.85 272.65 129.01 276.01 135.17C280.376 142.496 282.965 150.743 283.57 159.25C284.338 165.768 283.37 172.373 280.764 178.396C278.158 184.42 274.007 189.647 268.73 193.55C262.01 198.66 254.03 200.48 247.59 206.36C242.328 211.163 239.036 217.748 238.35 224.84C238.14 241.22 242.62 243.53 248.08 252.14V252.07Z" fill="white"/>
<path fill-rule="evenodd" clip-rule="evenodd" d="M238.07 167.3V167.09V167.3Z" fill="#BA0000"/>
<path d="M238.07 167.3V167.09" stroke="black" stroke-width="2.17"/>
<path d="M241.43 245.98C220.99 227.92 222.74 182.49 238.35 167.3" stroke="#BA0000" stroke-width="2.17"/>
<path fill-rule="evenodd" clip-rule="evenodd" d="M237.93 156.1L244.65 154.63L245.42 148.05L248.78 153.65L255.5 152.18L250.88 157.15L254.24 162.75L247.94 160.23L243.32 165.2L244.16 158.69" fill="#BA0000"/>
<path fill-rule="evenodd" clip-rule="evenodd" d="M252.56 248.22C252.56 248.22 258.79 191.38 316.96 181.44C346.08 180.11 368.2 186.83 385.07 206.08C391.294 215.616 396.458 225.803 400.47 236.46C396.9 234.36 393.47 232.82 389.62 232.61C382.76 232.12 377.44 235.69 372.54 240.66C366.94 246.82 360.64 251.37 351.68 254.94C345.678 257.57 339.089 258.573 332.577 257.848C326.064 257.123 319.857 254.696 314.58 250.81C307.65 245.91 303.66 238.84 296.1 234.36C289.971 230.728 282.711 229.505 275.73 230.93C259.98 235.62 259.14 240.52 252.49 248.22H252.56Z" fill="white"/>
<path fill-rule="evenodd" clip-rule="evenodd" d="M330.68 213.85L330.89 213.78L330.68 213.85Z" fill="#BA0000"/>
<path d="M330.68 213.85L330.89 213.78" stroke="black" stroke-width="2.17"/>
<path d="M256.41 240.1C267.68 215.25 311.71 203.7 330.75 214.06" stroke="#BA0000" stroke-width="2.17"/>
<path fill-rule="evenodd" clip-rule="evenodd" d="M341.32 210.42L344.68 216.44L351.19 215.25L346.85 220.15L350.28 226.1L344.12 223.09L339.71 227.99L340.34 221.27L334.18 218.26L340.69 217.14" fill="#BA0000"/>
<path fill-rule="evenodd" clip-rule="evenodd" d="M256.48 252.35C256.48 252.35 312.34 240.17 340.27 292.25C350.77 319.41 351.47 342.51 338.52 364.63C331.52 373.73 323.33 381.43 314.58 388.85C315.42 384.79 315.77 381.01 314.79 377.37C313.11 370.72 308 366.8 301.7 363.72C293.901 360.31 287.017 355.105 281.61 348.53C277.194 343.674 274.137 337.738 272.748 331.322C271.359 324.907 271.688 318.238 273.7 311.99C276.15 303.87 281.61 297.78 283.43 289.24C284.936 282.263 283.788 274.976 280.21 268.8C270.83 255.43 265.86 256.2 256.41 252.35H256.48Z" fill="white"/>
<path fill-rule="evenodd" clip-rule="evenodd" d="M313.88 315.49L314.02 315.7L313.88 315.49Z" fill="#BA0000"/>
<path d="M313.88 315.49L314.02 315.7" stroke="black" stroke-width="2.17"/>
<path d="M265.37 253.4C292.53 256.2 317.52 294.28 313.67 315.63" stroke="#BA0000" stroke-width="2.17"/>
<path fill-rule="evenodd" clip-rule="evenodd" d="M320.46 324.52L315.91 329.63L319.06 335.44L313.04 332.78L308.49 337.96L309.4 331.17L303.38 328.58L309.89 327.04L310.8 320.25L313.95 326.06" fill="#BA0000"/>
<path fill-rule="evenodd" clip-rule="evenodd" d="M255.22 258.09C255.22 258.09 282.52 308.28 240.45 349.79C217.28 367.43 195.3 374.57 170.45 368.34C159.74 364.28 150.08 358.54 140.49 352.24C144.55 351.89 148.33 351.19 151.55 349.16C157.43 345.66 159.81 339.71 161 332.78C162.062 324.326 165.109 316.243 169.89 309.19C173.319 303.589 178.169 298.993 183.947 295.871C189.725 292.748 196.226 291.209 202.79 291.41C211.19 291.48 218.61 294.98 227.29 294.35C234.424 293.85 241.114 290.705 246.05 285.53C256.27 272.72 254.17 268.17 255.15 258.09H255.22Z" fill="white"/>
<path fill-rule="evenodd" clip-rule="evenodd" d="M210.7 330.89L210.56 331.1L210.7 330.89Z" fill="#BA0000"/>
<path d="M210.7 330.89L210.56 331.1" stroke="black" stroke-width="2.17"/>
<path d="M256.69 266.98C261.59 293.79 232.12 328.44 210.49 330.75" stroke="#BA0000" stroke-width="2.17"/>
<path fill-rule="evenodd" clip-rule="evenodd" d="M203.91 339.78L197.68 336.84L192.99 341.53L193.83 335.02L187.6 332.08L194.39 331.03L195.16 324.52L198.52 330.4L205.24 329.35L200.55 333.97" fill="#BA0000"/>
<path fill-rule="evenodd" clip-rule="evenodd" d="M248.99 256.97C248.99 256.97 210.7 299.46 157.64 273.49C133.28 257.53 119.21 239.19 116.83 213.71C117.11 202.3 119.35 191.24 122.08 180.11C123.83 183.82 125.65 187.11 128.66 189.49C133.91 193.9 140.35 194.18 147.21 192.99C155.537 191.188 164.172 191.379 172.41 193.55C178.826 194.921 184.767 197.96 189.634 202.359C194.5 206.759 198.121 212.364 200.13 218.61C202.93 226.66 202.02 234.71 205.52 242.76C208.377 249.3 213.568 254.541 220.08 257.46C235.48 262.85 239.12 259.42 248.99 256.97Z" fill="white"/>
<path fill-rule="evenodd" clip-rule="evenodd" d="M165.48 239.19H165.27H165.48Z" fill="#BA0000"/>
<path d="M165.48 239.19H165.27" stroke="black" stroke-width="2.17"/>
<path d="M241.08 261.38C217.42 274.89 174.93 258.58 165.62 238.98" stroke="#BA0000" stroke-width="2.17"/>
<path fill-rule="evenodd" clip-rule="evenodd" d="M154.84 235.76L155.54 228.9L149.66 226.1L156.03 224.7L156.73 217.84L160.02 223.86L166.32 222.46L161.98 227.57L165.2 233.59L159.25 230.72" fill="#BA0000"/>
</g>
<defs>
<clipPath id="clip0_2_35474">
<rect width="512" height="512" fill="white"/>
</clipPath>
</defs>
</svg>
