<svg width="512" height="512" viewBox="0 0 512 512" fill="none" xmlns="http://www.w3.org/2000/svg">
<g clip-path="url(#clip0_2_35503)">
<path d="M0 0H512V512H0V0Z" fill="#171796"/>
<path d="M0 0H512V341.3H0V0Z" fill="white"/>
<path d="M0 0H512V170.7H0V0Z" fill="#FF0000"/>
<path d="M256 388.4C282.382 388.347 307.67 377.851 326.334 359.205C344.999 340.559 355.521 315.282 355.6 288.9V170.6H156.5V289C156.579 315.365 167.088 340.627 185.73 359.27C204.373 377.913 229.635 388.421 256 388.5V388.4Z" fill="#FF0000"/>
<path d="M256 386.8C281.87 386.721 306.659 376.416 324.962 358.132C343.264 339.849 353.595 315.07 353.7 289.2V172.5H158.4V289.2C158.505 315.053 168.822 339.817 187.103 358.097C205.383 376.378 230.147 386.695 256 386.8Z" fill="white"/>
<path d="M199.6 176.2H162V217.5H199.6V176.2ZM199.6 258.8H237.2V217.5H199.6V258.8ZM162 289C162 292.7 162.3 296.4 162.7 300H199.6V258.8H162V289ZM274.8 258.8H237.2V300H274.8V258.8ZM274.8 341.3H312.3V300H274.7L274.8 341.3ZM312.3 363.9C320.662 357.601 327.926 349.965 333.8 341.3H312.3V364V363.9ZM199.6 341.3H237.2V300H199.6V341.3ZM178.1 341.3C183.974 349.965 191.238 357.601 199.6 363.9V341.3H178.1ZM262.5 382.6C266.6 382.302 270.675 381.734 274.7 380.9V341.3H237.2V381C241.225 381.836 245.3 382.404 249.4 382.7C253.8 383 258.1 383 262.5 382.7V382.6ZM349.2 300C349.6 296.4 349.9 292.7 349.9 289V258.8H312.3V300H349.2ZM274.8 258.8H312.3V217.5H274.7L274.8 258.8ZM274.8 176.2H237.2V217.5H274.8V176.2ZM349.8 217.5V176.2H312.3V217.5H349.8Z" fill="#FF0000"/>
<path d="M352 169.4L375.3 116.6L357.5 88L328.1 99L307.5 75.3L280.3 90.9L256 71L231.7 90.8L204.5 75.2L184 98.8L154.5 88L136.7 116.7L160 169.5C190.167 155.872 222.898 148.848 256 148.9C290.2 148.9 322.7 156.3 352 169.5V169.4Z" fill="white"/>
<path d="M184.5 101.2L155.3 90.3999L139 116.8L145.3 131L161.1 167C173.022 161.714 185.365 157.432 198 154.2L184.5 101.2Z" fill="#0093DD"/>
<path d="M182.9 127.2C183.963 129.237 184.512 131.502 184.5 133.8C184.5 141.7 178.1 148.1 170.2 148.1C166.897 148.095 163.698 146.946 161.146 144.85C158.594 142.754 156.847 139.839 156.2 136.6C157.446 138.819 159.261 140.665 161.458 141.948C163.655 143.232 166.155 143.905 168.7 143.9C170.79 143.915 172.857 143.472 174.757 142.602C176.657 141.732 178.343 140.456 179.697 138.864C181.051 137.272 182.039 135.402 182.592 133.387C183.146 131.372 183.251 129.26 182.9 127.2Z" fill="white" stroke="black" stroke-width="0.3"/>
<path d="M169.8 107.5V107.7L168.8 112.9L172.7 116.3L172.9 116.4L172.6 116.5L167.7 118.2L166.7 123.3V123.6L166.5 123.4L162.5 120L157.6 121.7H157.4V121.5L158.4 116.4L154.5 113L154.3 112.8H154.5L159.5 111L160.5 106V105.7L160.7 105.8L164.7 109.3L169.6 107.6L169.8 107.5Z" fill="black"/>
<path d="M163.9 114.8L167.6 118L172.2 116.4L163.9 114.8ZM163.9 114.6L172.2 116.2L168.5 113L163.9 114.6ZM155 112.9L163.3 114.5L159.6 111.3L155 112.9ZM163.3 114.6L155 113L158.6 116.2L163.3 114.6ZM163.7 114.3L169.3 108L164.7 109.5L163.7 114.3ZM157.7 121.2L163.3 114.8L158.7 116.4L157.7 121.2ZM163.5 114.9L157.9 121.3L162.5 119.7L163.5 114.9ZM169.4 108.1L163.9 114.4L168.5 112.9L169.4 108.1ZM163.4 114.4L160.7 106.4L159.7 111.1L163.4 114.4ZM166.4 122.9L163.6 114.9L162.6 119.7L166.4 122.9ZM163.8 114.9L166.5 122.9L167.5 118.1L163.8 114.9ZM160.8 106.3L163.6 114.3L164.5 109.5L160.8 106.3Z" fill="#F7DB17"/>
<path d="M232 93.2L205 77.8L184.5 101.2L198 154.2C210.63 150.966 223.508 148.792 236.5 147.7L232 93.2Z" fill="#171796"/>
<path d="M194.7 141C208.054 137.605 221.668 135.331 235.4 134.2L234.3 120.4C219.792 121.601 205.408 124.01 191.3 127.6L194.6 141H194.7ZM187.9 114.4C202.729 110.614 217.848 108.072 233.1 106.8L232 93.3C215.972 94.6393 200.083 97.3153 184.5 101.3L187.9 114.3V114.4Z" fill="#FF0000"/>
<path d="M280.626 93.3317L280.567 93.3646L256.489 73.6458L232.462 93.3241L236.986 147.871C243.419 147.34 249.922 147.056 256.489 147.056C263.088 147.056 269.62 147.342 276.082 147.878L280.623 93.3317H280.626Z" fill="#0093DD"/>
<path d="M256.439 117.86C256.393 117.855 256.328 117.885 256.264 117.974C255.794 118.606 255.356 119.16 254.885 119.795C254.392 119.95 254.273 120.251 254.463 120.676C253.803 120.61 253.727 121.164 253.699 121.769C253.066 120.81 252.378 120.549 251.639 120.992C251.612 120.41 251.166 120.137 250.529 120C250.073 119.975 249.722 119.836 249.426 119.634C249.274 119.527 249.147 119.472 248.996 119.365C248.677 119.143 248.424 119.353 248.56 119.553C249.236 120.651 249.914 121.749 250.59 122.847C250.554 123.049 250.605 123.229 250.812 123.363C250.931 123.699 251.047 124.033 251.166 124.367C251.139 124.463 251.113 124.557 251.085 124.653C250.526 124.387 249.965 124.355 249.405 124.317C248.975 124.296 248.679 124.19 248.492 123.97C248.356 123.811 248.262 123.904 248.259 124.177C248.252 125.528 248.669 126.743 249.775 127.952C249.19 127.962 248.606 127.98 248.019 128.005C247.819 128.02 247.779 128.104 247.834 128.268C248.153 129.038 248.692 129.733 249.914 130.206C249.388 130.49 249.087 130.927 249.011 131.522C248.988 132.089 248.821 132.488 248.474 132.673C248.323 132.754 248.27 132.838 248.414 132.941C249.054 133.409 249.843 133.43 250.678 133.225C250.281 133.908 250.106 134.624 250.177 135.375C250.703 135.517 251.219 135.413 251.731 135.244C251.657 135.398 251.619 135.686 251.599 136.025C251.581 136.316 251.495 136.605 251.336 136.893C251.255 136.977 251.171 137.106 251.346 137.151C252.196 137.381 252.985 137.283 253.661 137.032C253.661 137.647 253.666 138.264 253.853 138.872C253.899 139.018 254.03 139.13 254.169 138.937C254.562 138.396 254.984 137.936 255.503 137.629C255.581 137.857 255.693 138.054 255.897 138.173C256.14 138.313 256.269 138.603 256.285 139.041C256.285 139.117 256.279 139.193 256.373 139.269C256.75 139.287 257.674 138.307 257.863 137.758C258.384 138.065 258.582 138.381 258.974 138.925C259.113 139.117 259.224 138.998 259.298 138.862C259.455 138.247 259.467 137.645 259.465 137.03C260.14 137.28 260.93 137.379 261.78 137.149C261.954 137.101 261.871 136.972 261.79 136.891C261.633 136.602 261.524 136.258 261.504 135.967C261.481 135.631 261.469 135.395 261.395 135.241C261.906 135.413 262.42 135.514 262.949 135.373C263.022 134.621 262.814 133.908 262.415 133.222C263.25 133.425 264.072 133.407 264.712 132.939C264.856 132.835 264.801 132.752 264.651 132.671C264.307 132.486 264.138 132.086 264.115 131.519C264.039 130.925 263.738 130.485 263.212 130.204C264.434 129.731 264.973 129.032 265.291 128.266C265.347 128.099 265.307 128.015 265.107 128.003C264.522 127.977 263.892 127.942 263.308 127.934C264.413 126.725 264.841 125.503 264.836 124.152C264.833 123.879 264.74 123.783 264.603 123.945C264.416 124.165 264.15 124.291 263.723 124.314C263.161 124.352 262.622 124.375 262.063 124.638C262.035 124.542 262.01 124.448 261.982 124.352C262.098 124.018 262.25 123.694 262.369 123.358C262.577 123.224 262.627 123.046 262.592 122.842C263.267 121.744 263.89 120.646 264.568 119.548C264.704 119.348 264.451 119.138 264.135 119.36C263.983 119.467 263.857 119.522 263.705 119.628C263.409 119.831 263.055 119.967 262.599 119.995C261.964 120.132 261.544 120.418 261.517 121C260.775 120.557 260.09 120.815 259.457 121.776C259.429 121.172 259.353 120.62 258.693 120.683C258.883 120.258 258.736 119.947 258.243 119.793C257.772 119.16 257.084 118.604 256.613 117.971C256.535 117.883 256.484 117.852 256.439 117.857V117.86Z" fill="black"/>
<path d="M262.84 121.384C262.711 121.318 262.526 121.427 262.43 121.625C262.334 121.822 262.346 122.055 262.478 122.12C262.579 122.171 262.69 122.105 262.779 121.979L262.835 121.888C262.84 121.88 262.845 121.872 262.847 121.865C262.943 121.668 262.971 121.453 262.842 121.389L262.84 121.384ZM250.169 121.384C250.301 121.318 250.483 121.427 250.579 121.625C250.675 121.822 250.678 122.042 250.546 122.108C250.415 122.174 250.286 122.047 250.19 121.85C250.094 121.652 250.038 121.45 250.167 121.384H250.169ZM261.653 123.674C261.572 123.674 261.504 123.742 261.504 123.823C261.504 123.904 261.57 123.972 261.653 123.972C261.737 123.972 261.802 123.907 261.802 123.823C261.802 123.742 261.737 123.674 261.653 123.674ZM251.452 123.674C251.413 123.674 251.375 123.69 251.347 123.718C251.319 123.746 251.303 123.784 251.303 123.824C251.303 123.863 251.319 123.901 251.347 123.929C251.375 123.957 251.413 123.973 251.453 123.973C251.492 123.973 251.53 123.957 251.558 123.929C251.586 123.901 251.602 123.863 251.602 123.823C251.602 123.783 251.586 123.745 251.558 123.717C251.53 123.689 251.492 123.674 251.452 123.674ZM262.316 122.905C260.408 122.674 258.506 122.568 256.598 122.568C254.691 122.568 252.78 122.672 250.858 122.859C250.792 122.879 250.805 123.087 250.893 123.077C252.806 122.892 254.706 122.791 256.601 122.791C258.481 122.791 260.358 122.892 262.238 123.117C262.336 123.127 262.374 122.915 262.319 122.905H262.316Z" fill="#F7DB17"/>
<path d="M250.807 122.692C252.75 122.502 254.678 122.396 256.598 122.399C258.506 122.399 260.411 122.505 262.319 122.735L262.599 122.27C262.518 122.295 262.443 122.292 262.372 122.257C262.179 122.161 262.139 121.85 262.281 121.564C262.422 121.275 262.696 121.121 262.888 121.215C262.986 121.263 263.045 121.372 263.06 121.503L264.188 119.633C263.672 119.962 263.358 120.175 262.718 120.271C262.007 120.375 261.684 120.623 261.787 121.048C261.883 121.442 261.643 121.384 261.279 121.184C260.484 120.752 259.91 121.364 259.629 122.077C259.444 122.548 259.227 122.535 259.204 122.045C259.194 121.867 259.204 121.713 259.186 121.539C259.133 120.974 258.961 120.815 258.64 120.972C258.233 121.169 258.197 121.035 258.293 120.825C258.364 120.673 258.511 120.501 258.46 120.266C258.438 120.096 258.293 120.033 258.078 120.018C257.618 119.401 256.897 118.796 256.436 118.179C255.976 118.796 255.49 119.401 255.03 120.018C254.812 120.031 254.67 120.094 254.645 120.266C254.594 120.501 254.777 120.663 254.847 120.815C254.944 121.022 254.906 121.157 254.501 120.959C254.18 120.805 254.03 120.952 253.977 121.516C253.959 121.69 253.952 121.867 253.944 122.045C253.922 122.535 253.704 122.548 253.519 122.077C253.238 121.364 252.629 120.752 251.832 121.184C251.465 121.384 251.318 121.442 251.371 121.048C251.429 120.613 251.101 120.375 250.39 120.271C249.75 120.177 249.436 119.962 248.92 119.633L249.98 121.359C250.01 121.296 250.053 121.245 250.114 121.215C250.306 121.119 250.579 121.275 250.721 121.564C250.863 121.85 250.822 122.163 250.63 122.257C250.605 122.27 250.577 122.277 250.549 122.282L250.802 122.695L250.807 122.692ZM261.911 124.997C261.894 125.005 261.894 125.007 261.851 125.025C261.734 125.073 261.648 125.192 261.512 125.339C261.367 125.49 261.188 125.655 260.978 125.814C260.947 125.84 260.914 125.862 260.866 125.799C260.818 125.736 260.849 125.711 260.882 125.688C261.084 125.531 261.259 125.374 261.398 125.227C261.474 125.146 261.539 125.068 261.592 124.995C261.352 124.967 261.112 124.941 260.874 124.919C260.674 124.979 260.477 125.058 260.312 125.159C260.163 125.248 260.042 125.354 259.966 125.475C259.945 125.511 259.925 125.544 259.854 125.503C259.786 125.463 259.806 125.427 259.827 125.392C259.915 125.245 260.057 125.121 260.226 125.02C260.31 124.969 260.401 124.924 260.494 124.883C260.224 124.86 259.953 124.838 259.682 124.82C259.627 124.853 259.576 124.893 259.528 124.939C259.477 124.987 259.429 125.045 259.386 125.108C259.364 125.141 259.341 125.174 259.275 125.129C259.209 125.083 259.229 125.05 259.255 125.017C259.303 124.944 259.358 124.881 259.417 124.822L259.439 124.8C259.237 124.787 259.032 124.774 258.83 124.764C258.825 124.769 258.817 124.777 258.809 124.782C258.707 124.869 258.627 124.978 258.574 125.101C258.559 125.139 258.544 125.174 258.47 125.146C258.397 125.116 258.412 125.081 258.427 125.043C258.458 124.969 258.496 124.903 258.541 124.838C258.562 124.81 258.587 124.782 258.61 124.754C258.319 124.742 258.028 124.731 257.739 124.724C257.729 124.736 257.717 124.744 257.704 124.752C257.641 124.79 257.585 124.833 257.537 124.881C257.489 124.929 257.448 124.982 257.415 125.04C257.395 125.075 257.375 125.111 257.307 125.07C257.236 125.03 257.256 124.997 257.276 124.962C257.317 124.891 257.365 124.825 257.426 124.767C257.443 124.749 257.461 124.734 257.479 124.719C257.17 124.714 256.861 124.709 256.555 124.709C256.252 124.709 255.948 124.711 255.644 124.716C255.665 124.734 255.682 124.749 255.7 124.767C255.758 124.825 255.806 124.891 255.849 124.962C255.87 124.997 255.89 125.03 255.819 125.07C255.748 125.111 255.73 125.075 255.708 125.04C255.675 124.982 255.634 124.929 255.586 124.881C255.538 124.833 255.483 124.79 255.419 124.752C255.404 124.744 255.389 124.734 255.381 124.721C255.09 124.726 254.799 124.736 254.508 124.749C254.536 124.777 254.559 124.807 254.582 124.838C254.63 124.901 254.665 124.969 254.696 125.043C254.711 125.081 254.726 125.116 254.653 125.146C254.579 125.177 254.564 125.139 254.549 125.101C254.526 125.04 254.493 124.984 254.453 124.931C254.415 124.878 254.367 124.828 254.314 124.782C254.304 124.774 254.296 124.767 254.288 124.757C254.083 124.767 253.878 124.777 253.674 124.79C253.684 124.8 253.696 124.81 253.706 124.82C253.767 124.878 253.82 124.941 253.868 125.015C253.891 125.048 253.914 125.081 253.848 125.126C253.782 125.172 253.76 125.139 253.737 125.106C253.691 125.04 253.646 124.984 253.595 124.936C253.545 124.888 253.491 124.848 253.433 124.812C253.431 124.81 253.426 124.807 253.421 124.805C253.142 124.822 252.864 124.84 252.586 124.863C252.694 124.909 252.801 124.959 252.894 125.017C253.064 125.119 253.208 125.242 253.294 125.389C253.314 125.425 253.335 125.458 253.266 125.501C253.198 125.541 253.178 125.508 253.155 125.473C253.082 125.351 252.958 125.245 252.808 125.156C252.626 125.045 252.406 124.962 252.186 124.898H252.181C251.953 124.916 251.728 124.936 251.503 124.959C251.558 125.043 251.632 125.131 251.72 125.227C251.86 125.374 252.034 125.531 252.237 125.688C252.269 125.711 252.3 125.736 252.252 125.799C252.204 125.862 252.171 125.837 252.14 125.814C251.93 125.652 251.748 125.49 251.607 125.339C251.513 125.242 251.356 125.058 251.265 124.984C250.769 124.757 250.369 124.663 249.81 124.613C249.423 124.577 249.006 124.59 248.652 124.413C248.743 124.628 248.841 124.828 248.97 124.992C249.104 125.164 249.274 125.298 249.499 125.364C249.519 125.369 249.552 125.404 249.555 125.427C249.626 125.824 249.767 126.151 249.982 126.404C250.114 126.556 250.271 126.682 250.458 126.781C250.268 126.576 250.124 126.361 250.023 126.146C249.853 125.786 249.795 125.422 249.828 125.083C249.83 125.043 249.836 125.002 249.914 125.01C249.995 125.017 249.99 125.058 249.987 125.098C249.96 125.409 250.01 125.746 250.17 126.077C250.311 126.376 250.572 126.677 250.906 126.953C250.966 127.001 250.906 127.112 250.832 127.092C250.443 126.981 250.099 126.781 249.863 126.507C249.638 126.244 249.486 125.908 249.408 125.503C249.17 125.422 248.991 125.275 248.846 125.088C248.727 124.936 248.631 124.757 248.548 124.569C248.619 125.652 249.008 126.596 249.701 127.446C249.856 127.636 250.119 127.907 250.347 127.993C250.579 128.081 250.587 128.246 250.296 128.248C250.21 128.251 250.121 128.251 250.03 128.251C250.243 128.329 250.445 128.418 250.62 128.516C250.941 128.701 251.169 128.926 251.187 129.207C251.189 129.247 251.192 129.288 251.113 129.293C251.032 129.298 251.03 129.258 251.027 129.22C251.012 129.002 250.82 128.815 250.541 128.655C250.256 128.491 249.886 128.359 249.524 128.251C249.135 128.251 248.735 128.248 248.363 128.258C248.462 128.329 248.565 128.402 248.695 128.471C248.902 128.582 249.17 128.688 249.562 128.779C249.787 128.833 249.982 128.911 250.152 129.01C250.331 129.116 250.481 129.245 250.6 129.389C250.625 129.42 250.65 129.452 250.587 129.503C250.524 129.554 250.501 129.523 250.473 129.49C250.367 129.359 250.233 129.242 250.071 129.149C249.917 129.058 249.734 128.987 249.524 128.936C249.117 128.84 248.836 128.731 248.619 128.612C248.429 128.511 248.287 128.405 248.153 128.301C248.609 129.296 249.292 129.751 250.266 130.044C250.324 130.062 250.374 130.077 250.42 130.092C250.428 130.095 250.435 130.095 250.443 130.098C250.66 130.151 250.886 130.199 251.116 130.237C251.348 130.275 251.536 130.308 251.776 130.33C251.817 130.333 251.857 130.338 251.849 130.416C251.842 130.497 251.801 130.492 251.763 130.49C251.513 130.467 251.323 130.434 251.09 130.394C250.944 130.368 250.799 130.34 250.658 130.31C250.592 130.325 250.496 130.333 250.387 130.34C249.8 130.376 249.324 130.91 249.287 131.59C249.287 131.603 249.287 131.618 249.284 131.631C249.507 131.428 249.737 131.234 249.975 131.094C250.271 130.922 250.579 130.834 250.896 130.92C250.934 130.93 250.974 130.94 250.951 131.018C250.931 131.097 250.893 131.087 250.853 131.074C250.584 131.003 250.316 131.082 250.053 131.234C249.78 131.393 249.514 131.633 249.256 131.874C249.195 132.246 249.049 132.595 248.738 132.827C248.892 132.913 249.001 132.992 249.15 132.941C249.368 132.843 249.585 132.744 249.81 132.668C250.04 132.59 250.276 132.536 250.524 132.524C250.564 132.521 250.605 132.521 250.607 132.602C250.61 132.683 250.572 132.683 250.529 132.686C250.299 132.696 250.076 132.746 249.861 132.82C249.671 132.886 249.484 132.967 249.299 133.05C249.858 133.169 250.463 133.048 250.987 132.85C251.139 132.795 251.252 132.744 251.323 132.746C251.452 132.671 251.607 132.612 251.758 132.547C251.925 132.476 252.092 132.418 252.219 132.402C252.259 132.397 252.3 132.392 252.307 132.473C252.317 132.554 252.277 132.557 252.237 132.562C251.953 132.595 251.915 132.615 251.675 132.762C251.675 132.815 251.508 132.906 251.356 133.005C251.265 133.065 251.179 133.136 251.136 133.174C250.896 133.392 250.772 133.632 250.66 133.9C250.587 134.077 250.529 134.267 250.488 134.467C250.627 134.194 250.794 133.933 250.997 133.7C251.235 133.427 251.523 133.192 251.87 133.03C251.905 133.012 251.943 132.997 251.976 133.068C252.009 133.141 251.973 133.156 251.938 133.174C251.612 133.326 251.341 133.546 251.118 133.807C250.891 134.067 250.711 134.368 250.564 134.679C250.486 134.841 250.544 134.682 250.458 134.897C250.736 134.588 250.994 134.33 251.275 134.12C251.609 133.867 251.991 133.723 252.333 133.784C252.371 133.791 252.411 133.799 252.398 133.877C252.386 133.956 252.345 133.948 252.305 133.943C252.011 133.89 251.672 134.024 251.371 134.249C251.065 134.482 250.754 134.813 250.445 135.163C250.911 135.228 251.371 135.097 251.817 134.948C252.047 134.872 252.28 134.606 252.421 134.563C252.469 134.502 252.517 134.447 252.565 134.393C252.649 134.3 252.735 134.214 252.823 134.14C252.854 134.115 252.884 134.09 252.937 134.151C252.99 134.211 252.958 134.237 252.927 134.264C252.844 134.335 252.763 134.416 252.684 134.502C252.603 134.591 252.527 134.687 252.452 134.788C252.436 134.808 252.419 134.831 252.391 134.829C252.239 135.006 252.009 135.239 251.956 135.436C251.811 135.967 251.892 136.372 251.647 136.893C251.827 136.797 251.971 136.688 252.09 136.554C252.224 136.402 252.328 136.213 252.414 135.972C252.507 135.709 252.654 135.479 252.836 135.289C253.026 135.094 253.254 134.945 253.496 134.854C253.534 134.841 253.572 134.826 253.6 134.902C253.628 134.978 253.59 134.991 253.552 135.006C253.332 135.087 253.125 135.223 252.95 135.403C252.783 135.575 252.649 135.785 252.563 136.028C252.469 136.286 252.358 136.491 252.206 136.66C252.095 136.787 251.966 136.891 251.811 136.982C251.943 136.974 252.009 136.956 252.118 136.964C252.317 136.949 252.651 136.797 252.823 136.663C252.99 136.534 253.117 136.359 253.213 136.142C253.228 136.104 253.246 136.068 253.319 136.101C253.393 136.134 253.378 136.17 253.36 136.207C253.254 136.45 253.109 136.648 252.922 136.792C252.78 136.901 252.616 136.982 252.426 137.027C252.834 137.015 253.213 136.921 253.608 136.774C253.772 136.713 253.828 136.349 253.929 136.248C254.01 136.101 254.096 135.965 254.195 135.848C254.314 135.707 254.45 135.593 254.61 135.527C254.648 135.512 254.683 135.497 254.713 135.572C254.744 135.646 254.706 135.661 254.67 135.676C254.539 135.729 254.422 135.828 254.319 135.949C254.228 136.056 254.147 136.185 254.071 136.321C254.096 136.506 253.942 136.898 253.937 137.093C253.919 137.612 253.932 138.128 254.071 138.641C254.205 138.462 254.341 138.302 254.481 138.156C254.481 138.143 254.481 138.13 254.483 138.118C254.529 137.849 254.567 137.564 254.584 137.278C254.602 136.994 254.602 136.713 254.569 136.445C254.564 136.405 254.559 136.364 254.637 136.357C254.718 136.347 254.724 136.387 254.726 136.428C254.761 136.708 254.761 136.999 254.744 137.288C254.729 137.516 254.703 137.743 254.668 137.968C254.804 137.839 254.802 137.839 254.863 137.708C254.956 137.505 255.012 137.306 255.032 137.108C255.055 136.906 255.045 136.711 254.999 136.526C254.989 136.488 254.982 136.448 255.06 136.43C255.138 136.412 255.149 136.45 255.156 136.491C255.204 136.693 255.219 136.908 255.192 137.128C255.171 137.293 255.131 137.462 255.068 137.632C255.209 137.526 255.356 137.424 255.518 137.323C255.508 137.133 255.505 136.936 255.51 136.749C255.515 136.577 255.528 136.41 255.556 136.268C255.566 136.218 255.574 136.167 255.675 136.185C255.776 136.202 255.768 136.253 255.758 136.306C255.736 136.433 255.723 136.587 255.718 136.754C255.713 136.951 255.718 137.164 255.728 137.369C255.741 137.576 255.852 137.837 256.044 137.951C256.305 138.108 256.444 138.363 256.515 138.644C256.555 138.277 256.558 137.935 256.522 137.632C256.479 137.27 256.383 136.956 256.234 136.701C256.214 136.665 256.193 136.633 256.264 136.59C256.333 136.549 256.353 136.584 256.373 136.62C256.532 136.898 256.636 137.23 256.682 137.614C256.725 137.984 256.715 138.398 256.649 138.849C256.907 138.641 257.613 138.196 257.539 137.346C257.522 137.278 257.499 137.214 257.469 137.156C257.451 137.121 257.433 137.085 257.504 137.05C257.575 137.015 257.593 137.05 257.61 137.085C257.653 137.169 257.686 137.26 257.709 137.364C257.722 137.424 257.729 137.488 257.737 137.556C257.77 137.538 257.851 137.447 257.866 137.457C257.926 137.498 258.013 137.553 258.068 137.594C258.015 137.442 257.98 137.29 257.962 137.144C257.937 136.923 257.949 136.708 257.997 136.506C258.007 136.468 258.015 136.428 258.093 136.445C258.172 136.463 258.162 136.503 258.154 136.541C258.109 136.726 258.099 136.923 258.121 137.123C258.144 137.318 258.2 137.521 258.291 137.723C258.301 137.743 258.311 137.763 258.303 137.786C258.364 137.839 258.422 137.892 258.481 137.951C258.448 137.738 258.425 137.521 258.41 137.306C258.389 137.015 258.392 136.724 258.427 136.443C258.432 136.402 258.438 136.362 258.516 136.372C258.594 136.382 258.589 136.423 258.584 136.46C258.551 136.729 258.551 137.01 258.569 137.293C258.587 137.579 258.625 137.862 258.67 138.133C258.673 138.138 258.673 138.145 258.673 138.151C258.809 138.3 258.913 138.454 259.057 138.646C259.197 138.133 259.242 137.617 259.224 137.098C259.219 136.906 259.05 136.524 259.06 136.334C258.984 136.195 258.901 136.063 258.807 135.952C258.703 135.828 258.587 135.732 258.455 135.679C258.417 135.664 258.382 135.648 258.41 135.575C258.44 135.502 258.478 135.514 258.513 135.529C258.67 135.595 258.809 135.709 258.928 135.851C259.025 135.965 259.111 136.099 259.189 136.24C259.333 136.258 259.386 136.693 259.551 136.777C259.94 136.921 260.305 137.015 260.697 137.03C260.507 136.982 260.343 136.903 260.203 136.794C260.016 136.65 259.872 136.453 259.766 136.21C259.751 136.172 259.733 136.137 259.806 136.104C259.88 136.071 259.895 136.109 259.913 136.144C260.009 136.362 260.135 136.539 260.302 136.665C260.517 136.832 261.033 136.979 261.314 136.987C261.16 136.893 261.028 136.789 260.917 136.663C260.768 136.493 260.654 136.288 260.56 136.03C260.474 135.79 260.34 135.578 260.173 135.405C260.005 135.23 259.799 135.094 259.571 135.008C259.533 134.993 259.498 134.98 259.523 134.905C259.551 134.831 259.589 134.844 259.627 134.856C259.87 134.948 260.097 135.094 260.287 135.292C260.469 135.479 260.616 135.712 260.709 135.975C260.796 136.215 260.899 136.402 261.033 136.557C261.152 136.693 261.299 136.805 261.481 136.898C261.233 136.374 261.314 135.97 261.172 135.438C261.084 135.112 260.586 134.738 260.684 134.629C260.798 134.5 261.021 134.851 261.312 134.95C261.754 135.099 262.215 135.231 262.678 135.165C262.369 134.816 262.061 134.485 261.752 134.252C261.451 134.024 261.152 133.898 260.861 133.948C260.821 133.956 260.783 133.963 260.768 133.882C260.755 133.804 260.793 133.796 260.833 133.789C261.175 133.728 261.514 133.87 261.848 134.123C262.129 134.335 262.357 134.566 262.635 134.877C262.589 134.758 262.635 134.841 262.559 134.682C262.41 134.371 262.23 134.072 262.002 133.809C261.777 133.551 261.506 133.331 261.183 133.177C261.147 133.159 261.112 133.144 261.145 133.07C261.178 132.999 261.215 133.015 261.251 133.032C261.598 133.197 261.886 133.43 262.124 133.703C262.329 133.938 262.496 134.204 262.637 134.479C262.599 134.275 262.539 134.082 262.465 133.905C262.354 133.637 262.23 133.397 261.99 133.179C261.833 133.037 261.461 132.825 261.463 132.726C261.39 132.688 261.38 132.698 261.304 132.665C261.15 132.6 260.998 132.549 260.889 132.534C260.849 132.529 260.808 132.524 260.818 132.445C260.828 132.364 260.866 132.369 260.907 132.375C261.033 132.39 261.198 132.445 261.367 132.516C261.451 132.552 261.534 132.625 261.615 132.668C261.749 132.678 261.967 132.787 262.141 132.855C262.663 133.053 263.27 133.174 263.826 133.055C263.642 132.972 263.455 132.891 263.262 132.825C263.047 132.752 262.827 132.701 262.594 132.691C262.554 132.688 262.513 132.688 262.516 132.607C262.518 132.526 262.559 132.529 262.599 132.529C262.847 132.539 263.083 132.595 263.313 132.673C263.538 132.749 263.756 132.848 263.973 132.946C264.122 133.015 264.229 132.929 264.386 132.832C264.074 132.6 263.928 132.251 263.867 131.881L263.862 131.876C263.604 131.636 263.338 131.395 263.065 131.236C262.802 131.084 262.534 131.006 262.265 131.077C262.227 131.087 262.187 131.097 262.167 131.021C262.147 130.943 262.184 130.932 262.222 130.922C262.539 130.839 262.847 130.925 263.143 131.097C263.381 131.236 263.614 131.431 263.837 131.636C263.837 131.621 263.834 131.608 263.834 131.593C263.796 130.91 263.32 130.378 262.733 130.343C262.536 130.33 262.255 130.396 262.263 130.262C262.273 130.113 262.508 130.151 262.855 130.044C263.829 129.751 264.512 129.296 264.97 128.299C264.833 128.402 264.692 128.509 264.499 128.612C264.282 128.731 263.998 128.843 263.594 128.936C263.386 128.984 263.204 129.058 263.047 129.149C262.885 129.245 262.751 129.361 262.645 129.49C262.62 129.521 262.594 129.554 262.531 129.503C262.468 129.452 262.496 129.422 262.518 129.389C262.637 129.245 262.787 129.116 262.966 129.01C263.136 128.911 263.333 128.833 263.556 128.779C263.948 128.688 264.216 128.582 264.424 128.471C264.553 128.402 264.656 128.332 264.755 128.258C264.381 128.248 263.983 128.251 263.594 128.251C263.232 128.362 262.863 128.494 262.577 128.655C262.298 128.815 262.106 129 262.091 129.22C262.088 129.26 262.086 129.301 262.005 129.293C261.924 129.288 261.926 129.247 261.931 129.207C261.952 128.926 262.177 128.701 262.498 128.516C262.673 128.418 262.875 128.329 263.088 128.251C262.999 128.251 262.911 128.251 262.825 128.248C262.531 128.243 262.541 128.081 262.774 127.993C263.002 127.907 263.255 127.636 263.409 127.446C264.095 126.601 264.451 125.64 264.563 124.587C264.479 124.769 264.388 124.941 264.272 125.088C264.128 125.273 263.948 125.42 263.71 125.503C263.632 125.908 263.48 126.244 263.255 126.507C263.022 126.781 262.708 126.976 262.321 127.089C262.248 127.11 262.19 127.001 262.248 126.95C262.582 126.674 262.807 126.378 262.951 126.08C263.108 125.748 263.161 125.412 263.133 125.101C263.131 125.06 263.126 125.02 263.207 125.012C263.285 125.005 263.29 125.045 263.293 125.086C263.323 125.425 263.267 125.789 263.095 126.148C262.994 126.363 262.85 126.578 262.66 126.783C262.845 126.685 263.004 126.558 263.133 126.406C263.348 126.153 263.49 125.827 263.563 125.43C263.566 125.409 263.599 125.374 263.619 125.366C263.844 125.298 264.011 125.167 264.148 124.995C264.277 124.83 264.375 124.633 264.467 124.418C264.112 124.592 263.697 124.58 263.31 124.615C262.771 124.663 262.377 124.787 261.909 125L261.911 124.997Z" fill="#F7DB17"/>
<path d="M261.762 124.554C260.042 124.332 258.324 124.268 256.598 124.266C254.868 124.266 253.135 124.367 251.392 124.549C251.341 124.564 251.354 124.633 251.356 124.666C251.361 124.736 251.45 124.754 251.662 124.734C253.289 124.582 254.913 124.499 256.55 124.499C258.255 124.499 259.968 124.552 261.706 124.757C261.79 124.779 261.901 124.542 261.762 124.552V124.554Z" fill="#F7DB17"/>
<path fill-rule="evenodd" clip-rule="evenodd" d="M251.442 124.375C253.17 124.195 254.888 124.096 256.598 124.096C258.306 124.096 260.011 124.198 261.721 124.418L261.8 124.096C261.757 124.119 261.706 124.134 261.653 124.134C261.597 124.134 261.542 124.119 261.493 124.09C261.445 124.062 261.405 124.02 261.379 123.971C261.352 123.921 261.339 123.865 261.342 123.809C261.344 123.753 261.362 123.698 261.393 123.652C261.424 123.605 261.467 123.567 261.518 123.543C261.569 123.518 261.625 123.508 261.681 123.513C261.737 123.518 261.791 123.539 261.836 123.572C261.882 123.605 261.917 123.65 261.939 123.702L262.091 123.272C260.259 123.059 258.432 122.963 256.598 122.963C254.754 122.963 252.907 123.059 251.05 123.234L251.197 123.649C251.252 123.568 251.346 123.512 251.452 123.512C251.535 123.512 251.614 123.545 251.672 123.603C251.731 123.661 251.763 123.741 251.763 123.823C251.763 123.906 251.731 123.985 251.672 124.043C251.614 124.101 251.535 124.134 251.452 124.134C251.422 124.134 251.389 124.129 251.361 124.119L251.445 124.357L251.44 124.375H251.442ZM259.202 123.322C259.119 123.322 259.04 123.355 258.982 123.413C258.923 123.472 258.89 123.551 258.89 123.633C258.89 123.716 258.923 123.795 258.982 123.853C259.04 123.912 259.119 123.945 259.202 123.945C259.284 123.945 259.363 123.912 259.422 123.853C259.48 123.795 259.513 123.716 259.513 123.633C259.513 123.551 259.48 123.472 259.422 123.413C259.363 123.355 259.284 123.322 259.202 123.322ZM259.202 123.484C259.164 123.486 259.128 123.503 259.102 123.531C259.075 123.558 259.061 123.595 259.061 123.633C259.061 123.671 259.075 123.708 259.102 123.736C259.128 123.764 259.164 123.78 259.202 123.783C259.283 123.783 259.351 123.714 259.351 123.633C259.351 123.552 259.285 123.484 259.202 123.484ZM256.464 123.254C256.403 123.254 256.342 123.272 256.291 123.306C256.24 123.34 256.2 123.389 256.177 123.446C256.153 123.503 256.147 123.565 256.159 123.626C256.171 123.686 256.201 123.742 256.244 123.785C256.288 123.829 256.343 123.858 256.403 123.87C256.464 123.882 256.526 123.876 256.583 123.853C256.64 123.829 256.689 123.789 256.723 123.738C256.757 123.687 256.775 123.627 256.775 123.565C256.775 123.393 256.636 123.254 256.464 123.254ZM256.464 123.416C256.425 123.416 256.386 123.432 256.358 123.46C256.33 123.488 256.315 123.526 256.315 123.566C256.315 123.605 256.331 123.643 256.359 123.671C256.387 123.699 256.425 123.715 256.465 123.715C256.504 123.715 256.542 123.699 256.57 123.671C256.598 123.643 256.614 123.605 256.614 123.565C256.614 123.525 256.598 123.487 256.57 123.459C256.542 123.431 256.504 123.416 256.464 123.416ZM253.772 123.315C253.73 123.313 253.689 123.32 253.649 123.334C253.61 123.349 253.574 123.372 253.544 123.401C253.514 123.43 253.49 123.465 253.473 123.503C253.457 123.542 253.448 123.583 253.448 123.625C253.448 123.667 253.457 123.709 253.473 123.747C253.489 123.786 253.513 123.821 253.544 123.85C253.574 123.879 253.61 123.901 253.649 123.916C253.688 123.931 253.73 123.938 253.772 123.936C253.852 123.933 253.928 123.899 253.984 123.841C254.039 123.783 254.071 123.706 254.071 123.626C254.071 123.545 254.04 123.468 253.984 123.41C253.928 123.352 253.853 123.318 253.772 123.315ZM253.772 123.476C253.689 123.476 253.623 123.542 253.623 123.626C253.623 123.709 253.689 123.775 253.772 123.775C253.81 123.773 253.846 123.756 253.872 123.728C253.898 123.701 253.913 123.664 253.913 123.626C253.913 123.588 253.898 123.551 253.872 123.523C253.846 123.495 253.81 123.479 253.772 123.476Z" fill="#F7DB17"/>
<path d="M256.581 121.374C256.545 121.202 256.457 121.048 256.328 120.931C256.198 120.813 256.034 120.734 255.854 120.709C255.771 120.699 255.756 120.562 255.837 120.537C255.989 120.486 256.125 120.367 256.234 120.2C256.348 120.026 256.434 119.803 256.474 119.553C256.487 119.467 256.636 119.464 256.649 119.55C256.687 119.763 256.778 119.937 256.894 120.076C257.033 120.243 257.21 120.36 257.383 120.425C257.461 120.456 257.446 120.585 257.362 120.598C257.213 120.62 257.097 120.704 257.006 120.818C256.879 120.974 256.801 121.184 256.753 121.377C256.732 121.46 256.596 121.455 256.578 121.372L256.581 121.374ZM256.664 121.076C256.715 120.944 256.783 120.815 256.869 120.706C256.94 120.62 257.021 120.544 257.119 120.494C256.99 120.418 256.866 120.317 256.758 120.19C256.687 120.104 256.624 120.005 256.573 119.897C256.525 120.046 256.459 120.18 256.383 120.296C256.305 120.415 256.214 120.514 256.11 120.59C256.236 120.638 256.35 120.709 256.449 120.797C256.535 120.876 256.608 120.969 256.664 121.076ZM258.685 134.017L257.383 134.538C257.34 134.556 257.294 134.573 257.261 134.485C257.226 134.399 257.271 134.381 257.314 134.363L258.617 133.842C258.66 133.824 258.706 133.807 258.739 133.895C258.774 133.981 258.728 133.999 258.685 134.017ZM258.835 133.192L257.307 134.022C257.266 134.044 257.223 134.067 257.178 133.984C257.132 133.9 257.175 133.877 257.216 133.855L258.744 133.025C258.784 133.002 258.827 132.979 258.873 133.063C258.918 133.146 258.875 133.169 258.835 133.192ZM254.215 133.027L255.743 133.857C255.784 133.88 255.827 133.903 255.781 133.986C255.736 134.07 255.695 134.047 255.652 134.024L254.124 133.194C254.083 133.172 254.04 133.149 254.086 133.065C254.131 132.982 254.172 133.005 254.215 133.027ZM254.344 133.842L255.647 134.363C255.692 134.381 255.736 134.399 255.7 134.485C255.665 134.573 255.622 134.556 255.576 134.538L254.273 134.017C254.23 133.999 254.187 133.981 254.22 133.895C254.255 133.807 254.298 133.824 254.341 133.842H254.344ZM254.911 134.94C255.257 135.024 255.571 135.062 255.816 135.019C256.039 134.978 256.209 134.867 256.3 134.649V133.402C256.029 133.399 255.763 133.364 255.533 133.298C255.257 133.22 255.103 133.05 255.025 132.848C254.921 132.577 254.956 132.253 255.014 132.015C255.027 131.97 255.037 131.924 255.128 131.947C255.219 131.97 255.209 132.015 255.197 132.061C255.146 132.268 255.113 132.552 255.199 132.779C255.257 132.931 255.374 133.058 255.584 133.116C255.814 133.179 256.085 133.212 256.36 133.212C256.631 133.212 256.902 133.179 257.13 133.111C257.337 133.05 257.504 132.936 257.615 132.8C257.727 132.663 257.78 132.504 257.76 132.354C257.747 132.263 257.699 132.198 257.636 132.152C257.55 132.091 257.428 132.063 257.312 132.058C257.193 132.053 257.074 132.076 256.952 132.099C256.889 132.112 256.826 132.122 256.758 132.132C256.71 132.137 256.664 132.144 256.651 132.051C256.639 131.957 256.687 131.95 256.732 131.945C256.791 131.937 256.854 131.924 256.917 131.914C257.049 131.889 257.183 131.864 257.319 131.869C257.471 131.874 257.625 131.914 257.744 131.998C257.851 132.071 257.926 132.18 257.947 132.329C257.975 132.532 257.906 132.742 257.762 132.919C257.628 133.083 257.431 133.22 257.183 133.291C256.973 133.351 256.732 133.387 256.489 133.397V134.619C256.497 134.631 256.497 134.647 256.495 134.659C256.588 134.867 256.753 134.975 256.97 135.016C257.216 135.062 257.529 135.021 257.876 134.938C257.921 134.925 257.967 134.915 257.99 135.006C258.01 135.099 257.967 135.11 257.919 135.12C257.55 135.208 257.213 135.249 256.937 135.201C256.704 135.158 256.52 135.054 256.393 134.867C256.269 135.054 256.08 135.158 255.849 135.201C255.574 135.251 255.237 135.211 254.868 135.12C254.822 135.11 254.774 135.099 254.797 135.006C254.817 134.915 254.865 134.925 254.911 134.938V134.94ZM255.811 135.471L256.828 135.449C256.877 135.449 256.925 135.446 256.925 135.542C256.927 135.638 256.879 135.638 256.831 135.638L255.814 135.661C255.766 135.661 255.72 135.664 255.718 135.568C255.715 135.471 255.763 135.471 255.811 135.471ZM257.312 127.674C257.694 127.358 258.053 127.1 258.382 126.923C258.718 126.74 259.025 126.642 259.29 126.654C259.338 126.657 259.384 126.657 259.381 126.753C259.379 126.847 259.331 126.847 259.283 126.844C259.05 126.834 258.777 126.925 258.468 127.089C258.152 127.259 257.803 127.509 257.431 127.821C257.395 127.851 257.357 127.881 257.297 127.808C257.236 127.735 257.274 127.704 257.309 127.674H257.312ZM255.781 127.816C255.424 127.487 255.027 127.208 254.655 127.021C254.304 126.842 253.977 126.748 253.737 126.768C253.689 126.773 253.643 126.778 253.636 126.682C253.625 126.589 253.674 126.583 253.722 126.581C254 126.556 254.359 126.659 254.744 126.852C255.128 127.046 255.541 127.335 255.91 127.674C255.945 127.707 255.981 127.737 255.915 127.808C255.852 127.876 255.816 127.846 255.781 127.813V127.816ZM255.242 130.356C255.336 130.146 255.452 129.964 255.586 129.802C255.72 129.642 255.87 129.501 256.026 129.372C256.062 129.341 256.1 129.311 256.158 129.384C256.219 129.458 256.181 129.488 256.145 129.518C255.996 129.64 255.857 129.774 255.73 129.923C255.606 130.072 255.5 130.239 255.414 130.432C255.394 130.475 255.376 130.518 255.29 130.48C255.204 130.442 255.222 130.399 255.242 130.356ZM256.181 125.969C256.305 126.136 256.403 126.32 256.469 126.533C256.535 126.74 256.57 126.976 256.568 127.239C256.581 127.441 256.583 127.656 256.55 127.869C256.517 128.086 256.444 128.299 256.305 128.491C256.196 128.643 256.049 128.737 255.887 128.777C255.753 128.81 255.612 128.802 255.472 128.759C255.546 129.012 255.601 129.286 255.488 129.539C255.467 129.584 255.404 129.607 255.359 129.584C255.25 129.528 255.141 129.475 255.035 129.427C254.928 129.379 254.822 129.336 254.713 129.298L254.711 129.296C254.471 129.202 254.273 129.111 254.114 129.012C253.949 128.914 253.823 128.81 253.734 128.699L253.737 128.704C253.625 128.58 253.555 128.435 253.514 128.274C253.479 128.134 253.464 127.985 253.459 127.833C253.276 127.735 253.109 127.636 252.968 127.54C252.806 127.431 252.669 127.32 252.56 127.208C252.527 127.173 252.495 127.14 252.563 127.074C252.631 127.009 252.664 127.044 252.697 127.077C252.796 127.178 252.922 127.279 253.076 127.383C253.228 127.484 253.4 127.588 253.593 127.689C253.906 127.722 254.218 127.818 254.529 127.965C254.797 128.091 255.063 128.256 255.331 128.451C255.364 128.468 255.379 128.491 255.399 128.501C255.419 128.516 255.439 128.534 255.462 128.549C255.591 128.605 255.725 128.62 255.847 128.59C255.966 128.562 256.075 128.491 256.155 128.377C256.277 128.21 256.338 128.026 256.368 127.836C256.398 127.641 256.396 127.439 256.383 127.244V127.239C256.386 126.993 256.353 126.776 256.295 126.586C256.234 126.394 256.148 126.227 256.037 126.077C256.009 126.04 255.981 126.002 256.054 125.946C256.128 125.89 256.158 125.928 256.186 125.964L256.181 125.969ZM255.232 128.618C254.969 128.423 254.708 128.261 254.445 128.137C254.18 128.013 253.914 127.927 253.651 127.889C253.656 128.01 253.671 128.124 253.696 128.231C253.729 128.362 253.785 128.481 253.876 128.58L253.878 128.582C253.954 128.676 254.063 128.764 254.207 128.853C254.359 128.944 254.546 129.033 254.777 129.121L254.774 129.119C254.888 129.159 254.999 129.205 255.111 129.255C255.189 129.291 255.265 129.326 255.346 129.366C255.394 129.156 255.321 128.914 255.252 128.691C255.247 128.671 255.24 128.653 255.23 128.618H255.232ZM257.195 126.08C257.084 126.229 256.995 126.396 256.937 126.589C256.877 126.781 256.846 126.996 256.849 127.241V127.246C256.836 127.441 256.834 127.646 256.864 127.838C256.894 128.028 256.957 128.213 257.076 128.38C257.157 128.494 257.266 128.562 257.385 128.592C257.507 128.623 257.641 128.607 257.77 128.552L257.833 128.504C257.848 128.494 257.866 128.473 257.901 128.453C258.167 128.258 258.435 128.091 258.703 127.967C259.014 127.821 259.326 127.727 259.639 127.692C259.829 127.59 260.004 127.489 260.155 127.385C260.307 127.282 260.436 127.181 260.532 127.079C260.565 127.046 260.598 127.011 260.666 127.077C260.735 127.143 260.702 127.176 260.666 127.211C260.558 127.322 260.421 127.434 260.259 127.542C260.115 127.638 259.95 127.737 259.768 127.836C259.763 127.99 259.748 128.137 259.713 128.276C259.672 128.435 259.601 128.582 259.49 128.706L259.493 128.701C259.404 128.812 259.278 128.916 259.113 129.015C258.954 129.111 258.756 129.205 258.513 129.298L258.511 129.301C258.402 129.339 258.296 129.382 258.19 129.43C258.081 129.478 257.975 129.531 257.866 129.587C257.82 129.609 257.757 129.587 257.737 129.541C257.623 129.288 257.679 129.015 257.752 128.762C257.613 128.807 257.471 128.812 257.337 128.78C257.175 128.742 257.028 128.645 256.92 128.494C256.78 128.301 256.707 128.089 256.674 127.871C256.641 127.656 256.644 127.444 256.656 127.241C256.654 126.978 256.689 126.745 256.755 126.535C256.821 126.323 256.92 126.136 257.044 125.971C257.071 125.933 257.099 125.895 257.175 125.954C257.251 126.009 257.223 126.047 257.193 126.085L257.195 126.08ZM259.574 127.889C259.308 127.927 259.045 128.013 258.779 128.137C258.516 128.261 258.255 128.423 257.992 128.618C257.982 128.65 257.977 128.671 257.972 128.691C257.904 128.914 257.83 129.156 257.878 129.366C257.957 129.329 258.035 129.291 258.114 129.255C258.225 129.205 258.334 129.159 258.45 129.119L258.448 129.121C258.678 129.033 258.865 128.944 259.017 128.853C259.164 128.767 259.27 128.676 259.348 128.582L259.351 128.58C259.439 128.481 259.495 128.362 259.531 128.231C259.558 128.124 259.571 128.01 259.579 127.889H259.574Z" fill="black"/>
<path fill-rule="evenodd" clip-rule="evenodd" d="M258.751 128.023C258.606 128.023 258.467 128.081 258.364 128.183C258.261 128.286 258.204 128.425 258.204 128.571C258.204 128.716 258.261 128.855 258.364 128.958C258.467 129.061 258.606 129.118 258.751 129.118C258.894 129.114 259.029 129.055 259.128 128.952C259.227 128.85 259.283 128.713 259.283 128.571C259.283 128.428 259.227 128.291 259.128 128.189C259.029 128.087 258.894 128.027 258.751 128.023ZM258.751 128.198C258.546 128.198 258.379 128.364 258.379 128.569C258.379 128.774 258.546 128.941 258.751 128.941C258.956 128.941 259.123 128.774 259.123 128.569C259.123 128.364 258.956 128.198 258.751 128.198ZM258.751 128.349C258.722 128.349 258.694 128.355 258.667 128.366C258.64 128.377 258.616 128.393 258.596 128.414C258.575 128.434 258.559 128.459 258.548 128.485C258.537 128.512 258.531 128.541 258.531 128.57C258.531 128.599 258.537 128.627 258.548 128.654C258.559 128.681 258.575 128.705 258.596 128.725C258.616 128.746 258.64 128.762 258.667 128.773C258.694 128.784 258.723 128.79 258.752 128.79C258.81 128.79 258.866 128.767 258.907 128.725C258.948 128.684 258.972 128.628 258.972 128.569C258.972 128.511 258.948 128.455 258.907 128.414C258.866 128.372 258.81 128.349 258.751 128.349ZM254.458 128.036C254.759 128.036 255.007 128.281 255.007 128.582C255.007 128.883 254.761 129.131 254.458 129.131C254.315 129.127 254.18 129.067 254.081 128.965C253.982 128.863 253.927 128.726 253.927 128.583C253.927 128.441 253.982 128.304 254.081 128.202C254.18 128.1 254.315 128.04 254.458 128.036ZM254.458 128.21C254.663 128.21 254.83 128.377 254.83 128.582C254.83 128.787 254.663 128.954 254.458 128.954C254.253 128.954 254.086 128.787 254.086 128.582C254.086 128.377 254.253 128.21 254.458 128.21ZM254.458 128.362C254.487 128.362 254.515 128.368 254.542 128.379C254.569 128.39 254.593 128.406 254.614 128.427C254.634 128.447 254.65 128.471 254.661 128.498C254.672 128.525 254.678 128.553 254.678 128.582C254.678 128.611 254.672 128.64 254.661 128.667C254.65 128.693 254.634 128.718 254.613 128.738C254.593 128.758 254.569 128.775 254.542 128.786C254.515 128.797 254.487 128.802 254.458 128.802C254.399 128.802 254.343 128.779 254.302 128.738C254.261 128.697 254.237 128.64 254.238 128.582C254.238 128.524 254.261 128.468 254.302 128.426C254.343 128.385 254.399 128.362 254.458 128.362Z" fill="black"/>
<path d="M328.1 101.3L307.6 78L280.6 93.4L276.1 148C289.089 149.06 301.967 151.201 314.6 154.4L328.1 101.4V101.3Z" fill="#171796"/>
<path d="M286 104.7C286.9 104.4 287.8 104.4 288.7 104.9C289.1 105.1 289.4 105.3 289.6 105.6L290.8 104.6C291.409 104.162 292.084 103.824 292.8 103.6C293.7 103.118 294.685 102.812 295.7 102.7C296.693 102.554 297.699 102.521 298.7 102.6C299.6 102.6 300.4 102.9 301.2 103.3L303.3 104.4L305.6 105.5C307.142 106.031 308.792 106.168 310.4 105.9C310.9 105.9 311.1 106.1 310.6 106.4C307.1 108.6 304.3 106.6 302 105.8C302.782 106.338 303.518 106.94 304.2 107.6C305.2 108.5 306.2 109.3 307.9 110.1C309.076 110.712 310.375 111.054 311.7 111.1C312.272 111.085 312.841 111.018 313.4 110.9C313.7 110.9 313.8 110.9 313.8 111.1C313.8 111.1 313.8 111.4 313.6 111.5C312.795 112.02 311.858 112.298 310.9 112.3C309 112.4 307.1 111.8 305.3 110.9C303.9 110.1 302.9 109.2 301.8 108.3C300.858 107.568 299.765 107.055 298.6 106.8C297.574 106.575 296.509 106.609 295.5 106.9C295.8 106.9 296 107.1 296.1 107.3C296.6 107.6 297.3 107.7 298.1 107.8C298.6 107.8 298.5 108.2 297.8 108.6C297.3 109.1 296.8 109.4 296 109.4C295 110.1 294.6 109.6 294.2 109.2C294.169 109.474 294.102 109.743 294 110C294.036 110.078 294.055 110.164 294.055 110.25C294.055 110.336 294.036 110.422 294 110.5L294.2 111.3C294.221 111.452 294.291 111.592 294.4 111.7L294.8 112.4C294.8 112.6 294.8 112.7 295 112.9L295.7 113.5C296.3 113.7 296.6 114.2 296.7 114.8C297.2 114.9 297.4 115.3 297.5 115.7C297.7 115.8 298 115.9 298.1 116.2H300.9C301.8 116.4 302.4 116.9 303 117.6H304.3C304.7 117.4 305.2 117.2 305.7 117.2C306.528 117.066 307.372 117.066 308.2 117.2L309.5 118C310 118.6 310.7 118.5 311.4 118.3C311.79 118.114 312.217 118.017 312.65 118.017C313.083 118.017 313.51 118.114 313.9 118.3C314.3 118.1 314.7 118.1 315.1 118.1C315.4 117.7 315.7 117.7 316.1 117.6C316.7 117.6 317.1 117.7 317.1 118.5C317 118.7 316.9 118.9 316.7 118.9C316.4 119.5 315.9 119.7 315.3 119.6L314.8 120.6C315.1 121.5 314.8 121.8 314.1 121.8C313.9 122.1 313.7 122.3 313.4 122.2C313.282 122.362 313.132 122.498 312.961 122.601C312.789 122.704 312.598 122.772 312.4 122.8L312.7 123.4C313.2 124.1 312.5 124.4 311.9 124.4C312 124.9 312.1 125.4 312 125.8C312.7 126.2 312.7 126.6 312.1 127C312.6 127.8 312.4 128.4 311.6 128.8C311.6 129.2 311.6 129.6 311.2 129.8C311 130.1 310.8 130.1 310.9 130.4C311.3 131 311.2 131.7 310.7 131.7L310.5 131.8C310.5 131.9 310.5 132 310.3 132L308.7 133.1H308.4C308.1 134 307.4 134.8 306.6 135.6C306.566 135.887 306.455 136.159 306.279 136.388C306.103 136.617 305.868 136.794 305.6 136.9C305.6 137.1 305.4 137.2 305.2 137.2C305.5 137.6 305.7 137.9 305.4 138.2C305.041 138.663 304.554 139.011 304 139.2C302.9 139.5 302.2 139.4 301.8 139C301.4 138.7 301.6 138.4 301.8 138.3C301.1 138.3 301 138 301 137.5C301 137.3 301.1 137.3 301.4 137.3L302.4 137C302.526 136.769 302.696 136.565 302.9 136.4C303 135.7 303.5 135.3 304.1 135C304.7 134.8 305.1 134.3 305.6 133.7L306.6 132.2C306.39 131.949 306.283 131.627 306.3 131.3C306.062 131.186 305.856 131.014 305.7 130.8C305.2 130.8 305 130.6 304.9 130.3C304.8 130.314 304.7 130.314 304.6 130.3L303.9 130.5C303.536 130.875 303.134 131.21 302.7 131.5C302.5 131.8 302.3 132 301.9 132C300.9 132.2 300.4 133.3 299.9 133.8L299.4 134.6C299.4 135.2 299.3 135.7 298.9 135.7H298.6C298.467 135.679 298.333 135.679 298.2 135.7C298.4 136 298.5 136.3 298.2 136.7C298 136.9 297.7 137 297.3 137.1C296.718 137.132 296.136 137.029 295.6 136.8C295.1 136.6 295 136.3 295.1 136.1C294.7 135.9 294.6 135.7 294.7 135.6C294.7 135.4 294.9 135.2 295.2 135.3L295.8 135.1C296.345 134.456 297.029 133.943 297.8 133.6C297.996 133.332 298.232 133.096 298.5 132.9C298.5 132.3 298.9 131.9 299.5 131.4C299.537 131.191 299.605 130.989 299.7 130.8V130.5C299.5 130.1 299.4 129.7 299.5 129.3C299.457 129.102 299.457 128.898 299.5 128.7C298.3 129.4 298 129.2 297.8 128.7C297.4 129 297 129.1 296.8 128.7C296.3 128.7 295.9 128.9 295.5 128.7C295.249 128.838 294.98 128.939 294.7 129C294.534 129.26 294.332 129.496 294.1 129.7C294.07 130.236 293.898 130.754 293.6 131.2C293.42 131.787 293.186 132.357 292.9 132.9L292.8 133.4C292.8 134.1 292.6 134.4 292.3 134.5C292.184 134.795 292.014 135.066 291.8 135.3V135.5C292 135.9 292 136.3 291.6 136.7C291.277 136.887 290.943 137.054 290.6 137.2C290.3 137.4 289.9 137.3 289.6 137.2C289 137 289.1 136.8 289.1 136.6C288.939 136.662 288.761 136.662 288.6 136.6L288.2 136.3C288.1 136.1 288.1 135.9 288.4 135.8L289.3 135.2C289.3 135 289.5 134.8 289.7 134.7C289.9 134.3 290.1 134 290.4 134L291.1 132.4C291.2 132.2 291.3 132.1 291.2 131.9L291.3 131.6C291.4 131.6 291.5 131.5 291.3 131.4C291.255 131.19 291.258 130.973 291.31 130.765C291.362 130.557 291.461 130.364 291.6 130.2C291.9 129.7 292.2 128.6 291.9 128.1C291.811 127.775 291.777 127.437 291.8 127.1H291.5C291.2 126.9 291 127.1 290.9 127.4L290.5 128C290.3 128.9 289.9 129.5 289.5 129.7C289.352 130.082 289.284 130.491 289.3 130.9C289.3 131.4 289.3 131.7 289.1 131.7C288.9 131.7 288.7 131.9 288.6 132.3L288.5 132.6C288.8 132.9 288.7 133.3 288.5 133.6C287.7 134.3 286.9 134.2 286 133.9C285.4 133.7 285.2 133.4 285.3 133.2C284.4 133.1 284.6 132.4 285.3 132.2C286.12 131.947 286.828 131.417 287.3 130.7C287.3 129.8 287.6 129.2 288 129.2C288 128.6 288.3 128.2 288.5 127.7C288.7 127.3 288.9 126.8 288.8 126.3C288.3 126 288.3 125.6 288.8 125.3L288.7 125C288.4 125 288.4 124.7 288.4 124.4C288.4 124.3 288.4 124.2 288.2 124.2C287.5 124.2 287.7 123.8 288 123.5C288.1 123.4 288.2 123.2 288 123.1L287.9 122.6C287.4 122.3 287.6 122 287.9 121.6C287.6 121.5 287.5 121.2 287.5 120.9C286.7 120.9 286.5 120.4 286.8 119.9L287.5 119.2C287.7 118.9 287.9 118.6 287.8 118.3C287.6 117.8 288.3 117.3 288.8 116.9C288.773 116.768 288.773 116.632 288.8 116.5C288.4 116.2 288.5 115.8 288.8 115.5C288.776 115.368 288.776 115.232 288.8 115.1C287.8 115.3 287.8 114.8 288.3 114C287.8 113.7 287.9 113.2 288.8 112.4L288.9 112C288.536 112.039 288.19 112.178 287.9 112.4C287.5 112.6 287.2 112.5 286.9 112.4C286.762 112.234 286.592 112.098 286.4 112C286.306 111.913 286.237 111.802 286.202 111.678C286.167 111.555 286.166 111.424 286.2 111.3C285.2 111.3 285 110.6 285.6 110.2L286.2 109.3C286.5 108.7 287.1 108.2 287.6 107.7C287.603 107.496 287.636 107.294 287.7 107.1L286.9 106.8C286.9 106.6 286.7 106.3 286.3 106.2C286.1 106 286.1 105.9 286.2 105.7C285.7 105.2 285.8 104.9 285.9 104.7H286Z" fill="black"/>
<path d="M304 130.2H303.7C303.45 130.483 303.183 130.75 302.9 131C302.7 130.7 302.3 131 302.7 131.1L302.5 131.3C302.4 131.6 302.2 131.7 301.9 131.8C301.833 131.796 301.767 131.796 301.7 131.8C301.691 131.667 301.691 131.533 301.7 131.4L301.8 131V130.9C301.696 131.225 301.629 131.56 301.6 131.9C300.8 132.1 300.3 133 299.6 133.6L299.2 134.5C299.2 134.7 299.2 135.5 298.9 135.5H298.7C298.6 135.3 298.5 135.3 298.3 135.5C297.967 135.472 297.633 135.472 297.3 135.5C297 135.7 297.6 135.6 297.9 135.8C298.1 135.9 298.1 136.1 298.1 136.3C297.8 137 296.1 136.8 295.6 136.5C295.3 136.4 295.3 136.2 295.3 136H295.7C295.9 136 296.1 136 296.3 135.8V135.6C296.3 135.4 296.2 135.6 296.1 135.6L295.6 135.7H295.1C295 135.7 294.9 135.7 295 135.6H295.2L295.9 135.3C296.447 134.658 297.131 134.146 297.9 133.8L298.7 133.1C298.8 132.4 299.2 132.1 299.7 131.6C299.7 131.3 299.8 131.1 300 130.8V130.4C299.8 130 299.7 129.7 299.8 129.4V128.5C299.804 128.467 299.804 128.433 299.8 128.4C300.083 128.176 300.384 127.975 300.7 127.8V128.6C300.616 128.687 300.548 128.789 300.5 128.9C300.475 128.998 300.475 129.101 300.5 129.2C300.487 129.134 300.487 129.066 300.5 129C300.583 128.884 300.684 128.783 300.8 128.7C301.1 128.7 301.3 128.6 301.6 128.3L302.3 127.6V128.8C302.058 128.994 301.855 129.231 301.7 129.5V129.6H301.8L302.3 128.9H302.4L302.5 128.7L303.4 128.3V129.3C303.463 129.647 303.639 129.963 303.9 130.2H304Z" fill="#F7DB17"/>
<path d="M287.4 120.6L287.6 120.4L288 119.8C288.143 119.55 288.31 119.316 288.5 119.1H288.6C288.7 119.1 288.6 119.2 288.6 119.2C288.415 119.384 288.248 119.585 288.1 119.8C287.955 119.992 287.822 120.192 287.7 120.4V120.6C287.7 121 287.8 121.2 288 121.4L288.3 120.9L288.8 120.5C288.91 120.411 289.011 120.31 289.1 120.2C289.178 120.108 289.246 120.008 289.3 119.9H289.4C289.351 120.041 289.284 120.176 289.2 120.3C289.079 120.415 288.945 120.516 288.8 120.6L288.4 121C288.284 121.083 288.183 121.184 288.1 121.3C288.2 121.4 288.3 121.6 288.1 121.7C288 122 287.7 122.2 288.1 122.5C288.099 122.592 288.116 122.684 288.15 122.77C288.184 122.856 288.235 122.934 288.3 123C288.4 123.1 288.4 123.5 288.2 123.7C287.9 124 288.2 123.9 288.3 123.9H288.4C288.487 123.758 288.588 123.624 288.7 123.5L289 123.1L289.4 122.6L289.6 122H289.7C289.7 122.2 289.7 122.4 289.5 122.6C289.399 122.82 289.264 123.022 289.1 123.2L288.8 123.6C288.688 123.724 288.588 123.858 288.5 124C288.8 124.2 288.7 124.5 288.7 124.8H288.9C288.967 124.7 289.034 124.6 289.1 124.5L289.3 124.1H289.4L289.2 124.6L289 124.8C289.2 125 289.2 125.3 289 125.5C288.5 125.8 288.7 125.9 289 126.1V127.8V127.4L288.9 127.5C288.6 128.2 288.3 128.7 288.2 129.4C287.5 129.5 287.6 130.2 287.6 130.8C287.116 131.528 286.417 132.088 285.6 132.4C285.4 132.4 285 132.5 285 132.7C285 132.8 285.3 133 285.4 132.9C285.9 132.4 286.1 132.7 285.6 133.1V133.4C286.2 133.8 287.4 134 288 133.6C288.4 133.4 288.6 133.1 288.2 132.7C288.2 132.1 288.5 131.7 289 131.4C289.1 131.4 289.1 131.1 289 131C289 130.5 289 130 289.2 129.6L289.4 129.4C289.6 129.4 290 128.8 290.1 128.1L290.2 127.7C290.2 127.5 290.3 127.5 290.5 127.6L290.6 127.2C290.8 126.9 291.2 126.6 291.6 126.8C291.49 126.511 291.423 126.208 291.4 125.9L291.5 124.9L291.6 124.7L291.9 123.9L292.3 123.1C292.4 123.1 292.3 123.1 292.3 123.2L292 124L291.7 124.8V124.9C291.535 125.57 291.605 126.276 291.9 126.9V127C292.1 127.1 292.1 127.1 292.1 127.4V128C292.5 128.6 292.1 129.8 291.8 130.3C291.6 130.6 291.6 130.9 291.6 131.3C291.8 131.4 291.7 131.6 291.6 131.8C291.5 131.8 291.6 131.9 291.6 131.9C291.581 132.131 291.474 132.346 291.3 132.5L290.6 134.2C290.1 134.3 290.1 134.6 289.9 135C289.6 135 289.6 135.1 289.5 135.3C289.22 135.602 288.879 135.84 288.5 136C288.3 136.1 288.5 136.2 288.8 136.4C289 136.5 289.2 136.2 289.4 136C289.6 135.7 289.7 135.8 289.6 136C289.493 136.22 289.425 136.457 289.4 136.7C289.4 136.9 290 137 290.1 137C290.6 137 291.1 136.6 291.4 136.4C291.7 136.2 291.7 135.9 291.5 135.6C291.334 135.62 291.166 135.62 291 135.6C290.791 135.518 290.59 135.418 290.4 135.3C290.4 135.2 290.4 135.2 290.4 135.3L291.1 135.4H291.6V135.2L292.1 134.3C292.5 134.1 292.5 133.9 292.5 133.3C292.576 133.145 292.61 132.972 292.6 132.8C292.9 132.3 293.2 131.8 293.4 131.1C293.7 130.6 293.9 130.1 293.9 129.6C293.9 129.3 293.9 129.2 294.2 129.2C294.2 129 294.4 128.9 294.5 128.7C294.55 128.559 294.617 128.424 294.7 128.3C294.724 128.229 294.757 128.162 294.8 128.1C294.842 127.936 294.842 127.764 294.8 127.6C294.835 127.435 294.835 127.265 294.8 127.1C294.715 127.054 294.646 126.984 294.6 126.9V126.7H294.7V126.9L294.8 127L295 127.6V128.1C294.922 128.154 294.854 128.222 294.8 128.3L294.7 128.7C294.9 128.7 295.1 128.7 295.4 128.5L295.8 128L296 127.4H296.1C296.073 127.643 296.005 127.879 295.9 128.1L295.6 128.5C296 128.5 296.3 128.5 296.7 128.3V127.1L297.1 126.3C297.1 126.3 297.2 126.3 297.1 126.3L296.9 127.1V128.3C297 128.6 297.1 128.8 297.4 128.6L297.8 128.3V128.2C298.416 127.606 299.085 127.07 299.8 126.6C299.173 127.027 298.602 127.531 298.1 128.1V128.4C298.1 128.8 298.1 129 298.7 128.8L299.3 128.5C299.5 128.5 299.6 128.3 299.6 128.3C299.919 128.046 300.253 127.812 300.6 127.6L300.8 127L301.6 125.7C301.867 125.543 302.104 125.34 302.3 125.1L302.8 124.4C302.8 124.4 302.9 124.4 302.8 124.4C302.714 124.688 302.579 124.958 302.4 125.2L301.7 125.8C301.262 126.32 300.953 126.937 300.8 127.6V128.6L301.5 128.2L302.3 127.5C302.3 127.2 302.5 127 302.6 126.9C302.692 126.731 302.831 126.592 303 126.5V126.7C302.843 126.764 302.706 126.868 302.6 127C302.511 127.157 302.444 127.325 302.4 127.5V128.7C302.699 128.447 303.036 128.244 303.4 128.1H303.5V129.2C303.5 129.5 303.7 129.8 303.9 130C304.04 129.779 304.208 129.577 304.4 129.4C304.527 129.292 304.661 129.192 304.8 129.1L305 128.9L305.2 128.6H305.3V128.7L305.1 128.9L304.8 129.2C304.696 129.261 304.596 129.328 304.5 129.4V129.9H305.2C305.2 130.4 305.2 130.5 305.7 130.5C305.688 130.333 305.688 130.166 305.7 130C305.713 129.83 305.746 129.662 305.8 129.5H305.9V130C305.887 130.166 305.887 130.333 305.9 130.5C306 130.9 306.2 131 306.5 131.2C306.591 131.044 306.659 130.876 306.7 130.7L306.8 130.2H306.9C306.928 130.365 306.928 130.534 306.9 130.7C306.834 130.915 306.733 131.118 306.6 131.3V131.8L306.8 131.5C306.881 131.353 306.982 131.219 307.1 131.1H307.2C307.2 131.1 307.3 131.1 307.2 131.1C307.083 131.219 306.982 131.354 306.9 131.5C306.827 131.63 306.76 131.763 306.7 131.9L306.9 132.1C306.2 133.2 305.5 134.8 304.3 135.3C303.6 135.5 303.3 135.9 303.2 136.6C302.965 136.761 302.761 136.964 302.6 137.2C302.2 137.4 301.8 137.6 301.3 137.6C301.3 137.9 301.4 138 301.7 138L302.5 137.7C302.5 137.7 302.4 138.2 301.9 138.5V138.7C302.3 139.3 303.3 139.1 303.9 138.9C304.3 138.9 305 138.3 305.2 137.9C305.3 137.7 305.2 137.5 305 137.3C304.2 137.4 304.3 136.7 305 137C305.2 137 305.3 137 305.3 136.6C306 136.4 306.3 136.1 306.3 135.5C306.988 134.843 307.592 134.104 308.1 133.3C308.1 133.2 308.3 132.9 308.2 132.7L308.4 132.3L308.5 131.8H308.6C308.622 131.966 308.622 132.134 308.6 132.3C308.541 132.437 308.474 132.57 308.4 132.7C308.4 132.8 308.4 132.9 308.6 132.9C309.1 132.4 309.6 132.1 310.2 131.8C310.2 131.5 310.4 131.4 310.7 131.4L310.8 131.3C311 130.9 310.8 130.7 310.6 130.4C310.5 130 310.8 129.9 311 129.7C311.3 129.5 311.3 128.9 311.3 128.6V128.4C311.272 128.298 311.239 128.198 311.2 128.1C311.2 128 311.2 128.1 311.2 128.1L311.4 128.4V128.5C311.7 128.4 312 128.2 312.1 127.9L311.8 127C311.603 127.106 311.403 127.207 311.2 127.3V127.2C311.438 127.075 311.672 126.942 311.9 126.8L312.2 126.6C312.4 126.3 311.9 126 311.7 125.9L310.9 125.2V125.1C310.9 125 310.9 125.1 311 125.1L311.7 125.8V124.5L311.5 124.1C311.3 124.014 311.127 123.876 311 123.7C310.893 123.552 310.824 123.381 310.8 123.2H310.9C310.92 123.382 310.989 123.555 311.1 123.7L311.5 124C311.8 124.2 312.2 124.1 312.5 124C312.9 123.8 312.4 123.3 312.3 123L312.1 122.5H312.2C312.174 122.43 312.141 122.363 312.1 122.3C312.034 122.289 311.966 122.289 311.9 122.3V122.2C311.966 122.192 312.034 122.192 312.1 122.2L312.3 122.5C312.333 122.501 312.367 122.501 312.4 122.5C312.8 122.4 313 122.2 313.2 121.9C313.077 121.757 312.943 121.623 312.8 121.5L312.4 121.1L312.9 121.4C313.08 121.553 313.247 121.72 313.4 121.9C313.7 121.9 313.8 121.9 313.9 121.6C313.862 121.423 313.794 121.254 313.7 121.1C313.613 120.958 313.512 120.824 313.4 120.7C313.6 120.7 313.7 120.9 313.8 121.1L314 121.5H314.5C314.8 121.3 314.5 120.7 314.5 120.5C314.437 120.43 314.37 120.363 314.3 120.3H314.1V120.1H314.2L314.4 120.2L314.6 120.3L315 119.7C315 119.3 315.1 119.5 315.5 119.4C316 119.4 316.2 119.3 316.5 118.7C316.7 118.7 316.7 118.7 316.8 118.4C316.8 118.1 316.8 117.9 316.4 117.9C315.9 117.9 315.6 117.9 315.3 118.3V118.5C315.4 118.5 315.4 118.5 315.3 118.6L315.2 118.4C314.757 118.354 314.309 118.423 313.9 118.6C313.867 118.599 313.833 118.599 313.8 118.6L314 118.9L314.1 119.3V119.4H314C314.006 119.228 313.972 119.056 313.9 118.9C313.817 118.755 313.716 118.62 313.6 118.5C313.282 118.373 312.943 118.305 312.6 118.3L312.7 118.4L312.9 118.6V118.7C312.9 118.7 312.9 118.8 312.9 118.7C312.799 118.635 312.699 118.569 312.6 118.5C312.533 118.434 312.466 118.367 312.4 118.3C312.091 118.32 311.788 118.387 311.5 118.5C311.308 118.588 311.106 118.655 310.9 118.7L311.3 119.2L311.5 119.8V119.9H311.4C311.361 119.692 311.294 119.49 311.2 119.3C311.094 119.113 310.959 118.944 310.8 118.8C310.601 118.832 310.399 118.832 310.2 118.8L310.4 119.1L310.1 118.7C309.923 118.664 309.753 118.596 309.6 118.5C309.716 119.026 309.783 119.562 309.8 120.1H309.7C309.72 119.767 309.72 119.433 309.7 119.1C309.65 118.862 309.584 118.628 309.5 118.4C309.394 118.343 309.293 118.276 309.2 118.2C309.031 117.999 308.828 117.829 308.6 117.7C308.625 117.84 308.621 117.984 308.586 118.121C308.552 118.259 308.488 118.388 308.4 118.5C308.3 118.5 308.4 118.5 308.4 118.5C308.478 118.384 308.527 118.251 308.545 118.112C308.562 117.973 308.547 117.832 308.5 117.7C308.154 117.537 307.781 117.435 307.4 117.4C307.627 117.716 307.828 118.05 308 118.4C308.136 118.502 308.24 118.641 308.3 118.8V119.3C308.286 119.13 308.253 118.962 308.2 118.8C308.145 118.638 308.04 118.498 307.9 118.4C307.808 118.229 307.708 118.062 307.6 117.9C307.477 117.725 307.344 117.558 307.2 117.4C307.067 117.395 306.933 117.395 306.8 117.4H306.9L307 117.7H306.9C306.913 117.634 306.913 117.566 306.9 117.5C306.839 117.456 306.772 117.422 306.7 117.4H305.9C306.42 118.108 306.763 118.931 306.9 119.8V119.9C306.792 119.446 306.624 119.009 306.4 118.6C306.218 118.172 305.983 117.769 305.7 117.4C305.461 117.443 305.226 117.51 305 117.6C305.186 117.707 305.355 117.842 305.5 118C305.407 117.923 305.307 117.856 305.2 117.8C305.105 117.726 305.005 117.66 304.9 117.6C304.799 117.63 304.699 117.663 304.6 117.7H304.4C304.831 118.036 305.203 118.441 305.5 118.9C305.5 118.9 305.5 119 305.5 118.9C305.322 118.679 305.121 118.478 304.9 118.3C304.713 118.118 304.513 117.951 304.3 117.8C304.068 117.83 303.832 117.83 303.6 117.8C303.888 118.395 304.058 119.04 304.1 119.7C304.046 119.354 303.946 119.018 303.8 118.7C303.684 118.425 303.55 118.158 303.4 117.9C303.267 117.909 303.133 117.909 303 117.9C303.183 118.454 303.316 119.023 303.4 119.6H303.3L303.1 118.6C303.044 118.331 302.978 118.064 302.9 117.8C302.522 117.333 302.043 116.957 301.5 116.7C301.774 117.038 301.916 117.465 301.9 117.9H301.8C301.816 117.662 301.782 117.424 301.7 117.2C301.609 116.975 301.472 116.771 301.3 116.6C301.167 116.587 301.033 116.587 300.9 116.6C300.568 116.557 300.234 116.523 299.9 116.5C300.1 116.7 300.3 116.9 300.3 117.2H300.2C300.2 117 300 116.7 299.7 116.5H299L299.3 116.8L299.6 117.3C299.6 117.5 299.6 117.8 299.8 117.9C299.8 118.1 300 118.3 300.2 118.4C300.2 118.4 300.2 118.5 300.2 118.4C300 118.314 299.827 118.176 299.7 118C299.545 117.794 299.442 117.554 299.4 117.3C299.357 117.156 299.289 117.021 299.2 116.9C299.118 116.723 299.017 116.556 298.9 116.4H298.2L298.4 117.4V118.4C298.389 118.065 298.355 117.731 298.3 117.4C298.235 117.057 298.135 116.722 298 116.4C297.882 116.215 297.706 116.075 297.5 116C297.466 116.118 297.396 116.223 297.3 116.3C297.328 116.237 297.342 116.169 297.342 116.1C297.342 116.031 297.328 115.963 297.3 115.9C297.1 115.4 297 115.2 296.6 115V115.5C296.6 115.6 296.6 115.8 296.4 116C296.3 116 296.3 116 296.4 116C296.447 115.803 296.447 115.597 296.4 115.4C296.444 115.27 296.478 115.136 296.5 115C296.3 114.3 296.2 114 295.5 113.7C295.504 113.767 295.504 113.833 295.5 113.9V114.4H295.4V113.9C295.413 113.767 295.413 113.633 295.4 113.5L294.9 113C294.91 113.27 294.876 113.54 294.8 113.8L294.4 114.7H294.3C294.487 114.391 294.622 114.053 294.7 113.7V112.9C294.652 112.805 294.619 112.704 294.6 112.6L294.5 112.9H294.4V112.6L294.5 112.5V112.4C294.466 112.201 294.359 112.023 294.2 111.9C294.131 112.084 294.03 112.253 293.9 112.4C294.009 112.216 294.077 112.012 294.1 111.8C294.051 111.706 294.017 111.605 294 111.5C293.976 111.571 293.943 111.638 293.9 111.7C293.811 111.781 293.71 111.849 293.6 111.9L293.8 111.6C293.802 111.567 293.802 111.533 293.8 111.5C293.9 111.4 293.9 111.5 293.8 111.3C293.9 111 293.8 110.8 293.7 110.5C293.568 110.473 293.432 110.473 293.3 110.5L292.8 110.9V110.8C293 110.6 293.1 110.5 293.3 110.5C293.425 110.439 293.561 110.405 293.7 110.4C293.739 110.304 293.739 110.196 293.7 110.1C293.318 110.262 292.913 110.363 292.5 110.4C292.237 110.46 291.963 110.46 291.7 110.4V110.2L292.5 110.3C292.8 110.3 293.2 110.3 293.7 110L293.9 109.4C293.734 109.423 293.566 109.423 293.4 109.4H293.3L293.9 109.3V109.1C293.9 108.9 294.2 108.8 294.4 109.1C294.6 109.1 294.7 109.3 294.9 109.4C295.2 109.6 295.5 109.4 295.8 109.2H295.5V109.1H295.9C296.5 109.1 296.9 109.1 297.4 108.6C297.067 108.622 296.733 108.622 296.4 108.6L295.7 108.4V108.3L296.4 108.5C296.733 108.522 297.067 108.522 297.4 108.5L297.6 108.4L298 108.1C297.302 108.025 296.624 107.821 296 107.5L295.2 107.1C294.714 107.055 294.225 107.16 293.8 107.4L293.5 107.1L293 107H292.3V106.9H293L293.6 107C294.199 106.739 294.846 106.602 295.5 106.6C296.086 106.443 296.693 106.375 297.3 106.4V106.2C297.6 105.9 297.7 105.6 297.6 105.2C297.5 105 297.2 104.7 296.8 104.5H295.4L294.5 104.6C294.8 104.7 295 104.9 295.1 105.1C295.4 105.3 295.5 105.7 295.6 106.1V106.2H295.4C295.4 105.7 295.2 105.4 295 105.2C294.8 104.9 294.3 104.8 294.2 104.7C293.726 104.763 293.258 104.863 292.8 105C292.5 105 292.2 105.1 292 105.3L293 105.4C293.2 105.5 293.4 105.8 293.6 106.2V106.3C293.6 106.4 293.4 106.3 293.4 106.3C293.3 105.9 293.1 105.7 292.9 105.6C292.4 105.4 291.5 105.6 291.1 105.8C290.877 106.012 290.676 106.247 290.5 106.5H290.3C290.2 106.4 290.3 106.3 290.3 106.3L291 105.6C291.212 105.456 291.45 105.354 291.7 105.3C291.97 105.01 292.317 104.801 292.7 104.7L294.2 104.5L293.6 103.9H292.9C292.295 104.076 291.721 104.346 291.2 104.7H291.8V104.9C291.8 105 291.5 104.9 291.4 104.9H290.9C290.9 104.9 290.9 105 290.9 104.9L289.3 106.2C288.7 106.2 288.4 106.2 288.3 106.4C288.1 106.5 288.1 106.7 288.1 107L287.9 107.8C287.4 108.3 286.8 108.8 286.5 109.4L286.2 110H286.5C286.504 110.033 286.504 110.067 286.5 110.1C286.494 110 286.494 109.9 286.5 109.8L286.8 109.4L286.7 109.8C286.677 109.999 286.677 110.201 286.7 110.4H286.5C286.513 110.346 286.51 110.289 286.493 110.236C286.475 110.183 286.443 110.136 286.4 110.1C286.302 110.074 286.198 110.074 286.1 110.1C285.974 110.21 285.841 110.31 285.7 110.4L285.5 110.7C285.5 111 285.8 111 286.1 111C286.7 111 286.2 111.4 286.6 111.7L287 112.2H287.6C287.6 111.7 287.6 111.5 287.8 111.5C287.827 111.35 287.897 111.212 288 111.1C288 111.1 288.1 111.1 288 111.1C287.983 111.199 287.983 111.301 288 111.4C287.957 111.462 287.924 111.529 287.9 111.6V112L288.9 111.7C289.7 110.9 289.9 111.1 289.4 111.7L289.3 111.9C289.177 112.113 289.108 112.354 289.1 112.6C288.9 112.7 288.1 113.4 288.3 113.7C288.6 113.7 288.7 113.7 288.6 113.9C288.6 114.1 288.2 114.6 288.3 114.9H288.6C288.886 114.689 289.153 114.455 289.4 114.2L290 113.4V113.3C290.088 113.029 290.188 112.762 290.3 112.5L290.6 111.7H290.7L291 112C291.056 112.052 291.125 112.086 291.2 112.1H291.5L291.8 111.8C291.8 111.7 291.8 111.8 291.8 111.8C291.8 111.8 291.9 111.8 291.8 111.8C291.749 111.909 291.681 112.011 291.6 112.1C291.544 112.144 291.48 112.176 291.411 112.193C291.342 112.21 291.27 112.213 291.2 112.2C291.102 112.231 290.998 112.231 290.9 112.2C290.819 112.111 290.751 112.009 290.7 111.9L290.4 112.6C290.325 112.831 290.258 113.064 290.2 113.3V113.5C290.007 113.829 289.771 114.132 289.5 114.4L288.9 114.9L289.1 115.5L290.1 114.5C290.44 114.168 290.742 113.799 291 113.4C290.911 113.605 290.811 113.806 290.7 114L290.6 114.4V115.2C290.543 114.937 290.509 114.669 290.5 114.4V114.2C290.112 114.707 289.677 115.175 289.2 115.6C288.8 115.9 288.6 116 288.9 116.3L289.3 116L289.7 115.7H289.8V115.8L289.4 116.1L289 116.4C288.992 116.54 289.027 116.68 289.1 116.8L290.1 116.2L289.3 116.8C289.276 116.871 289.243 116.938 289.2 117C288.9 117.2 287.9 117.8 288 118.2C288.3 118.2 288.5 118 288.7 117.9C288.9 117.9 289.2 117.6 289.4 117.4C289.5 117.4 289.4 117.4 289.4 117.5C289.225 117.695 289.023 117.863 288.8 118V118.3H288.6V118.1L288.1 118.3C288.1 118.7 287.9 119 287.7 119.3C287.7 119.5 286.7 120.3 287 120.5H287.4V120.6Z" fill="#F7DB17"/>
<path d="M287.9 106.9C287.7 106.8 287.4 106.6 287.1 106.6C286.989 106.359 286.817 106.152 286.6 106C286.4 105.9 286.4 105.9 286.5 105.7L286.8 105.6H287.1L287.3 105.8C287.3 105.8 287.4 105.8 287.3 105.8C287.266 105.682 287.196 105.577 287.1 105.5C286.968 105.475 286.832 105.475 286.7 105.5C286.569 105.466 286.431 105.466 286.3 105.5L286.1 104.9L286.5 105C286.582 105.05 286.65 105.118 286.7 105.2C286.657 105.086 286.589 104.983 286.5 104.9C286.433 104.896 286.367 104.896 286.3 104.9C286.684 104.795 287.085 104.767 287.48 104.819C287.875 104.87 288.256 105 288.6 105.2C289 105.3 289.2 105.5 289.4 105.8L289.2 106C288.7 106 288.3 106 288.1 106.2C287.9 106.3 287.9 106.6 287.8 106.9H287.9Z" fill="#F7DB17"/>
<path d="M304.4 130L304 130.2L304.4 129.6V130ZM306.5 134.5L306.1 134.9C305.944 135.046 305.776 135.179 305.6 135.3L306.1 134.8L306.4 134.4H306.5V134.5ZM307.9 132.8L307.7 133.1C307.6 133.1 307.6 133.1 307.7 133.1L307.8 132.8H307.9ZM307.2 132.8C307.146 132.963 307.055 133.112 306.933 133.233C306.812 133.355 306.663 133.446 306.5 133.5L306.9 133.1L307.1 132.7L307.2 132.8ZM308.5 131.1C308.459 131.163 308.426 131.23 308.4 131.3L308.3 131.5H308.2C308.228 131.32 308.296 131.149 308.4 131H308.5C308.5 131 308.6 131 308.5 131V131.1ZM309.6 131.1L309.5 131.6L309.3 132.1H309.2C309.1 132.1 309.2 132.1 309.2 132.1L309.4 131.6L309.5 131.1H309.6ZM309.1 124.7C309.5 125.2 309.5 125.7 309.6 126.2L309.7 125.7C309.847 125.521 309.95 125.311 310.003 125.085C310.055 124.86 310.054 124.625 310 124.4H310.1V125.1C310.038 125.317 309.937 125.521 309.8 125.7C309.721 126.031 309.655 126.364 309.6 126.7V126.8H309.4V126.7C309.4 126 309.4 125.4 309 124.7H309.1ZM308.3 125.7V126H308.2V125.8C308.2 125.7 308.2 125.8 308.2 125.8L308.3 125.7ZM308.1 127.2C308.227 127.69 308.294 128.194 308.3 128.7C308.402 128.539 308.539 128.402 308.7 128.3H308.8V128.4C308.681 128.48 308.58 128.581 308.5 128.7C308.411 128.783 308.343 128.886 308.3 129L308.1 128.1C308.051 127.829 307.984 127.562 307.9 127.3C308 127.2 308 127.3 308.1 127.3V127.2ZM309.2 127.8C309.264 128.197 309.264 128.602 309.2 129V128.4C309.215 128.2 309.215 128 309.2 127.8C309.2 127.8 309.1 127.8 309.2 127.8ZM310.2 127.6V128.8C310.153 128.997 310.153 129.203 310.2 129.4L310.3 130C310.3 130 310.3 130.1 310.3 130C310.175 129.813 310.075 129.612 310 129.4C309.941 129.17 309.941 128.93 310 128.7C310.098 128.548 310.166 128.378 310.2 128.2C310.226 128.001 310.226 127.799 310.2 127.6ZM310.7 125.9V126.2L310.6 126.5C310.6 126.5 310.6 126.6 310.5 126.5V126.2L310.6 125.9H310.7ZM310.2 123.1L310.3 123.4C310.3 123.5 310.3 123.4 310.2 123.4V123.2C310.2 123.2 310.1 123.2 310.2 123.1ZM310.5 121.1V121.9C310.36 121.998 310.255 122.138 310.2 122.3C310.16 122.498 310.16 122.702 310.2 122.9H310.1C310.045 122.67 310.045 122.43 310.1 122.2C310.165 122.043 310.268 121.906 310.4 121.8V121L310.5 121.1ZM308.4 120.3L309.2 121C309.4 121.3 309.5 121.6 309.5 122H309.4L308.8 121.8C309 122.6 308.9 123.2 308.8 123.8C308.715 124.029 308.581 124.236 308.409 124.409C308.236 124.581 308.029 124.715 307.8 124.8L307.7 124.7C307.87 124.115 307.904 123.5 307.8 122.9H307.9V123.9C307.92 124.133 307.92 124.367 307.9 124.6C308.2 124.4 308.5 124.1 308.7 123.6C308.8 123.2 308.9 122.6 308.7 121.7L309.4 121.9C309.38 121.61 309.275 121.332 309.1 121.1C308.882 120.816 308.61 120.578 308.3 120.4V120.3H308.4ZM313.9 119.3L313.8 119.4H313.7V119.2H313.8L313.9 119.3ZM312.6 119.2C312.678 119.254 312.746 119.322 312.8 119.4L313 119.6C313 119.6 313 119.7 313 119.6C312.946 119.522 312.878 119.454 312.8 119.4C312.711 119.34 312.607 119.306 312.5 119.3V119.2H312.6ZM310.6 119.7L310.9 120.3V120.9C310.9 120.9 310.9 121 310.9 120.9C310.932 120.701 310.932 120.499 310.9 120.3C310.847 120.109 310.743 119.937 310.6 119.8V119.7ZM304.2 120.4V120.6C304.199 120.667 304.199 120.733 304.2 120.8H304.1V120.3H304.2V120.4ZM305.4 119.7V120L305.5 120.1V120.2L305.4 120.1C305.368 120 305.334 119.9 305.3 119.8V119.7H305.4ZM307.9 121.4V121.5C307.907 121.566 307.907 121.633 307.9 121.7H307.8C307.807 121.633 307.807 121.566 307.8 121.5V121.3L307.9 121.4ZM308.7 119.5C308.752 119.556 308.786 119.625 308.8 119.7C308.823 119.765 308.823 119.835 308.8 119.9H308.7V119.8C308.709 119.785 308.713 119.768 308.713 119.75C308.713 119.732 308.709 119.715 308.7 119.7C308.706 119.667 308.706 119.633 308.7 119.6C308.6 119.6 308.6 119.6 308.7 119.5ZM302.8 119.8L302.9 120.2L303.1 120.5L303.3 121V121.4C303.312 121.267 303.312 121.133 303.3 121C303.235 120.843 303.132 120.706 303 120.6C302.907 120.482 302.839 120.346 302.8 120.2C302.778 120.068 302.778 119.932 302.8 119.8ZM305.2 121.4C305.309 121.619 305.377 121.856 305.4 122.1V122.9C305.4 123.2 305.4 123.5 305.6 123.7C305.7 124 306 124.2 306.3 124.4C306.177 124.08 306.109 123.742 306.1 123.4C306.128 123.034 306.268 122.685 306.5 122.4C306.622 122.284 306.723 122.149 306.8 122V121.5H306.9V122C306.831 122.184 306.73 122.353 306.6 122.5C306.398 122.794 306.293 123.143 306.3 123.5L306.4 124.5V124.6C306.009 124.414 305.667 124.14 305.4 123.8C305.318 123.648 305.267 123.482 305.249 123.31C305.232 123.138 305.249 122.965 305.3 122.8V122.1C305.277 121.856 305.209 121.619 305.1 121.4H305.2ZM304.2 122.9L304.1 123.7C303.953 123.916 303.786 124.117 303.6 124.3C303.702 124.272 303.802 124.238 303.9 124.2C304.17 124.047 304.408 123.843 304.6 123.6L305 123.3C304.909 123.44 304.809 123.573 304.7 123.7C304.608 123.808 304.508 123.908 304.4 124C304.434 124.1 304.467 124.2 304.5 124.3V124.4H304.4V124C304.246 124.119 304.078 124.22 303.9 124.3L303.5 124.4C303.4 124.4 303.5 124.4 303.5 124.4C303.698 124.155 303.866 123.886 304 123.6L304.1 122.9H304.2ZM303.1 122.8V123H303V122.8H303.1Z" fill="black"/>
<path d="M302.4 121.3C302.5 121.7 302.6 122.1 302.5 122.3C302.5 122.7 302.3 123 302.1 123.3C301.848 123.483 301.643 123.723 301.5 124C301.452 124.163 301.418 124.331 301.4 124.5L301.6 124.3C301.6 124.2 301.8 124 302.1 124C302.55 123.731 302.955 123.394 303.3 123H303.4L302.8 123.6C302.581 123.786 302.347 123.953 302.1 124.1C301.909 124.153 301.737 124.257 301.6 124.4L301.3 124.8H301.2L301.4 123.9L302 123.2L302.4 122.4L302.3 121.4C302.3 121.3 302.3 121.4 302.3 121.4L302.4 121.3ZM304.7 125.1L304.9 125.5L305 125.7C305.2 125.9 305.3 126.2 305.3 126.5L305.2 127.5H305.1C305.061 127.136 304.922 126.79 304.7 126.5C304.438 126.221 304.134 125.985 303.8 125.8L304.8 126.5L305.1 127.2V126.5C305.115 126.219 305.045 125.94 304.9 125.7C304.9 125.667 304.9 125.633 304.9 125.6C304.6 125.4 304.6 125.3 304.6 125.1H304.7ZM305.7 125.1L305.9 125.2V125.3C306 125.3 306 125.3 305.9 125.4L305.8 125.3L305.7 125.1ZM307 125.5L306.7 126.2L306.5 126.9C306.5 126.9 306.5 127 306.5 126.9H306.4L306.6 126.2L306.9 125.4L307 125.5ZM307.7 129.6C307.677 129.665 307.677 129.735 307.7 129.8H307.6C307.583 129.734 307.583 129.665 307.6 129.6H307.7ZM306.9 128.4V128.8L306.7 129.2V128.7L306.8 128.4H306.9ZM305.9 128.4C305.9 128.5 306 128.5 305.9 128.6L305.8 128.5V128.4H305.9ZM304.6 127.8C304.572 127.934 304.538 128.068 304.5 128.2H304.4C304.428 128.065 304.462 127.932 304.5 127.8C304.5 127.8 304.5 127.7 304.6 127.8ZM302.8 129.7C302.756 129.761 302.722 129.828 302.7 129.9C302.688 130 302.688 130.1 302.7 130.2H302.6V129.9C302.643 129.786 302.711 129.683 302.8 129.6V129.7ZM297.8 134.7C297.77 134.737 297.737 134.77 297.7 134.8C297.641 134.874 297.574 134.941 297.5 135H297.4V134.9C297.522 134.825 297.625 134.722 297.7 134.6L297.8 134.7ZM298.6 134.2C298.586 134.275 298.552 134.344 298.5 134.4C298.434 134.409 298.366 134.409 298.3 134.4C298.3 134.4 298.3 134.5 298.3 134.4C298.2 134.4 298.3 134.4 298.3 134.4C298.303 134.367 298.303 134.333 298.3 134.3C298.377 134.294 298.449 134.258 298.5 134.2H298.6ZM299.6 133.6C299.55 133.682 299.482 133.75 299.4 133.8V133.7C299.452 133.644 299.486 133.575 299.5 133.5H299.6V133.6ZM301.2 129.5V129.9C301.1 130 301.2 130.2 301.2 130.3L301.1 130.4C301.038 130.24 301.005 130.071 301 129.9L301.1 129.4H301.2V129.5ZM302.2 118.5C302.215 118.599 302.215 118.7 302.2 118.8L301.9 119.2V119.1L302.1 118.8C302.134 118.669 302.134 118.531 302.1 118.4H302.2V118.5ZM301.2 117.5L301.4 118V118.5H301.3C301.322 118.334 301.322 118.166 301.3 118C301.262 117.823 301.194 117.654 301.1 117.5H301.2ZM299.7 119.3C299.534 119.162 299.398 118.992 299.3 118.8C299.227 118.68 299.192 118.54 299.2 118.4C299.3 118.4 299.3 118.4 299.2 118.4C299.213 118.554 299.284 118.697 299.4 118.8L299.8 119.2C299.8 119.3 299.8 119.3 299.8 119.2L299.7 119.3ZM301.3 122V122.3V122ZM299.3 120C299.6 120.2 299.8 120.6 299.9 121V121.8H300C300.1 121.8 300.3 121.7 300.3 121.4C300.414 121.112 300.482 120.809 300.5 120.5L300.7 119.9L300.8 119.3H300.9L301.4 120.2L301.7 121.2H301.6C301.557 120.852 301.456 120.514 301.3 120.2C301.19 119.954 301.056 119.72 300.9 119.5C300.913 119.666 300.913 119.834 300.9 120C300.825 120.18 300.724 120.349 300.6 120.5C300.6 120.9 300.6 121.3 300.4 121.5C300.4 121.7 300.2 121.9 300.1 121.9H300V122.4H299.9L299.8 121.1C299.698 120.717 299.49 120.37 299.2 120.1V119.9L299.3 120ZM300.5 125.1V125.6L300.3 126V125.1H300.4H300.5ZM298.1 126.1L298.2 126.5H298.1V126.1ZM300.1 123.5L300 124.1C299.898 124.319 299.763 124.521 299.6 124.7C299.412 124.885 299.304 125.136 299.3 125.4V126.1C299.213 125.843 299.179 125.571 299.2 125.3C299.2 125.1 299.3 124.8 299.5 124.6C299.82 124.272 300.03 123.853 300.1 123.4V123.5ZM299.6 122.7V123.3C299.46 123.521 299.292 123.723 299.1 123.9C298.941 124.044 298.806 124.213 298.7 124.4C298.585 124.592 298.485 124.793 298.4 125L298.6 124.4L299.1 123.8C299.257 123.654 299.392 123.485 299.5 123.3C299.561 123.105 299.561 122.895 299.5 122.7H299.6ZM297.1 123.9C297.1 124.3 297.1 124.7 296.9 124.9C296.8 125.3 296.5 125.6 296.2 125.9C296.1 125.8 296.1 125.8 296.2 125.7C296.4 125.5 296.7 125.2 296.8 124.9C297 124.6 297 124.3 297 123.9H297.1ZM293.8 125.7V125.9L294 126.1C293.9 126.2 293.9 126.1 293.9 126.1L293.8 126L293.7 125.8V125.7H293.8ZM292.5 125.7V126.5C292.5 126.8 292.7 126.9 292.9 127.2C293.027 127.483 293.095 127.789 293.1 128.1L293.5 127.5L293.6 126.9H293.7C293.716 127.138 293.682 127.376 293.6 127.6L293.1 128.2H293C293.012 128.033 293.012 127.866 293 127.7C292.956 127.525 292.889 127.357 292.8 127.2C292.656 126.988 292.554 126.75 292.5 126.5C292.43 126.239 292.396 125.97 292.4 125.7H292.5ZM292.7 130.2C292.695 129.93 292.728 129.66 292.8 129.4H292.9C292.827 129.66 292.793 129.93 292.8 130.2H292.7ZM292.5 131.4V130.9H292.6V131.4H292.5ZM291.6 133.5L291.9 133.2C291.971 133.103 292.037 133.002 292.1 132.9H292.2C292.141 133.037 292.074 133.17 292 133.3C291.91 133.41 291.81 133.51 291.7 133.6V133.5H291.6ZM290.4 126.5V126.7V126.5ZM288.4 131.3V131V131.3ZM293.6 122.8C293.491 123.123 293.424 123.459 293.4 123.8C293.4 124.2 293.4 124.5 293.7 124.6C294 124.8 294.1 125 294.2 125.3L294.3 124.9C294.316 124.767 294.316 124.633 294.3 124.5C294.3 124.4 294.4 124.5 294.4 124.5C294.43 124.837 294.396 125.176 294.3 125.5H294.2C294.165 125.434 294.132 125.367 294.1 125.3C294 125.1 293.9 124.8 293.6 124.7C293.4 124.5 293.3 124.2 293.3 123.9C293.3 123.5 293.3 123.1 293.5 122.8H293.6ZM293.2 121.4V122.2C293.127 122.476 293.026 122.744 292.9 123C292.768 123.317 292.7 123.657 292.7 124C292.7 124.4 292.9 124.8 293 125.1V125.2C292.813 124.868 292.699 124.5 292.665 124.121C292.63 123.742 292.676 123.36 292.8 123L293.1 122.2V121.4H293.2ZM290.8 124.9C290.747 125.062 290.747 125.238 290.8 125.4L290.9 125.9C290.77 125.753 290.669 125.584 290.6 125.4C290.539 125.205 290.539 124.995 290.6 124.8H290.7C290.7 124.8 290.8 124.8 290.7 124.8L290.8 124.9ZM289.8 124.5C289.788 124.714 289.719 124.921 289.6 125.1C289.561 125.196 289.561 125.304 289.6 125.4L289.7 125.7C289.616 125.613 289.548 125.511 289.5 125.4C289.472 125.337 289.458 125.269 289.458 125.2C289.458 125.131 289.472 125.063 289.5 125C289.543 124.938 289.576 124.871 289.6 124.8C289.613 124.7 289.613 124.6 289.6 124.5H289.7H289.8ZM295.9 115.3C295.819 115.852 295.924 116.415 296.2 116.9L295.8 116.1C295.757 115.835 295.757 115.565 295.8 115.3H295.9ZM295.1 116C295.453 116.574 295.659 117.227 295.7 117.9H295.6C295.547 117.26 295.341 116.643 295 116.1H295.1V116ZM291.3 116.2C290.9 116.7 290.7 117.2 290.7 117.5C290.7 117.9 290.7 118.2 290.9 118.5C291.099 119.049 291.099 119.651 290.9 120.2H290.8L291 119.3C290.98 119.024 290.912 118.753 290.8 118.5L290.6 117.5C290.6 117.1 290.8 116.7 291.2 116.1C291.3 116.1 291.3 116.1 291.2 116.1L291.3 116.2ZM294.9 114.6C294.953 114.762 294.953 114.938 294.9 115.1L294.5 115.6C294.31 115.712 294.168 115.89 294.1 116.1V116.8C294 116.5 294 116.3 294.1 116C294.148 115.807 294.253 115.633 294.4 115.5L294.7 115.1C294.739 114.969 294.739 114.83 294.7 114.7L294.8 114.6H294.9ZM291.1 115V115.7C291.011 115.926 290.875 116.131 290.7 116.3C290.5 116.5 290.3 116.7 290.3 117C290.197 117.256 290.13 117.525 290.1 117.8V116.9C290.206 116.657 290.38 116.448 290.6 116.3L291 115.6C291.061 115.405 291.061 115.195 291 115H291.1ZM293.2 115C293.181 115.099 293.181 115.201 293.2 115.3C293.206 115.407 293.24 115.511 293.3 115.6C293.22 115.548 293.152 115.479 293.1 115.4C293.083 115.301 293.083 115.199 293.1 115.1H293.2V115ZM293.2 114.5C292.994 114.575 292.818 114.715 292.7 114.9C292.578 115.15 292.51 115.422 292.5 115.7L292.7 116.3L292.8 117H292.7C292.732 116.768 292.732 116.532 292.7 116.3C292.639 116.113 292.537 115.942 292.4 115.8C292 116.2 291.8 116.6 291.8 117.1C291.799 117.672 291.974 118.23 292.3 118.7C291.949 118.236 291.741 117.68 291.7 117.1C291.7 116.6 291.9 116.1 292.4 115.7C292.4 115.4 292.4 115.1 292.6 114.9C292.7 114.678 292.878 114.5 293.1 114.4V114.5H293.2ZM292.5 113.7V113.8C292.5 114.1 292.5 114.4 292.3 114.6C292.178 114.675 292.075 114.777 292 114.9V115.3H291.9C291.885 115.167 291.885 115.033 291.9 114.9C291.965 114.743 292.068 114.606 292.2 114.5L292.4 113.8V113.7H292.5ZM298.5 120.2C298.654 120.443 298.756 120.715 298.8 121H298.7C298.718 120.867 298.718 120.733 298.7 120.6C298.649 120.46 298.581 120.325 298.5 120.2ZM298.5 122.2V122.8C298.469 123.042 298.402 123.278 298.3 123.5L298.1 124.1H298L298.2 123.5C298.4 123.3 298.4 123 298.5 122.8C298.536 122.601 298.536 122.398 298.5 122.2V122.1V122.2ZM297.3 120.2C297.67 120.553 297.932 121.003 298.056 121.499C298.179 121.994 298.16 122.515 298 123H297.9C298.032 122.544 298.036 122.061 297.913 121.602C297.789 121.144 297.543 120.728 297.2 120.4V120.3H297.3V120.2ZM297.3 122.5C297.039 123.014 296.702 123.487 296.3 123.9C296.03 124.186 295.825 124.527 295.7 124.9C295.664 124.723 295.596 124.553 295.5 124.4C295.456 124.225 295.389 124.057 295.3 123.9C295.1 123.6 295 123.3 295.1 123C295.1 122.7 295.1 122.4 295.4 122.1C295.524 121.913 295.624 121.711 295.7 121.5V120.9H295.8C295.806 121.351 295.703 121.797 295.5 122.2L295.2 123C295.2 123.3 295.2 123.6 295.4 123.9C295.54 124.114 295.641 124.351 295.7 124.6C295.83 124.342 295.998 124.106 296.2 123.9C296.606 123.49 296.944 123.017 297.2 122.5H297.3ZM293.9 121.5C293.873 121.732 293.873 121.967 293.9 122.2L294.3 122.9C294.2 123 294.2 122.9 294.2 122.9C294.072 122.715 293.971 122.513 293.9 122.3C293.833 122.039 293.799 121.77 293.8 121.5V121.4H293.9V121.5ZM292 122.5V122.8V122.5ZM292.7 120.8C292.695 121.171 292.553 121.528 292.3 121.8C292.2 121.8 292.2 121.8 292.3 121.8C292.398 121.648 292.466 121.478 292.5 121.3C292.528 121.134 292.528 120.965 292.5 120.8L292.6 120.7L292.7 120.8ZM291 124C290.725 123.407 290.621 122.749 290.7 122.1C290.783 121.681 290.993 121.297 291.3 121L291.8 120.3V119.3H291.9V120.3L291.3 121.1C291.042 121.379 290.868 121.726 290.8 122.1C290.7 122.6 290.8 123.2 291.1 124H291ZM290 122.7C289.966 122.831 289.966 122.969 290 123.1V123.5C290 123.5 290.1 123.5 290 123.5C289.904 123.383 289.836 123.247 289.8 123.1C289.77 122.968 289.77 122.832 289.8 122.7H289.9C289.9 122.7 290 122.7 289.9 122.7H290ZM294.8 119.3L295.1 120.2C295.1 120.5 295.1 120.8 294.9 121.2C294.8 121.2 294.8 121.2 294.9 121.1L295 120.2C294.974 119.911 294.871 119.634 294.7 119.4C294.7 119.3 294.7 119.4 294.7 119.4L294.8 119.3ZM296.3 118.2C296.49 118.751 296.49 119.349 296.3 119.9C296.279 119.656 296.211 119.418 296.1 119.2C295.985 118.962 295.814 118.756 295.6 118.6C295.6 118.5 295.6 118.5 295.7 118.6C296.012 118.852 296.224 119.206 296.3 119.6V119C296.312 118.73 296.278 118.459 296.2 118.2C296.2 118.1 296.2 118.2 296.2 118.2H296.3ZM297.2 116.9L297.6 117.7L297.7 118.8V119.3L297.8 119.8C297.707 119.682 297.639 119.546 297.6 119.4C297.575 119.201 297.575 118.999 297.6 118.8C297.611 118.464 297.577 118.127 297.5 117.8C297.5 117.4 297.3 117.2 297.1 117C297.1 116.9 297.1 117 297.1 117L297.2 116.9ZM294.8 116.7L294.6 117.3V117.9C294.5 118 294.5 117.9 294.5 117.9C294.463 117.668 294.463 117.432 294.5 117.2C294.5 117 294.5 116.8 294.7 116.6H294.8V116.7ZM290.2 119.8C290.193 120.232 290.053 120.651 289.8 121L289 121.7H288.9C288.8 121.7 288.9 121.7 288.9 121.7L289.7 120.9C289.922 120.609 290.061 120.264 290.1 119.9V119.8H290.2ZM290.1 118.2V118.7C290.022 118.879 289.921 119.047 289.8 119.2L289.9 118.7C289.921 118.567 289.921 118.432 289.9 118.3L290 118.2H290.1ZM293.2 118V119.1H293.1V118H293.2ZM294 116.6C293.7 116.9 293.6 117.1 293.6 117.4L293.8 118.2C294.1 118.6 294.2 119 294.1 119.4C294.1 119.8 294 120.3 293.8 120.7H293.7L294 119.4C294.029 118.978 293.924 118.558 293.7 118.2L293.5 117.4C293.5 117.1 293.6 116.8 293.9 116.5C294 116.5 293.9 116.5 293.9 116.6H294ZM289 107.9L290.2 107.4C290.6 107.4 291 107.4 291.4 107.7H292.2H291.4V107.8C291.06 108.124 290.649 108.364 290.2 108.5C290.044 108.534 289.883 108.533 289.728 108.499C289.573 108.464 289.427 108.396 289.3 108.3V108.2L290.2 108.4L291.2 107.8C290.89 107.648 290.545 107.579 290.2 107.6C289.9 107.6 289.5 107.8 289.2 108H289.1L289 107.9Z" fill="black"/>
<path d="M290.2 107.8C290.28 107.8 290.356 107.832 290.412 107.888C290.468 107.944 290.5 108.021 290.5 108.1C290.5 108.18 290.468 108.256 290.412 108.312C290.356 108.368 290.28 108.4 290.2 108.4C290.161 108.4 290.122 108.392 290.085 108.377C290.049 108.362 290.016 108.34 289.988 108.312C289.96 108.284 289.938 108.251 289.923 108.215C289.908 108.179 289.9 108.139 289.9 108.1C289.9 107.9 290 107.8 290.2 107.8ZM292.1 109.5L292.6 109.2C292.714 109.078 292.815 108.944 292.9 108.8C293 108.8 293 108.8 292.9 108.8L292.7 109.3C292.546 109.42 292.378 109.521 292.2 109.6H292.1V109.5ZM296.1 107.9C296.166 107.889 296.234 107.889 296.3 107.9L296.7 108V108.1H296.6C296.509 108.044 296.406 108.01 296.3 108C296.234 107.987 296.166 107.987 296.1 108C296 107.9 296.1 107.9 296.1 107.9ZM293.8 107.9C293.892 107.731 294.031 107.592 294.2 107.5L294.9 107.4V107.5C294.662 107.447 294.413 107.483 294.2 107.6C294.06 107.698 293.955 107.838 293.9 108H293.8V107.9ZM294 108.3C294.046 108.216 294.115 108.146 294.2 108.1C294.277 108.004 294.382 107.934 294.5 107.9V108C294.392 108 294.287 108.035 294.2 108.1C294.183 108.166 294.183 108.235 294.2 108.3H294.1H294ZM290.3 109.6L290.1 109.9C290.083 109.999 290.083 110.101 290.1 110.2H290C289.976 109.95 290.048 109.7 290.2 109.5C290.3 109.5 290.3 109.5 290.2 109.5L290.3 109.6ZM291.3 110.1V110.2V110V110.1ZM290.7 108.9H291.4C291.272 108.952 291.137 108.985 291 109C290.868 109.027 290.732 109.027 290.6 109V108.9H290.7ZM291.4 106.9C291.354 106.874 291.303 106.86 291.25 106.86C291.197 106.86 291.146 106.874 291.1 106.9C291.048 106.956 291.014 107.025 291 107.1H290.9C290.927 106.979 290.998 106.872 291.1 106.8C291.198 106.769 291.302 106.769 291.4 106.8V106.9ZM290.2 106.9C290.122 106.954 290.054 107.022 290 107.1L289.9 107.2C289.883 107.135 289.883 107.066 289.9 107C289.987 106.916 290.089 106.848 290.2 106.8V106.9ZM289.5 106.9C289.458 106.962 289.425 107.03 289.4 107.1C289.356 107.161 289.322 107.229 289.3 107.3H289.2C289.192 107.234 289.192 107.167 289.2 107.1C289.287 107.016 289.389 106.948 289.5 106.9ZM288.7 107.7C288.546 107.812 288.411 107.947 288.3 108.1H288.2C288.308 107.915 288.443 107.746 288.6 107.6C288.6 107.6 288.7 107.6 288.6 107.6L288.7 107.7ZM288.7 108.7L288.6 108.8L288.4 109L288.5 108.8L288.7 108.6V108.7ZM287.8 108.9V109.3V108.9ZM289 110.4V111C289 111 289 111.1 288.9 111V110.4C289 110.4 289 110.4 288.9 110.4H289ZM288.3 109.9C288.301 110.033 288.301 110.167 288.3 110.3H288.2V109.9H288.3ZM287.7 105.1C287.816 105.14 287.922 105.205 288.008 105.292C288.095 105.379 288.161 105.484 288.2 105.6V105.7H288.1C288.061 105.584 287.992 105.481 287.9 105.4C287.848 105.321 287.78 105.252 287.7 105.2C287.6 105.2 287.7 105.2 287.7 105.2V105.1ZM293.2 112.3C293.308 112.535 293.364 112.791 293.364 113.05C293.364 113.309 293.308 113.565 293.2 113.8V113C293.203 112.796 293.169 112.592 293.1 112.4V112.3H293.2ZM291.4 114.3L291.7 113.7L292.2 113.1C292.351 112.885 292.456 112.64 292.508 112.382C292.559 112.123 292.557 111.857 292.5 111.6V111.5H292.6V112.4C292.546 112.65 292.444 112.888 292.3 113.1L291.8 113.7C291.669 113.919 291.568 114.154 291.5 114.4C291.4 114.4 291.4 114.4 291.5 114.4L291.4 114.3ZM289.1 113.8L289.3 113.5C289.387 113.416 289.489 113.348 289.6 113.3V113.4C289.486 113.443 289.383 113.511 289.3 113.6C289.254 113.66 289.221 113.728 289.2 113.8H289.1ZM288.6 113.6L288.9 113.3L289.3 113.1L289 113.4L288.7 113.7L288.6 113.6ZM291.1 111.3C291.166 111.31 291.234 111.31 291.3 111.3C291.399 111.317 291.501 111.317 291.6 111.3C291.408 111.378 291.192 111.378 291 111.3H291.1ZM289.8 111.1L289.9 111H290C290.002 111.067 290.002 111.133 290 111.2H289.9V111.1H289.8ZM315.6 118.5L315.8 118.7V118.9C315.8 118.9 315.8 119 315.8 118.9C315.77 118.864 315.736 118.83 315.7 118.8C315.646 118.722 315.578 118.654 315.5 118.6C315.5 118.5 315.6 118.6 315.6 118.6V118.5ZM287 132L287.4 132.2L287.9 132.3V132.4C287.9 132.4 287.9 132.5 287.9 132.4C287.736 132.438 287.564 132.438 287.4 132.4C287.212 132.296 287.043 132.161 286.9 132H287Z" fill="black"/>
<path d="M308.6 106.3C309.198 106.361 309.802 106.361 310.4 106.3C309.8 106.6 309.1 106.9 308.4 107C308.489 106.916 308.557 106.814 308.6 106.7C308.628 106.637 308.642 106.569 308.642 106.5C308.642 106.431 308.628 106.363 308.6 106.3ZM307.1 106.2L308.4 106.3V106.6L308.1 106.9V107.1C307.668 107.147 307.232 107.147 306.8 107.1C306.947 106.967 307.052 106.793 307.1 106.6C307.139 106.469 307.139 106.33 307.1 106.2ZM295.9 102.9H298.1C298.3 102.9 298.5 103.1 298.6 103.3C298.7 103.5 298.8 103.8 298.7 104.1L298.8 104.2H298.9L298.8 103.2C298.72 103.081 298.619 102.979 298.5 102.9H298.7C299.6 102.9 300.2 103.2 301 103.5L301.2 104.1L300.8 104.7C300.9 104.9 301 104.8 301 104.7C301.2 104.6 301.3 104.3 301.4 104.1C301.439 103.969 301.439 103.83 301.4 103.7L303.2 104.7V105.2L302.7 105.5C302.7 105.5 302.6 105.5 302.7 105.6C302.7 105.7 302.7 105.7 302.7 105.6C303 105.6 303.2 105.4 303.4 105.3C303.462 105.139 303.462 104.961 303.4 104.8L304.7 105.4C304.7 105.6 304.8 105.7 304.7 105.8C304.7 106 304.5 106.1 304.3 106.2V106.3C304.3 106.4 304.3 106.4 304.4 106.3C304.7 106.3 304.8 106.1 304.9 105.9C304.925 105.802 304.925 105.698 304.9 105.6L305.4 105.7C305.855 105.872 306.323 106.005 306.8 106.1C306.844 106.156 306.876 106.22 306.893 106.289C306.91 106.358 306.913 106.43 306.9 106.5C306.873 106.65 306.803 106.788 306.7 106.9V107.1C305.2 106.9 303.7 106.1 302.3 105.6L301.8 105.4L300.1 104.7H299.9V104.6C299.412 104.424 298.911 104.29 298.4 104.2C297.803 104.116 297.197 104.116 296.6 104.2C296.6 103.9 296.6 103.6 296.4 103.4C296.283 103.19 296.11 103.017 295.9 102.9Z" fill="#FF0000"/>
<path d="M293.3 103.6C294.006 103.311 294.745 103.109 295.5 103C295.9 103.1 296.1 103.3 296.2 103.5C296.3 103.7 296.4 103.9 296.3 104.2C295.627 104.115 294.943 104.183 294.3 104.4C294.2 104.1 294 103.9 293.7 103.7C293.567 103.679 293.433 103.679 293.3 103.7V103.6ZM301.3 107.6C301.103 107.493 300.903 107.393 300.7 107.3C299.685 106.746 298.555 106.438 297.4 106.4C297.8 106 297.9 105.6 297.8 105.2C297.653 104.869 297.409 104.59 297.1 104.4L298.2 104.5C298.884 104.587 299.556 104.755 300.2 105C300.3 105.4 300.4 105.7 300.3 106C300.2 106.3 300 106.5 299.7 106.7C299.6 106.7 299.7 106.7 299.7 106.7C299.7 106.9 299.7 106.9 299.8 106.8C300.2 106.6 300.4 106.3 300.5 106V105.1L301.5 105.8L302.7 106.6C302.7 107.1 302.5 107.3 302.3 107.5H301.3V107.7V107.6Z" fill="#FF0000"/>
<path d="M303.4 109.3L301.4 107.8C301.8 107.8 302.2 107.8 302.4 107.6C302.7 107.5 302.8 107.2 302.9 106.8C303.5 107.26 304.068 107.762 304.6 108.3V108.8C304.613 108.866 304.613 108.934 304.6 109C304.523 109.096 304.418 109.165 304.3 109.2C304.036 109.257 303.764 109.257 303.5 109.2V109.3H303.4Z" fill="#FF0000"/>
<path d="M305.7 110.8C305.462 110.674 305.229 110.541 305 110.4L303.6 109.4H304.3C304.45 109.373 304.588 109.303 304.7 109.2C304.809 109.092 304.879 108.952 304.9 108.8C304.915 108.701 304.915 108.599 304.9 108.5C305.567 109.119 306.305 109.656 307.1 110.1C307.1 110.3 307.1 110.5 306.8 110.5L305.8 110.7H305.7V110.8Z" fill="#FF0000"/>
<path d="M308.1 111.8C307.34 111.569 306.604 111.268 305.9 110.9C306.3 110.9 306.7 110.9 306.9 110.7C307.2 110.7 307.4 110.5 307.4 110.2L308.7 110.8V111.2C308.7 111.4 308.4 111.5 308.2 111.6C308.2 111.6 308.1 111.6 308.2 111.7L308.1 111.8Z" fill="#FF0000"/>
<path d="M313.2 111.2H313.4C312 112.2 310.1 112.2 308.3 111.8C308.6 111.7 308.8 111.5 308.9 111.3C308.9 111.2 309 111 308.9 110.9C309.485 111.092 310.088 111.226 310.7 111.3C310.686 111.375 310.652 111.444 310.6 111.5L310.1 111.9C310 111.9 310.1 111.9 310.1 111.9V112.1L310.8 111.7C310.88 111.583 310.915 111.441 310.9 111.3C311.664 111.392 312.436 111.392 313.2 111.3V111.2ZM302.9 137L302.6 137.4C302.2 137.5 301.8 137.7 301.3 137.7C301.3 138 301.4 138.1 301.7 138.1L302.5 137.8C302.5 137.8 302.4 138.3 301.9 138.6V138.8C302.3 139.4 303.3 139.2 303.9 139C304.3 139 305 138.5 305.2 138C305.3 137.9 305.2 137.6 305 137.4C304.5 137.4 304.4 137.3 304.4 137.1C304 137 303.4 136.9 302.9 137ZM286.7 131.9L285.6 132.5C285.4 132.5 285 132.6 285 132.8C285 132.9 285.3 133.1 285.4 133C285.9 132.5 286.2 132.8 285.6 133.2V133.5C286.2 134 287.4 134.1 288 133.8C288.4 133.5 288.6 133.2 288.2 132.8V132.6L287.6 132.5L287.2 132.2L286.7 131.9ZM297.4 135.6H297.2C297 135.8 297.6 135.7 297.9 135.9C298.1 136 298.2 136.2 298.1 136.4C297.8 137.1 296.1 136.9 295.6 136.6C295.3 136.5 295.3 136.3 295.3 136.1C295.645 136.121 295.99 136.052 296.3 135.9V135.7H296.1C295.941 135.764 295.771 135.798 295.6 135.8H295.1C295 135.8 294.9 135.8 295 135.7H295.2L296 135.5V135.3C296.6 135.3 297 135.5 297.4 135.6ZM289.7 135.1L289.5 135.4C289.22 135.702 288.879 135.94 288.5 136.1C288.3 136.2 288.5 136.3 288.8 136.5C289 136.6 289.2 136.3 289.4 136.1C289.6 135.8 289.7 135.9 289.6 136.1C289.491 136.319 289.423 136.556 289.4 136.8C289.4 137 290 137.1 290.2 137.1C290.6 137.1 291.1 136.7 291.4 136.5C291.7 136.3 291.7 136 291.5 135.7C291.334 135.72 291.166 135.72 291 135.7C290.791 135.618 290.59 135.518 290.4 135.4V135.3L289.7 135.1ZM292.7 107H293L293.7 107.1C294.269 106.852 294.88 106.716 295.5 106.7C296.086 106.543 296.693 106.475 297.3 106.5V106.3C297.6 106 297.7 105.7 297.6 105.3C297.6 105.1 297.2 104.8 296.8 104.6H295.4C295.1 104.6 294.8 104.6 294.5 104.8C294.8 104.8 295 105 295.2 105.2C295.4 105.4 295.5 105.8 295.6 106.2V106.3H295.4C295.361 105.936 295.222 105.59 295 105.3C294.8 105 294.3 104.9 294.2 104.9C293.7 104.9 293.2 104.9 292.8 105.1C292.5 105.1 292.3 105.3 292 105.4H293C293.2 105.6 293.5 105.9 293.6 106.3V106.4C293.6 106.5 293.4 106.4 293.4 106.4C293.3 106 293.1 105.8 292.9 105.7C292.4 105.5 291.5 105.7 291.2 105.9C290.942 106.107 290.707 106.342 290.5 106.6H290.4C291.2 106.6 292 106.7 292.7 107ZM290.3 106.5V106.4L291 105.7L291.7 105.4C291.966 105.105 292.314 104.896 292.7 104.8L294.2 104.6C294.145 104.465 294.063 104.343 293.96 104.24C293.857 104.137 293.735 104.055 293.6 104H292.9L291.2 104.8H291.8V105C291.8 105.1 291.5 105 291.4 105C291.235 104.97 291.065 104.97 290.9 105C290.9 105 290.9 105.1 290.9 105L289.5 106.1L290.2 106.5H290.3Z" fill="#FF0000"/>
<path d="M351.4 167L373.6 116.9L357.2 90.5L328.2 101.3L314.6 154.3C327.201 157.537 339.51 161.819 351.4 167.1V167Z" fill="#0093DD"/>
<path d="M323.2 120.6C337.684 124.315 351.834 129.232 365.5 135.3L356.9 154.6C344.328 149.062 331.316 144.58 318 141.2L323.2 120.6Z" fill="white"/>
<path d="M358.3 151.5L364 138.6C350.524 132.651 336.576 127.834 322.3 124.2L318.9 137.4C332.458 140.858 345.704 145.441 358.5 151.1L358.3 151.5Z" fill="#FF0000"/>
<path d="M326.4 134.2C326.8 134 327.2 134.1 327.6 134.2C327.9 134 328.3 134 328.7 134C328.919 133.891 329.156 133.823 329.4 133.8V133.5C329.291 133.392 329.221 133.252 329.2 133.1C328.666 132.703 328.279 132.141 328.1 131.5C327.7 131.5 327.5 131.3 327.5 131.2C327.3 131.202 327.1 131.202 326.9 131.2C326.1 131.2 325.9 130.9 325.6 130.7C325.453 130.674 325.315 130.616 325.193 130.529C325.072 130.443 324.972 130.33 324.9 130.2L324.7 129.9C324.4 129.6 324.5 129.2 324.9 129.2H325.6C325.8 129 326.2 129 326.6 129C326.9 129 327.1 128.8 327.5 128.5V128C327.5 127.9 327.5 127.8 327.7 127.9C328.1 127.9 328.4 128.1 328.6 128.4C329.1 128.5 329.6 128.7 329.9 129.2C330.6 129.2 331.1 129.5 331.1 129.7C331.1 129.9 330.9 130.2 330.6 130.4V130.5L331 131L332.1 131.7C333.1 131.6 334.9 132.3 337.2 133.8C338.7 134.1 340.2 134.5 341.6 135.1H342.6C345.1 134.8 347.6 135.1 349.8 136.8C350.6 136.9 351.4 137.2 352.2 137.5C352.743 137.718 353.316 137.853 353.9 137.9C354.8 137.9 355.7 138.2 356.6 138.6C357.6 138.8 358.6 139.2 359.2 139.9C359.7 140.4 359.6 140.9 359 141.1C358.7 141.8 358 141.8 357 141.5C356.4 141.5 355.6 141.1 355 140.5C354.034 140.174 353.123 139.702 352.3 139.1C351.913 138.813 351.47 138.608 351 138.5H350.1V138.7C350.4 138.9 350.5 139.2 350.6 139.5V140.5C350.6 141 350.9 141.3 351.3 141.5L352.3 142C352.6 142 352.7 142.1 352.7 142.3L353.1 144.1L353.5 144.5C354.1 144.9 353.8 145.5 353.2 145.5C352.7 146 352.3 146.3 351.8 146.4C351.4 146.5 351.2 146.4 351.1 146.2C350.996 146.209 350.891 146.184 350.802 146.13C350.712 146.077 350.641 145.996 350.6 145.9C350.1 145.5 350.6 144.9 351.7 145.2C351.7 145 351.9 145 352 145C351.893 144.675 351.893 144.325 352 144L351.6 143.8C351.195 143.68 350.82 143.475 350.5 143.2C349.9 142.6 348.9 142.2 348 141.6C347.2 141.6 346.7 141.3 346 141H345.3C345 140.9 344.8 141 344.7 141.1C344.5 141.4 344.2 141.4 343.9 141.3H342.7L342.2 141.4C341.7 141.4 341.3 141.4 341.1 141.6C340.8 141.9 340.6 141.8 340.4 141.8C340.243 141.736 340.106 141.632 340 141.5L339.4 141.3C338.9 141.1 338.8 141 338.8 140.9C338.2 140.7 338.5 140.2 338.9 140.2L340.4 140.3C340.8 140.4 341.3 140.3 341.6 140.1L342.2 139.5C341.502 139.506 340.813 139.334 340.2 139C339 138.3 338 138 337.2 138.7C337 138.9 336.8 138.9 336.6 138.8C336.404 138.744 336.196 138.744 336 138.8L334.7 138.7C334.042 138.854 333.358 138.854 332.7 138.7C332.1 139 331.7 139.1 331.5 138.8C331.261 138.677 331.027 138.544 330.8 138.4C330.4 138.4 330.3 138.3 330.3 138.2C329.8 138.1 329.8 137.9 329.8 137.8C329.6 137.5 329.7 137.4 329.8 137.2C330.2 137.1 330.5 137 330.9 137.2L331.4 137.6H332.1C332.3 137.4 332.7 137.4 333.1 137.4L333.9 137.2V137C333.4 136.9 333.2 136.6 333 136.2C332.386 136.173 331.795 135.964 331.3 135.6C330.9 135.6 330.6 135.6 330.3 135.4H329.5C329.01 135.542 328.49 135.542 328 135.4L327.1 135.3C326.8 135.6 326.5 135.7 326.1 135.5C325.863 135.239 325.547 135.063 325.2 135C324.9 134.9 324.8 134.8 324.8 134.6C324.4 134.4 324.5 134.2 324.8 134C325.1 134 325.4 133.9 325.9 134.1L326.4 134.2Z" fill="black"/>
<path d="M343.1 139.3C343.1 139.3 343 139.1 342.8 139.3C341.9 139.3 341.1 139.3 340.4 138.8C339.7 138.4 339 138 338.2 138.1C338.451 137.858 338.762 137.685 339.1 137.6C339.596 137.505 340.104 137.505 340.6 137.6C341.4 137.6 342.1 137.9 342.6 138.1C343.2 138.3 343.6 138.5 343.7 138.8C343.733 138.804 343.767 138.804 343.8 138.8C344.142 139.016 344.446 139.286 344.7 139.6H343.9C343.62 139.539 343.351 139.438 343.1 139.3Z" fill="white"/>
<path d="M345 101.1V101.3L346 106.5L342 110L341.8 110.1L342.1 110.2L347.1 111.9L348.1 117.1V117.3L348.3 117.1L352.3 113.7L357.3 115.4H357.4V115.3L356.4 110.1L360.4 106.6L360.6 106.5L360.3 106.4L355.3 104.7L354.3 99.5V99.3L354.1 99.4L350.1 102.9L345.1 101.2L345 101.1Z" fill="black"/>
<path d="M342.5 109.9L346.2 106.7L350.9 108.3L342.5 109.9ZM351.5 108.2L355.2 104.9L359.8 106.5L351.5 108.2ZM359.9 106.7L356.2 109.9L351.5 108.3L359.9 106.7ZM350.9 108.4L347.2 111.7L342.5 110.1L350.9 108.4ZM345.5 101.6L350.1 103.2L351.1 108L345.5 101.6ZM351.5 108.5L356.1 110.1L357.1 114.9L351.5 108.5ZM356.9 115L352.3 113.4L351.3 108.6L356.9 115ZM350.9 108.1L346.3 106.5L345.3 101.7L350.9 108.1ZM354.1 99.9999L355.1 104.8L351.4 108L354.1 99.9999ZM351.1 108.6L352.1 113.5L348.4 116.7L351.1 108.6ZM348.2 116.6L347.2 111.8L351 108.6L348.2 116.6ZM351.2 108L350.2 103.1L354 99.8999L351.2 108Z" fill="#F7DB17"/>
</g>
<defs>
<clipPath id="clip0_2_35503">
<rect width="512" height="512" fill="white"/>
</clipPath>
</defs>
</svg>
