<svg width="512" height="512" viewBox="0 0 512 512" fill="none" xmlns="http://www.w3.org/2000/svg">
<g clip-path="url(#clip0_2_35670)">
<path d="M0 0H512V170.7H0V0Z" fill="#FF9933"/>
<path d="M0 170.7H512V341.3H0V170.7Z" fill="white"/>
<path d="M0 341.3H512V512H0V341.3Z" fill="#128807"/>
<path d="M256 324.267C293.703 324.267 324.267 293.703 324.267 256C324.267 218.297 293.703 187.733 256 187.733C218.297 187.733 187.733 218.297 187.733 256C187.733 293.703 218.297 324.267 256 324.267Z" fill="#000088"/>
<path d="M256 315.733C288.99 315.733 315.733 288.99 315.733 256C315.733 223.01 288.99 196.267 256 196.267C223.01 196.267 196.267 223.01 196.267 256C196.267 288.99 223.01 315.733 256 315.733Z" fill="white"/>
<path d="M256 267.947C262.598 267.947 267.947 262.598 267.947 256C267.947 249.402 262.598 244.053 256 244.053C249.402 244.053 244.053 249.402 244.053 256C244.053 262.598 249.402 267.947 256 267.947Z" fill="#000088"/>
<path d="M314.82 266.865C316.502 267.086 318.045 265.902 318.267 264.22C318.488 262.538 317.304 260.995 315.622 260.773C313.94 260.552 312.397 261.736 312.175 263.418C311.954 265.1 313.138 266.643 314.82 266.865Z" fill="#000088"/>
<path d="M256 315.733L258.048 279.893L256 262.827L253.952 279.893L256 315.733Z" fill="#000088"/>
</g>
<defs>
<clipPath id="clip0_2_35670">
<rect width="512" height="512" fill="white"/>
</clipPath>
</defs>
</svg>
