<svg width="512" height="512" viewBox="0 0 512 512" fill="none" xmlns="http://www.w3.org/2000/svg">
<g clip-path="url(#clip0_2_37137)">
<path d="M0 0H512V512H0V0Z" fill="#CC0000"/>
<path d="M0.399994 42.5H511.6V83.5H0.399994V42.5Z" fill="white"/>
<path d="M0.399994 126.5H511.6V167.5H0.399994V126.5Z" fill="white"/>
<path d="M0.399994 210.6H511.6V251.6H0.399994V210.6Z" fill="white"/>
<path d="M0 0H256V298.7H0V0Z" fill="#000066"/>
<path d="M172.5 86.8001L178.1 125L199.7 93.0001L188.1 129.8L221.4 110.4L195 138.5L233.5 135.5L197.5 149.3L233.5 163.3L195 160.2L221.4 188.2L188 169L199.6 205.7L178 173.8L172.4 211.9L166.8 173.9L145.3 205.7L156.8 169L123.6 188.4L149.9 160.3L111.5 163.3L147.5 149.4L111.5 135.5L149.9 138.6L123.6 110.5L156.8 129.9L145.4 93.0001L166.9 125L172.5 86.8001ZM141.3 88.4001C131.145 83.8862 120.023 81.9811 108.944 82.8581C97.8656 83.7351 87.1818 87.3663 77.8633 93.4219C68.5449 99.4774 60.8871 107.765 55.5858 117.533C50.2846 127.3 47.5078 138.237 47.5078 149.35C47.5078 160.463 50.2846 171.4 55.5858 181.168C60.8871 190.935 68.5449 199.223 77.8633 205.278C87.1818 211.334 97.8656 214.965 108.944 215.842C120.023 216.719 131.145 214.814 141.3 210.3C130.092 218.337 116.884 223.128 103.13 224.146C89.3757 225.163 75.607 222.369 63.3379 216.069C51.0687 209.769 40.7742 200.209 33.5863 188.438C26.3984 176.667 22.5953 163.142 22.5953 149.35C22.5953 135.558 26.3984 122.033 33.5863 110.262C40.7742 98.4917 51.0687 88.9308 63.3379 82.6311C75.607 76.3314 89.3757 73.5368 103.13 74.5546C116.884 75.5724 130.092 80.3632 141.3 88.4001Z" fill="#FFCC00"/>
<path d="M0.399994 294.6H511.6V335.6H0.399994V294.6Z" fill="white"/>
<path d="M0.399994 378.1H511.6V419.1H0.399994V378.1Z" fill="white"/>
<path d="M0 471H511.2V512H0V471Z" fill="white"/>
</g>
<defs>
<clipPath id="clip0_2_37137">
<rect width="512" height="512" fill="white"/>
</clipPath>
</defs>
</svg>
